<svg width="44" height="36" viewBox="0 0 44 36" fill="none" xmlns="http://www.w3.org/2000/svg">
<path d="M22.25 23.6323C25.7018 23.6323 28.5 21.2521 28.5 18.3161C28.5 15.3801 25.7018 13 22.25 13C18.7982 13 16 15.3801 16 18.3161C16 21.2521 18.7982 23.6323 22.25 23.6323Z" fill="#1D0000" fill-opacity="0.8" stroke="white" stroke-opacity="0.89" stroke-width="1.69286" stroke-miterlimit="10" stroke-linecap="round" stroke-linejoin="round"/>
<path d="M1 19.2855V16.1667C1 14.3238 2.77083 12.7999 4.95833 12.7999C8.72917 12.7999 10.2708 10.5316 8.375 7.74954C7.29167 6.1547 7.9375 4.08141 9.83333 3.15995L13.4375 1.40562C15.0833 0.572763 17.2083 1.06893 18.1875 2.46885L18.4167 2.80554C20.2917 5.58764 23.375 5.58764 25.2708 2.80554L25.5 2.46885C26.4792 1.06893 28.6042 0.572763 30.25 1.40562L33.8542 3.15995C35.75 4.08141 36.3958 6.1547 35.3125 7.74954C33.4167 10.5316 34.9583 12.7999 38.7292 12.7999C40.8958 12.7999 42.6875 14.3061 42.6875 16.1667V19.2855C42.6875 21.1285 40.9167 22.6524 38.7292 22.6524C34.9583 22.6524 33.4167 24.9206 35.3125 27.7027C36.3958 29.3153 35.75 31.3709 33.8542 32.2923L30.25 34.0466C28.6042 34.8795 26.4792 34.3833 25.5 32.9834L25.2708 32.6467C23.3958 29.8646 20.3125 29.8646 18.4167 32.6467L18.1875 32.9834C17.2083 34.3833 15.0833 34.8795 13.4375 34.0466L9.83333 32.2923C7.9375 31.3709 7.29167 29.2976 8.375 27.7027C10.2708 24.9206 8.72917 22.6524 4.95833 22.6524C2.77083 22.6524 1 21.1285 1 19.2855Z" fill="#1D0000" fill-opacity="0.8" stroke="white" stroke-opacity="0.89" stroke-width="1.69286" stroke-miterlimit="10" stroke-linecap="round" stroke-linejoin="round"/>
</svg>
