<svg width="550" height="221" viewBox="0 0 550 221" fill="none" xmlns="http://www.w3.org/2000/svg">
<mask id="path-1-outside-1_145_183" maskUnits="userSpaceOnUse" x="0" y="0" width="550" height="221" fill="black">
<rect fill="white" width="550" height="221"/>
<path d="M2.625 96V2.25H37.3125C47.3958 2.25 55.2083 4.39583 60.75 8.6875C66.3333 12.9375 69.125 18.9167 69.125 26.625C69.125 31.3333 68.0208 35.5 65.8125 39.125C63.6042 42.7083 60.625 45.4375 56.875 47.3125C62.2083 48.8958 66.3542 51.625 69.3125 55.5C72.3125 59.3333 73.8125 64.0417 73.8125 69.625C73.8125 74.9583 72.5 79.6042 69.875 83.5625C67.2917 87.4792 63.625 90.5417 58.875 92.75C54.1667 94.9167 48.625 96 42.25 96H2.625ZM21.875 41.5H36.25C40.5417 41.5 43.9375 40.4792 46.4375 38.4375C48.9375 36.3958 50.1875 33.625 50.1875 30.125C50.1875 26.7083 48.9167 24.0208 46.375 22.0625C43.875 20.0625 40.3958 19.0625 35.9375 19.0625H21.875V41.5ZM21.875 79.1875H37.4375C40.8542 79.1875 43.8125 78.7083 46.3125 77.75C48.8125 76.75 50.7292 75.3542 52.0625 73.5625C53.4375 71.7292 54.125 69.6042 54.125 67.1875C54.125 64.7708 53.5 62.7083 52.25 61C51.0417 59.2917 49.2708 58 46.9375 57.125C44.6042 56.2083 41.8333 55.75 38.625 55.75H21.875V79.1875ZM167.375 2.25V53.8125C167.375 62.9792 165.729 70.8542 162.438 77.4375C159.188 84.0208 154.5 89.0833 148.375 92.625C142.292 96.125 134.979 97.875 126.438 97.875C117.938 97.875 110.625 96.125 104.5 92.625C98.375 89.0833 93.6667 84.0208 90.375 77.4375C87.125 70.8542 85.5 62.9792 85.5 53.8125V2.25H104.75V51.4375C104.75 57.9792 105.562 63.4375 107.188 67.8125C108.854 72.1875 111.292 75.5 114.5 77.75C117.708 79.9583 121.688 81.0625 126.438 81.0625C131.188 81.0625 135.167 79.9583 138.375 77.75C141.583 75.5 144 72.1875 145.625 67.8125C147.292 63.4375 148.125 57.9792 148.125 51.4375V2.25H167.375ZM182.625 96V2.25H217.312C227.396 2.25 235.208 4.39583 240.75 8.6875C246.333 12.9375 249.125 18.9167 249.125 26.625C249.125 31.3333 248.021 35.5 245.812 39.125C243.604 42.7083 240.625 45.4375 236.875 47.3125C242.208 48.8958 246.354 51.625 249.312 55.5C252.312 59.3333 253.812 64.0417 253.812 69.625C253.812 74.9583 252.5 79.6042 249.875 83.5625C247.292 87.4792 243.625 90.5417 238.875 92.75C234.167 94.9167 228.625 96 222.25 96H182.625ZM201.875 41.5H216.25C220.542 41.5 223.938 40.4792 226.438 38.4375C228.938 36.3958 230.188 33.625 230.188 30.125C230.188 26.7083 228.917 24.0208 226.375 22.0625C223.875 20.0625 220.396 19.0625 215.938 19.0625H201.875V41.5ZM201.875 79.1875H217.438C220.854 79.1875 223.812 78.7083 226.312 77.75C228.812 76.75 230.729 75.3542 232.062 73.5625C233.438 71.7292 234.125 69.6042 234.125 67.1875C234.125 64.7708 233.5 62.7083 232.25 61C231.042 59.2917 229.271 58 226.938 57.125C224.604 56.2083 221.833 55.75 218.625 55.75H201.875V79.1875ZM326.75 96H265.5V2.25H284.75V79.1875H326.75V96ZM337 96V2.25H356.25V96H337ZM390.75 96H371.5V2.25H390.75V48.375C392.625 45.625 394.417 43.0833 396.125 40.75C397.833 38.4167 399.292 36.5 400.5 35L426.5 2.25H449.188L414.812 45.5L455.812 96H430.875L402.5 60.9375L390.75 75.75V96ZM2.625 217V123.25H33.3125C44.6458 123.25 54.4583 125.167 62.75 129C71.0417 132.833 77.4583 138.25 82 145.25C86.5417 152.25 88.8125 160.542 88.8125 170.125C88.8125 179.667 86.5417 187.958 82 195C77.4583 202 71.0417 207.417 62.75 211.25C54.4583 215.083 44.6458 217 33.3125 217H2.625ZM21.875 200.188H34C41.5 200.188 47.8542 199.021 53.0625 196.688C58.3125 194.312 62.2917 190.896 65 186.438C67.75 181.938 69.125 176.5 69.125 170.125C69.125 163.708 67.75 158.271 65 153.812C62.2917 149.354 58.3125 145.958 53.0625 143.625C47.8542 141.25 41.5 140.062 34 140.062H21.875V200.188ZM147 218.875C139.875 218.875 133.292 217.667 127.25 215.25C121.25 212.792 116.021 209.375 111.562 205C107.146 200.583 103.708 195.417 101.25 189.5C98.8333 183.583 97.625 177.125 97.625 170.125C97.625 163.125 98.8333 156.667 101.25 150.75C103.708 144.792 107.146 139.625 111.562 135.25C116.021 130.833 121.25 127.417 127.25 125C133.292 122.583 139.875 121.375 147 121.375C154.125 121.375 160.688 122.604 166.688 125.062C172.688 127.479 177.875 130.875 182.25 135.25C186.667 139.625 190.104 144.771 192.562 150.688C195.021 156.604 196.25 163.083 196.25 170.125C196.25 177.125 195.021 183.604 192.562 189.562C190.146 195.479 186.729 200.625 182.312 205C177.896 209.375 172.688 212.792 166.688 215.25C160.688 217.667 154.125 218.875 147 218.875ZM147 202.062C151.208 202.062 155.104 201.25 158.688 199.625C162.312 198 165.458 195.75 168.125 192.875C170.792 189.958 172.854 186.583 174.312 182.75C175.812 178.875 176.562 174.667 176.562 170.125C176.562 165.583 175.812 161.375 174.312 157.5C172.854 153.625 170.792 150.25 168.125 147.375C165.458 144.458 162.312 142.208 158.688 140.625C155.104 139 151.208 138.188 147 138.188C142.75 138.188 138.812 139 135.188 140.625C131.604 142.208 128.458 144.458 125.75 147.375C123.083 150.25 121 153.625 119.5 157.5C118.042 161.375 117.312 165.583 117.312 170.125C117.312 174.667 118.042 178.875 119.5 182.75C121 186.625 123.083 190.021 125.75 192.938C128.458 195.812 131.604 198.062 135.188 199.688C138.812 201.271 142.75 202.062 147 202.062ZM293.438 217H271.312L227.5 153V217H208.25V123.25H230.375L274.188 187.375V123.25H293.438V217ZM390.625 123.25V174.812C390.625 183.979 388.979 191.854 385.688 198.438C382.438 205.021 377.75 210.083 371.625 213.625C365.542 217.125 358.229 218.875 349.688 218.875C341.188 218.875 333.875 217.125 327.75 213.625C321.625 210.083 316.917 205.021 313.625 198.438C310.375 191.854 308.75 183.979 308.75 174.812V123.25H328V172.438C328 178.979 328.812 184.438 330.438 188.812C332.104 193.188 334.542 196.5 337.75 198.75C340.958 200.958 344.938 202.062 349.688 202.062C354.438 202.062 358.417 200.958 361.625 198.75C364.833 196.5 367.25 193.188 368.875 188.812C370.542 184.438 371.375 178.979 371.375 172.438V123.25H390.625ZM446.375 217H427.125V140.062H399.5V123.25H474.062V140.062H446.375V217ZM478.625 206.875L487.75 192.188C490.625 194.521 493.396 196.438 496.062 197.938C498.771 199.396 501.438 200.479 504.062 201.188C506.688 201.854 509.375 202.188 512.125 202.188C515.375 202.188 518.188 201.729 520.562 200.812C522.938 199.896 524.771 198.583 526.062 196.875C527.396 195.167 528.062 193.188 528.062 190.938C528.062 188.312 527.229 186.104 525.562 184.312C523.896 182.521 521.708 180.958 519 179.625C516.333 178.25 513.438 176.938 510.312 175.688C507.271 174.438 504.208 173.083 501.125 171.625C498.083 170.125 495.271 168.354 492.688 166.312C490.146 164.271 488.083 161.792 486.5 158.875C484.958 155.917 484.188 152.333 484.188 148.125C484.188 142.625 485.562 137.875 488.312 133.875C491.104 129.875 494.917 126.792 499.75 124.625C504.583 122.458 510.104 121.375 516.312 121.375C520.688 121.375 525.229 121.958 529.938 123.125C534.688 124.292 539.417 126.062 544.125 128.438L536.562 144C533.604 142.208 530.417 140.792 527 139.75C523.583 138.708 520.375 138.188 517.375 138.188C514.667 138.188 512.292 138.604 510.25 139.438C508.25 140.271 506.688 141.438 505.562 142.938C504.438 144.396 503.875 146.125 503.875 148.125C503.875 150.5 504.688 152.562 506.312 154.312C507.938 156.021 510.042 157.542 512.625 158.875C515.25 160.208 518.062 161.542 521.062 162.875C524.146 164.208 527.25 165.667 530.375 167.25C533.542 168.833 536.417 170.708 539 172.875C541.625 175 543.729 177.562 545.312 180.562C546.938 183.521 547.75 187.083 547.75 191.25C547.75 196.75 546.292 201.583 543.375 205.75C540.458 209.875 536.396 213.104 531.188 215.438C525.979 217.729 519.917 218.875 513 218.875C506.667 218.875 500.604 217.854 494.812 215.812C489.021 213.771 483.625 210.792 478.625 206.875Z"/>
</mask>
<path d="M2.625 96V2.25H37.3125C47.3958 2.25 55.2083 4.39583 60.75 8.6875C66.3333 12.9375 69.125 18.9167 69.125 26.625C69.125 31.3333 68.0208 35.5 65.8125 39.125C63.6042 42.7083 60.625 45.4375 56.875 47.3125C62.2083 48.8958 66.3542 51.625 69.3125 55.5C72.3125 59.3333 73.8125 64.0417 73.8125 69.625C73.8125 74.9583 72.5 79.6042 69.875 83.5625C67.2917 87.4792 63.625 90.5417 58.875 92.75C54.1667 94.9167 48.625 96 42.25 96H2.625ZM21.875 41.5H36.25C40.5417 41.5 43.9375 40.4792 46.4375 38.4375C48.9375 36.3958 50.1875 33.625 50.1875 30.125C50.1875 26.7083 48.9167 24.0208 46.375 22.0625C43.875 20.0625 40.3958 19.0625 35.9375 19.0625H21.875V41.5ZM21.875 79.1875H37.4375C40.8542 79.1875 43.8125 78.7083 46.3125 77.75C48.8125 76.75 50.7292 75.3542 52.0625 73.5625C53.4375 71.7292 54.125 69.6042 54.125 67.1875C54.125 64.7708 53.5 62.7083 52.25 61C51.0417 59.2917 49.2708 58 46.9375 57.125C44.6042 56.2083 41.8333 55.75 38.625 55.75H21.875V79.1875ZM167.375 2.25V53.8125C167.375 62.9792 165.729 70.8542 162.438 77.4375C159.188 84.0208 154.5 89.0833 148.375 92.625C142.292 96.125 134.979 97.875 126.438 97.875C117.938 97.875 110.625 96.125 104.5 92.625C98.375 89.0833 93.6667 84.0208 90.375 77.4375C87.125 70.8542 85.5 62.9792 85.5 53.8125V2.25H104.75V51.4375C104.75 57.9792 105.562 63.4375 107.188 67.8125C108.854 72.1875 111.292 75.5 114.5 77.75C117.708 79.9583 121.688 81.0625 126.438 81.0625C131.188 81.0625 135.167 79.9583 138.375 77.75C141.583 75.5 144 72.1875 145.625 67.8125C147.292 63.4375 148.125 57.9792 148.125 51.4375V2.25H167.375ZM182.625 96V2.25H217.312C227.396 2.25 235.208 4.39583 240.75 8.6875C246.333 12.9375 249.125 18.9167 249.125 26.625C249.125 31.3333 248.021 35.5 245.812 39.125C243.604 42.7083 240.625 45.4375 236.875 47.3125C242.208 48.8958 246.354 51.625 249.312 55.5C252.312 59.3333 253.812 64.0417 253.812 69.625C253.812 74.9583 252.5 79.6042 249.875 83.5625C247.292 87.4792 243.625 90.5417 238.875 92.75C234.167 94.9167 228.625 96 222.25 96H182.625ZM201.875 41.5H216.25C220.542 41.5 223.938 40.4792 226.438 38.4375C228.938 36.3958 230.188 33.625 230.188 30.125C230.188 26.7083 228.917 24.0208 226.375 22.0625C223.875 20.0625 220.396 19.0625 215.938 19.0625H201.875V41.5ZM201.875 79.1875H217.438C220.854 79.1875 223.812 78.7083 226.312 77.75C228.812 76.75 230.729 75.3542 232.062 73.5625C233.438 71.7292 234.125 69.6042 234.125 67.1875C234.125 64.7708 233.5 62.7083 232.25 61C231.042 59.2917 229.271 58 226.938 57.125C224.604 56.2083 221.833 55.75 218.625 55.75H201.875V79.1875ZM326.75 96H265.5V2.25H284.75V79.1875H326.75V96ZM337 96V2.25H356.25V96H337ZM390.75 96H371.5V2.25H390.75V48.375C392.625 45.625 394.417 43.0833 396.125 40.75C397.833 38.4167 399.292 36.5 400.5 35L426.5 2.25H449.188L414.812 45.5L455.812 96H430.875L402.5 60.9375L390.75 75.75V96ZM2.625 217V123.25H33.3125C44.6458 123.25 54.4583 125.167 62.75 129C71.0417 132.833 77.4583 138.25 82 145.25C86.5417 152.25 88.8125 160.542 88.8125 170.125C88.8125 179.667 86.5417 187.958 82 195C77.4583 202 71.0417 207.417 62.75 211.25C54.4583 215.083 44.6458 217 33.3125 217H2.625ZM21.875 200.188H34C41.5 200.188 47.8542 199.021 53.0625 196.688C58.3125 194.312 62.2917 190.896 65 186.438C67.75 181.938 69.125 176.5 69.125 170.125C69.125 163.708 67.75 158.271 65 153.812C62.2917 149.354 58.3125 145.958 53.0625 143.625C47.8542 141.25 41.5 140.062 34 140.062H21.875V200.188ZM147 218.875C139.875 218.875 133.292 217.667 127.25 215.25C121.25 212.792 116.021 209.375 111.562 205C107.146 200.583 103.708 195.417 101.25 189.5C98.8333 183.583 97.625 177.125 97.625 170.125C97.625 163.125 98.8333 156.667 101.25 150.75C103.708 144.792 107.146 139.625 111.562 135.25C116.021 130.833 121.25 127.417 127.25 125C133.292 122.583 139.875 121.375 147 121.375C154.125 121.375 160.688 122.604 166.688 125.062C172.688 127.479 177.875 130.875 182.25 135.25C186.667 139.625 190.104 144.771 192.562 150.688C195.021 156.604 196.25 163.083 196.25 170.125C196.25 177.125 195.021 183.604 192.562 189.562C190.146 195.479 186.729 200.625 182.312 205C177.896 209.375 172.688 212.792 166.688 215.25C160.688 217.667 154.125 218.875 147 218.875ZM147 202.062C151.208 202.062 155.104 201.25 158.688 199.625C162.312 198 165.458 195.75 168.125 192.875C170.792 189.958 172.854 186.583 174.312 182.75C175.812 178.875 176.562 174.667 176.562 170.125C176.562 165.583 175.812 161.375 174.312 157.5C172.854 153.625 170.792 150.25 168.125 147.375C165.458 144.458 162.312 142.208 158.688 140.625C155.104 139 151.208 138.188 147 138.188C142.75 138.188 138.812 139 135.188 140.625C131.604 142.208 128.458 144.458 125.75 147.375C123.083 150.25 121 153.625 119.5 157.5C118.042 161.375 117.312 165.583 117.312 170.125C117.312 174.667 118.042 178.875 119.5 182.75C121 186.625 123.083 190.021 125.75 192.938C128.458 195.812 131.604 198.062 135.188 199.688C138.812 201.271 142.75 202.062 147 202.062ZM293.438 217H271.312L227.5 153V217H208.25V123.25H230.375L274.188 187.375V123.25H293.438V217ZM390.625 123.25V174.812C390.625 183.979 388.979 191.854 385.688 198.438C382.438 205.021 377.75 210.083 371.625 213.625C365.542 217.125 358.229 218.875 349.688 218.875C341.188 218.875 333.875 217.125 327.75 213.625C321.625 210.083 316.917 205.021 313.625 198.438C310.375 191.854 308.75 183.979 308.75 174.812V123.25H328V172.438C328 178.979 328.812 184.438 330.438 188.812C332.104 193.188 334.542 196.5 337.75 198.75C340.958 200.958 344.938 202.062 349.688 202.062C354.438 202.062 358.417 200.958 361.625 198.75C364.833 196.5 367.25 193.188 368.875 188.812C370.542 184.438 371.375 178.979 371.375 172.438V123.25H390.625ZM446.375 217H427.125V140.062H399.5V123.25H474.062V140.062H446.375V217ZM478.625 206.875L487.75 192.188C490.625 194.521 493.396 196.438 496.062 197.938C498.771 199.396 501.438 200.479 504.062 201.188C506.688 201.854 509.375 202.188 512.125 202.188C515.375 202.188 518.188 201.729 520.562 200.812C522.938 199.896 524.771 198.583 526.062 196.875C527.396 195.167 528.062 193.188 528.062 190.938C528.062 188.312 527.229 186.104 525.562 184.312C523.896 182.521 521.708 180.958 519 179.625C516.333 178.25 513.438 176.938 510.312 175.688C507.271 174.438 504.208 173.083 501.125 171.625C498.083 170.125 495.271 168.354 492.688 166.312C490.146 164.271 488.083 161.792 486.5 158.875C484.958 155.917 484.188 152.333 484.188 148.125C484.188 142.625 485.562 137.875 488.312 133.875C491.104 129.875 494.917 126.792 499.75 124.625C504.583 122.458 510.104 121.375 516.312 121.375C520.688 121.375 525.229 121.958 529.938 123.125C534.688 124.292 539.417 126.062 544.125 128.438L536.562 144C533.604 142.208 530.417 140.792 527 139.75C523.583 138.708 520.375 138.188 517.375 138.188C514.667 138.188 512.292 138.604 510.25 139.438C508.25 140.271 506.688 141.438 505.562 142.938C504.438 144.396 503.875 146.125 503.875 148.125C503.875 150.5 504.688 152.562 506.312 154.312C507.938 156.021 510.042 157.542 512.625 158.875C515.25 160.208 518.062 161.542 521.062 162.875C524.146 164.208 527.25 165.667 530.375 167.25C533.542 168.833 536.417 170.708 539 172.875C541.625 175 543.729 177.562 545.312 180.562C546.938 183.521 547.75 187.083 547.75 191.25C547.75 196.75 546.292 201.583 543.375 205.75C540.458 209.875 536.396 213.104 531.188 215.438C525.979 217.729 519.917 218.875 513 218.875C506.667 218.875 500.604 217.854 494.812 215.812C489.021 213.771 483.625 210.792 478.625 206.875Z" fill="#FFE8EE"/>
<path d="M2.625 96H0.625V98H2.625V96ZM2.625 2.25V0.25H0.625V2.25H2.625ZM60.75 8.6875L59.5254 10.2688L59.532 10.2739L59.5386 10.2789L60.75 8.6875ZM65.8125 39.125L67.5152 40.1743L67.5205 40.1655L65.8125 39.125ZM56.875 47.3125L55.9806 45.5236L51.4509 47.7885L56.3058 49.2298L56.875 47.3125ZM69.3125 55.5L67.7228 56.7136L67.7301 56.7232L67.7375 56.7326L69.3125 55.5ZM69.875 83.5625L68.2082 82.4571L68.2055 82.4613L69.875 83.5625ZM58.875 92.75L59.7111 94.5669L59.7182 94.5636L58.875 92.75ZM21.875 41.5H19.875V43.5H21.875V41.5ZM46.375 22.0625L45.1256 23.6242L45.1399 23.6356L45.1543 23.6468L46.375 22.0625ZM21.875 19.0625V17.0625H19.875V19.0625H21.875ZM21.875 79.1875H19.875V81.1875H21.875V79.1875ZM46.3125 77.75L47.0284 79.6175L47.0419 79.6123L47.0553 79.607L46.3125 77.75ZM52.0625 73.5625L50.4625 72.3625L50.458 72.3685L52.0625 73.5625ZM52.25 61L50.6172 62.1549L50.6264 62.1681L50.6359 62.181L52.25 61ZM46.9375 57.125L46.2062 58.9865L46.2207 58.9922L46.2353 58.9977L46.9375 57.125ZM21.875 55.75V53.75H19.875V55.75H21.875ZM2.625 96H4.625V2.25H2.625H0.625V96H2.625ZM2.625 2.25V4.25H37.3125V2.25V0.25H2.625V2.25ZM37.3125 2.25V4.25C47.141 4.25 54.4587 6.34495 59.5254 10.2688L60.75 8.6875L61.9746 7.10624C55.9579 2.44672 47.6506 0.25 37.3125 0.25V2.25ZM60.75 8.6875L59.5386 10.2789C64.5712 14.1097 67.125 19.4703 67.125 26.625H69.125H71.125C71.125 18.363 68.0954 11.7653 61.9614 7.09609L60.75 8.6875ZM69.125 26.625H67.125C67.125 31.0076 66.1015 34.8064 64.1045 38.0845L65.8125 39.125L67.5205 40.1655C69.9402 36.1936 71.125 31.6591 71.125 26.625H69.125ZM65.8125 39.125L64.1099 38.0757C62.096 41.3434 59.3962 43.8158 55.9806 45.5236L56.875 47.3125L57.7694 49.1014C61.8538 47.0592 65.1123 44.0732 67.5151 40.1743L65.8125 39.125ZM56.875 47.3125L56.3058 49.2298C61.2927 50.7103 65.0569 53.2217 67.7228 56.7136L69.3125 55.5L70.9022 54.2864C67.6514 50.0283 63.124 47.0814 57.4442 45.3952L56.875 47.3125ZM69.3125 55.5L67.7375 56.7326C70.4225 60.1635 71.8125 64.4196 71.8125 69.625H73.8125H75.8125C75.8125 63.6637 74.2025 58.5032 70.8875 54.2674L69.3125 55.5ZM73.8125 69.625H71.8125C71.8125 74.6151 70.5898 78.8658 68.2082 82.4572L69.875 83.5625L71.5418 84.6678C74.4102 80.3425 75.8125 75.3015 75.8125 69.625H73.8125ZM69.875 83.5625L68.2055 82.4613C65.8494 86.0334 62.486 88.8656 58.0318 90.9364L58.875 92.75L59.7182 94.5636C64.764 92.2177 68.7339 88.9249 71.5445 84.6637L69.875 83.5625ZM58.875 92.75L58.0389 90.9331C53.6459 92.9547 48.4012 94 42.25 94V96V98C48.8488 98 54.6874 96.8786 59.7111 94.5669L58.875 92.75ZM42.25 96V94H2.625V96V98H42.25V96ZM21.875 41.5V43.5H36.25V41.5V39.5H21.875V41.5ZM36.25 41.5V43.5C40.85 43.5 44.7428 42.4037 47.7026 39.9866L46.4375 38.4375L45.1724 36.8884C43.1322 38.5546 40.2333 39.5 36.25 39.5V41.5ZM46.4375 38.4375L47.7026 39.9866C50.7107 37.5299 52.1875 34.1677 52.1875 30.125H50.1875H48.1875C48.1875 33.0823 47.1643 35.2617 45.1724 36.8884L46.4375 38.4375ZM50.1875 30.125H52.1875C52.1875 26.1346 50.6646 22.8428 47.5957 20.4782L46.375 22.0625L45.1543 23.6468C47.1688 25.1989 48.1875 27.2821 48.1875 30.125H50.1875ZM46.375 22.0625L47.6244 20.5008C44.6534 18.1239 40.6743 17.0625 35.9375 17.0625V19.0625V21.0625C40.1174 21.0625 43.0966 22.0011 45.1256 23.6242L46.375 22.0625ZM35.9375 19.0625V17.0625H21.875V19.0625V21.0625H35.9375V19.0625ZM21.875 19.0625H19.875V41.5H21.875H23.875V19.0625H21.875ZM21.875 79.1875V81.1875H37.4375V79.1875V77.1875H21.875V79.1875ZM37.4375 79.1875V81.1875C41.0343 81.1875 44.2465 80.6839 47.0284 79.6175L46.3125 77.75L45.5966 75.8825C43.3785 76.7328 40.674 77.1875 37.4375 77.1875V79.1875ZM46.3125 77.75L47.0553 79.607C49.8273 78.4981 52.0716 76.9003 53.667 74.7565L52.0625 73.5625L50.458 72.3685C49.3867 73.8081 47.7977 75.0019 45.5697 75.893L46.3125 77.75ZM52.0625 73.5625L53.6625 74.7625C55.3119 72.5633 56.125 70.0117 56.125 67.1875H54.125H52.125C52.125 69.1966 51.5631 70.895 50.4625 72.3625L52.0625 73.5625ZM54.125 67.1875H56.125C56.125 64.4088 55.3994 61.9173 53.8641 59.819L52.25 61L50.6359 62.181C51.6006 63.4993 52.125 65.1329 52.125 67.1875H54.125ZM52.25 61L53.8828 59.8451C52.4019 57.7514 50.2752 56.2406 47.6397 55.2523L46.9375 57.125L46.2353 58.9977C48.2665 59.7594 49.6814 60.832 50.6172 62.1549L52.25 61ZM46.9375 57.125L47.6688 55.2635C45.0474 54.2337 42.0167 53.75 38.625 53.75V55.75V57.75C41.65 57.75 44.1609 58.183 46.2062 58.9865L46.9375 57.125ZM38.625 55.75V53.75H21.875V55.75V57.75H38.625V55.75ZM21.875 55.75H19.875V79.1875H21.875H23.875V55.75H21.875ZM167.375 2.25H169.375V0.25H167.375V2.25ZM162.438 77.4375L160.649 76.5431L160.644 76.5522L162.438 77.4375ZM148.375 92.625L149.372 94.3586L149.376 94.3564L148.375 92.625ZM104.5 92.625L103.499 94.3564L103.508 94.3615L104.5 92.625ZM90.375 77.4375L88.5816 78.3228L88.5861 78.3319L90.375 77.4375ZM85.5 2.25V0.25H83.5V2.25H85.5ZM104.75 2.25H106.75V0.25H104.75V2.25ZM107.188 67.8125L105.313 68.5089L105.316 68.5167L105.319 68.5245L107.188 67.8125ZM114.5 77.75L113.352 79.3875L113.359 79.3925L113.366 79.3975L114.5 77.75ZM138.375 77.75L139.509 79.3975L139.516 79.3925L139.523 79.3875L138.375 77.75ZM145.625 67.8125L143.756 67.1005L143.753 67.1083L143.75 67.1161L145.625 67.8125ZM148.125 2.25V0.25H146.125V2.25H148.125ZM167.375 2.25H165.375V53.8125H167.375H169.375V2.25H167.375ZM167.375 53.8125H165.375C165.375 62.7432 163.772 70.2972 160.649 76.5431L162.438 77.4375L164.226 78.3319C167.687 71.4111 169.375 63.2151 169.375 53.8125H167.375ZM162.438 77.4375L160.644 76.5522C157.562 82.7956 153.144 87.5573 147.374 90.8936L148.375 92.625L149.376 94.3564C155.856 90.6094 160.813 85.2461 164.231 78.3228L162.438 77.4375ZM148.375 92.625L147.378 90.8914C141.657 94.1826 134.705 95.875 126.438 95.875V97.875V99.875C135.254 99.875 142.926 98.0674 149.372 94.3586L148.375 92.625ZM126.438 97.875V95.875C118.214 95.875 111.259 94.1836 105.492 90.8885L104.5 92.625L103.508 94.3615C109.991 98.0664 117.661 99.875 126.438 99.875V97.875ZM104.5 92.625L105.501 90.8936C99.7291 87.556 95.2879 82.7913 92.1639 76.5431L90.375 77.4375L88.5861 78.3319C92.0454 85.2504 97.0209 90.6106 103.499 94.3564L104.5 92.625ZM90.375 77.4375L92.1684 76.5522C89.0838 70.304 87.5 62.7466 87.5 53.8125H85.5H83.5C83.5 63.2117 85.1662 71.4043 88.5816 78.3228L90.375 77.4375ZM85.5 53.8125H87.5V2.25H85.5H83.5V53.8125H85.5ZM85.5 2.25V4.25H104.75V2.25V0.25H85.5V2.25ZM104.75 2.25H102.75V51.4375H104.75H106.75V2.25H104.75ZM104.75 51.4375H102.75C102.75 58.1287 103.579 63.8411 105.313 68.5089L107.188 67.8125L109.062 67.1161C107.546 63.0339 106.75 57.8297 106.75 51.4375H104.75ZM107.188 67.8125L105.319 68.5245C107.099 73.199 109.757 76.8663 113.352 79.3875L114.5 77.75L115.648 76.1125C112.827 74.1337 110.609 71.176 109.056 67.1005L107.188 67.8125ZM114.5 77.75L113.366 79.3975C116.975 81.8817 121.373 83.0625 126.438 83.0625V81.0625V79.0625C122.002 79.0625 118.442 78.035 115.634 76.1025L114.5 77.75ZM126.438 81.0625V83.0625C131.502 83.0625 135.9 81.8817 139.509 79.3975L138.375 77.75L137.241 76.1025C134.433 78.035 130.873 79.0625 126.438 79.0625V81.0625ZM138.375 77.75L139.523 79.3875C143.123 76.8631 145.761 73.1898 147.5 68.5089L145.625 67.8125L143.75 67.1161C142.239 71.1852 140.044 74.1369 137.227 76.1125L138.375 77.75ZM145.625 67.8125L147.494 68.5245C149.274 63.8513 150.125 58.133 150.125 51.4375H148.125H146.125C146.125 57.8253 145.309 63.0237 143.756 67.1005L145.625 67.8125ZM148.125 51.4375H150.125V2.25H148.125H146.125V51.4375H148.125ZM148.125 2.25V4.25H167.375V2.25V0.25H148.125V2.25ZM182.625 96H180.625V98H182.625V96ZM182.625 2.25V0.25H180.625V2.25H182.625ZM240.75 8.6875L239.525 10.2688L239.532 10.2739L239.539 10.2789L240.75 8.6875ZM245.812 39.125L247.515 40.1743L247.521 40.1655L245.812 39.125ZM236.875 47.3125L235.981 45.5236L231.451 47.7885L236.306 49.2298L236.875 47.3125ZM249.312 55.5L247.723 56.7136L247.73 56.7232L247.737 56.7326L249.312 55.5ZM249.875 83.5625L248.208 82.4571L248.205 82.4613L249.875 83.5625ZM238.875 92.75L239.711 94.5669L239.718 94.5636L238.875 92.75ZM201.875 41.5H199.875V43.5H201.875V41.5ZM226.375 22.0625L225.126 23.6242L225.14 23.6356L225.154 23.6468L226.375 22.0625ZM201.875 19.0625V17.0625H199.875V19.0625H201.875ZM201.875 79.1875H199.875V81.1875H201.875V79.1875ZM226.312 77.75L227.028 79.6175L227.042 79.6123L227.055 79.607L226.312 77.75ZM232.062 73.5625L230.462 72.3625L230.458 72.3685L232.062 73.5625ZM232.25 61L230.617 62.1549L230.626 62.1681L230.636 62.181L232.25 61ZM226.938 57.125L226.206 58.9865L226.221 58.9922L226.235 58.9977L226.938 57.125ZM201.875 55.75V53.75H199.875V55.75H201.875ZM182.625 96H184.625V2.25H182.625H180.625V96H182.625ZM182.625 2.25V4.25H217.312V2.25V0.25H182.625V2.25ZM217.312 2.25V4.25C227.141 4.25 234.459 6.34495 239.525 10.2688L240.75 8.6875L241.975 7.10624C235.958 2.44672 227.651 0.25 217.312 0.25V2.25ZM240.75 8.6875L239.539 10.2789C244.571 14.1097 247.125 19.4703 247.125 26.625H249.125H251.125C251.125 18.363 248.095 11.7653 241.961 7.09609L240.75 8.6875ZM249.125 26.625H247.125C247.125 31.0076 246.101 34.8064 244.104 38.0845L245.812 39.125L247.521 40.1655C249.94 36.1936 251.125 31.6591 251.125 26.625H249.125ZM245.812 39.125L244.11 38.0757C242.096 41.3434 239.396 43.8158 235.981 45.5236L236.875 47.3125L237.769 49.1014C241.854 47.0592 245.112 44.0732 247.515 40.1743L245.812 39.125ZM236.875 47.3125L236.306 49.2298C241.293 50.7103 245.057 53.2217 247.723 56.7136L249.312 55.5L250.902 54.2864C247.651 50.0283 243.124 47.0814 237.444 45.3952L236.875 47.3125ZM249.312 55.5L247.737 56.7326C250.422 60.1635 251.812 64.4196 251.812 69.625H253.812H255.812C255.812 63.6637 254.203 58.5032 250.888 54.2674L249.312 55.5ZM253.812 69.625H251.812C251.812 74.6151 250.59 78.8658 248.208 82.4572L249.875 83.5625L251.542 84.6678C254.41 80.3425 255.812 75.3015 255.812 69.625H253.812ZM249.875 83.5625L248.205 82.4613C245.849 86.0334 242.486 88.8656 238.032 90.9364L238.875 92.75L239.718 94.5636C244.764 92.2177 248.734 88.9249 251.545 84.6637L249.875 83.5625ZM238.875 92.75L238.039 90.9331C233.646 92.9547 228.401 94 222.25 94V96V98C228.849 98 234.687 96.8786 239.711 94.5669L238.875 92.75ZM222.25 96V94H182.625V96V98H222.25V96ZM201.875 41.5V43.5H216.25V41.5V39.5H201.875V41.5ZM216.25 41.5V43.5C220.85 43.5 224.743 42.4037 227.703 39.9866L226.438 38.4375L225.172 36.8884C223.132 38.5546 220.233 39.5 216.25 39.5V41.5ZM226.438 38.4375L227.703 39.9866C230.711 37.5299 232.188 34.1677 232.188 30.125H230.188H228.188C228.188 33.0823 227.164 35.2617 225.172 36.8884L226.438 38.4375ZM230.188 30.125H232.188C232.188 26.1346 230.665 22.8428 227.596 20.4782L226.375 22.0625L225.154 23.6468C227.169 25.1989 228.188 27.2821 228.188 30.125H230.188ZM226.375 22.0625L227.624 20.5008C224.653 18.1239 220.674 17.0625 215.938 17.0625V19.0625V21.0625C220.117 21.0625 223.097 22.0011 225.126 23.6242L226.375 22.0625ZM215.938 19.0625V17.0625H201.875V19.0625V21.0625H215.938V19.0625ZM201.875 19.0625H199.875V41.5H201.875H203.875V19.0625H201.875ZM201.875 79.1875V81.1875H217.438V79.1875V77.1875H201.875V79.1875ZM217.438 79.1875V81.1875C221.034 81.1875 224.246 80.6839 227.028 79.6175L226.312 77.75L225.597 75.8825C223.379 76.7328 220.674 77.1875 217.438 77.1875V79.1875ZM226.312 77.75L227.055 79.607C229.827 78.4981 232.072 76.9003 233.667 74.7565L232.062 73.5625L230.458 72.3685C229.387 73.8081 227.798 75.0019 225.57 75.893L226.312 77.75ZM232.062 73.5625L233.663 74.7625C235.312 72.5633 236.125 70.0117 236.125 67.1875H234.125H232.125C232.125 69.1966 231.563 70.895 230.462 72.3625L232.062 73.5625ZM234.125 67.1875H236.125C236.125 64.4088 235.399 61.9173 233.864 59.819L232.25 61L230.636 62.181C231.601 63.4993 232.125 65.1329 232.125 67.1875H234.125ZM232.25 61L233.883 59.8451C232.402 57.7514 230.275 56.2406 227.64 55.2523L226.938 57.125L226.235 58.9977C228.267 59.7594 229.681 60.832 230.617 62.1549L232.25 61ZM226.938 57.125L227.669 55.2635C225.047 54.2337 222.017 53.75 218.625 53.75V55.75V57.75C221.65 57.75 224.161 58.183 226.206 58.9865L226.938 57.125ZM218.625 55.75V53.75H201.875V55.75V57.75H218.625V55.75ZM201.875 55.75H199.875V79.1875H201.875H203.875V55.75H201.875ZM326.75 96V98H328.75V96H326.75ZM265.5 96H263.5V98H265.5V96ZM265.5 2.25V0.25H263.5V2.25H265.5ZM284.75 2.25H286.75V0.25H284.75V2.25ZM284.75 79.1875H282.75V81.1875H284.75V79.1875ZM326.75 79.1875H328.75V77.1875H326.75V79.1875ZM326.75 96V94H265.5V96V98H326.75V96ZM265.5 96H267.5V2.25H265.5H263.5V96H265.5ZM265.5 2.25V4.25H284.75V2.25V0.25H265.5V2.25ZM284.75 2.25H282.75V79.1875H284.75H286.75V2.25H284.75ZM284.75 79.1875V81.1875H326.75V79.1875V77.1875H284.75V79.1875ZM326.75 79.1875H324.75V96H326.75H328.75V79.1875H326.75ZM337 96H335V98H337V96ZM337 2.25V0.25H335V2.25H337ZM356.25 2.25H358.25V0.25H356.25V2.25ZM356.25 96V98H358.25V96H356.25ZM337 96H339V2.25H337H335V96H337ZM337 2.25V4.25H356.25V2.25V0.25H337V2.25ZM356.25 2.25H354.25V96H356.25H358.25V2.25H356.25ZM356.25 96V94H337V96V98H356.25V96ZM390.75 96V98H392.75V96H390.75ZM371.5 96H369.5V98H371.5V96ZM371.5 2.25V0.25H369.5V2.25H371.5ZM390.75 2.25H392.75V0.25H390.75V2.25ZM390.75 48.375H388.75V54.8586L392.402 49.5017L390.75 48.375ZM396.125 40.75L394.511 39.5685L396.125 40.75ZM400.5 35L402.057 36.2547L402.062 36.2491L402.066 36.2435L400.5 35ZM426.5 2.25V0.25H425.534L424.934 1.00645L426.5 2.25ZM449.188 2.25L450.753 3.49442L453.332 0.25H449.188V2.25ZM414.812 45.5L413.247 44.2556L412.247 45.5133L413.26 46.7606L414.812 45.5ZM455.812 96V98H460.012L457.365 94.7394L455.812 96ZM430.875 96L429.32 97.2582L429.921 98H430.875V96ZM402.5 60.9375L404.055 59.6793L402.484 57.739L400.933 59.6946L402.5 60.9375ZM390.75 75.75L389.183 74.5071L388.75 75.0531V75.75H390.75ZM390.75 96V94H371.5V96V98H390.75V96ZM371.5 96H373.5V2.25H371.5H369.5V96H371.5ZM371.5 2.25V4.25H390.75V2.25V0.25H371.5V2.25ZM390.75 2.25H388.75V48.375H390.75H392.75V2.25H390.75ZM390.75 48.375L392.402 49.5017C394.267 46.7675 396.045 44.2443 397.739 41.9315L396.125 40.75L394.511 39.5685C392.788 41.9224 390.983 44.4825 389.098 47.2483L390.75 48.375ZM396.125 40.75L397.739 41.9315C399.437 39.612 400.875 37.7221 402.057 36.2547L400.5 35L398.943 33.7453C397.708 35.2779 396.23 37.2213 394.511 39.5685L396.125 40.75ZM400.5 35L402.066 36.2435L428.066 3.49355L426.5 2.25L424.934 1.00645L398.934 33.7565L400.5 35ZM426.5 2.25V4.25H449.188V2.25V0.25H426.5V2.25ZM449.188 2.25L447.622 1.00558L413.247 44.2556L414.812 45.5L416.378 46.7444L450.753 3.49442L449.188 2.25ZM414.812 45.5L413.26 46.7606L454.26 97.2606L455.812 96L457.365 94.7394L416.365 44.2394L414.812 45.5ZM455.812 96V94H430.875V96V98H455.812V96ZM430.875 96L432.43 94.7418L404.055 59.6793L402.5 60.9375L400.945 62.1957L429.32 97.2582L430.875 96ZM402.5 60.9375L400.933 59.6946L389.183 74.5071L390.75 75.75L392.317 76.9929L404.067 62.1804L402.5 60.9375ZM390.75 75.75H388.75V96H390.75H392.75V75.75H390.75ZM2.625 217H0.625V219H2.625V217ZM2.625 123.25V121.25H0.625V123.25H2.625ZM62.75 129L61.9107 130.815L62.75 129ZM82 195L83.6778 196.089L83.6807 196.084L82 195ZM62.75 211.25L61.9107 209.435L62.75 211.25ZM21.875 200.188H19.875V202.188H21.875V200.188ZM53.0625 196.688L53.8802 198.513L53.8868 198.51L53.0625 196.688ZM65 186.438L63.2934 185.395L63.2907 185.399L65 186.438ZM65 153.812L63.2906 154.851L63.2978 154.862L65 153.812ZM53.0625 143.625L52.2327 145.445L52.2414 145.449L52.2502 145.453L53.0625 143.625ZM21.875 140.062V138.062H19.875V140.062H21.875ZM2.625 217H4.625V123.25H2.625H0.625V217H2.625ZM2.625 123.25V125.25H33.3125V123.25V121.25H2.625V123.25ZM33.3125 123.25V125.25C44.424 125.25 53.9375 127.129 61.9107 130.815L62.75 129L63.5893 127.185C54.9791 123.204 44.8677 121.25 33.3125 121.25V123.25ZM62.75 129L61.9107 130.815C69.8936 134.506 76.0052 139.685 80.3222 146.339L82 145.25L83.6778 144.161C78.9115 136.815 72.1898 131.161 63.5893 127.185L62.75 129ZM82 145.25L80.3222 146.339C84.6237 152.968 86.8125 160.869 86.8125 170.125H88.8125H90.8125C90.8125 160.214 88.4596 151.532 83.6778 144.161L82 145.25ZM88.8125 170.125H86.8125C86.8125 179.337 84.6247 187.241 80.3193 193.916L82 195L83.6807 196.084C88.4587 188.676 90.8125 179.996 90.8125 170.125H88.8125ZM82 195L80.3222 193.911C76.0052 200.565 69.8936 205.744 61.9107 209.435L62.75 211.25L63.5893 213.065C72.1898 209.089 78.9115 203.435 83.6778 196.089L82 195ZM62.75 211.25L61.9107 209.435C53.9375 213.121 44.424 215 33.3125 215V217V219C44.8677 219 54.9791 217.046 63.5893 213.065L62.75 211.25ZM33.3125 217V215H2.625V217V219H33.3125V217ZM21.875 200.188V202.188H34V200.188V198.188H21.875V200.188ZM34 200.188V202.188C41.6974 202.188 48.3474 200.991 53.8802 198.513L53.0625 196.688L52.2448 194.862C47.361 197.05 41.3026 198.188 34 198.188V200.188ZM53.0625 196.688L53.8868 198.51C59.464 195.987 63.77 192.314 66.7093 187.476L65 186.438L63.2907 185.399C60.8133 189.477 57.161 192.638 52.2382 194.865L53.0625 196.688ZM65 186.438L66.7066 187.48C69.6851 182.607 71.125 176.791 71.125 170.125H69.125H67.125C67.125 176.209 65.8149 181.268 63.2934 185.395L65 186.438ZM69.125 170.125H71.125C71.125 163.421 69.6865 157.601 66.7022 152.763L65 153.812L63.2978 154.862C65.8135 158.941 67.125 163.996 67.125 170.125H69.125ZM65 153.812L66.7093 152.774C63.768 147.932 59.4578 144.279 53.8748 141.797L53.0625 143.625L52.2502 145.453C57.1672 147.638 60.8153 150.776 63.2907 154.851L65 153.812ZM53.0625 143.625L53.8923 141.805C48.3559 139.281 41.7014 138.062 34 138.062V140.062V142.062C41.2986 142.062 47.3524 143.219 52.2327 145.445L53.0625 143.625ZM34 140.062V138.062H21.875V140.062V142.062H34V140.062ZM21.875 140.062H19.875V200.188H21.875H23.875V140.062H21.875ZM127.25 215.25L126.492 217.101L126.499 217.104L126.507 217.107L127.25 215.25ZM111.562 205L110.148 206.414L110.155 206.421L110.162 206.427L111.562 205ZM101.25 189.5L99.3985 190.256L99.4031 190.267L101.25 189.5ZM101.25 150.75L99.4012 149.987L99.3985 149.994L101.25 150.75ZM111.562 135.25L112.97 136.671L112.97 136.671L111.562 135.25ZM127.25 125L126.507 123.143L126.503 123.145L127.25 125ZM166.688 125.062L165.929 126.913L165.94 126.918L166.688 125.062ZM182.25 135.25L180.836 136.664L180.842 136.671L182.25 135.25ZM192.562 150.688L190.716 151.455L192.562 150.688ZM192.562 189.562L190.714 188.8L190.711 188.806L192.562 189.562ZM166.688 215.25L167.435 217.105L167.446 217.101L166.688 215.25ZM158.688 199.625L157.869 197.8L157.861 197.804L158.688 199.625ZM168.125 192.875L169.591 194.235L169.596 194.23L169.601 194.225L168.125 192.875ZM174.312 182.75L172.447 182.028L172.443 182.039L174.312 182.75ZM174.312 157.5L172.441 158.204L172.444 158.213L172.447 158.222L174.312 157.5ZM168.125 147.375L166.649 148.725L166.654 148.73L166.659 148.735L168.125 147.375ZM158.688 140.625L157.861 142.446L157.874 142.452L157.887 142.458L158.688 140.625ZM135.188 140.625L135.996 142.454L136.006 142.45L135.188 140.625ZM125.75 147.375L124.284 146.014L124.284 146.015L125.75 147.375ZM119.5 157.5L117.635 156.778L117.631 156.787L117.628 156.796L119.5 157.5ZM119.5 182.75L117.628 183.454L117.631 183.463L117.635 183.472L119.5 182.75ZM125.75 192.938L124.274 194.287L124.284 194.298L124.294 194.309L125.75 192.938ZM135.188 199.688L134.361 201.509L134.374 201.515L134.387 201.52L135.188 199.688ZM147 218.875V216.875C140.105 216.875 133.777 215.707 127.993 213.393L127.25 215.25L126.507 217.107C132.807 219.627 139.645 220.875 147 220.875V218.875ZM127.25 215.25L128.008 213.399C122.239 211.035 117.23 207.759 112.963 203.573L111.562 205L110.162 206.427C114.812 210.991 120.261 214.548 126.492 217.101L127.25 215.25ZM111.562 205L112.977 203.586C108.75 199.359 105.457 194.414 103.097 188.733L101.25 189.5L99.4031 190.267C101.959 196.42 105.542 201.808 110.148 206.414L111.562 205ZM101.25 189.5L103.102 188.744C100.792 183.089 99.625 176.89 99.625 170.125H97.625H95.625C95.625 177.36 96.8748 184.078 99.3985 190.256L101.25 189.5ZM97.625 170.125H99.625C99.625 163.36 100.792 157.161 103.102 151.506L101.25 150.75L99.3985 149.994C96.8748 156.172 95.625 162.89 95.625 170.125H97.625ZM101.25 150.75L103.099 151.513C105.459 145.792 108.75 140.851 112.97 136.671L111.562 135.25L110.155 133.829C105.542 138.399 101.957 143.792 99.4012 149.987L101.25 150.75ZM111.562 135.25L112.97 136.671C117.234 132.447 122.236 129.176 127.997 126.855L127.25 125L126.503 123.145C120.264 125.658 114.808 129.219 110.155 133.829L111.562 135.25ZM127.25 125L127.993 126.857C133.777 124.543 140.105 123.375 147 123.375V121.375V119.375C139.645 119.375 132.807 120.623 126.507 123.143L127.25 125ZM147 121.375V123.375C153.891 123.375 160.193 124.563 165.929 126.913L166.688 125.062L167.446 123.212C161.182 120.646 154.359 119.375 147 119.375V121.375ZM166.688 125.062L165.94 126.918C171.702 129.238 176.66 132.488 180.836 136.664L182.25 135.25L183.664 133.836C179.09 129.262 173.673 125.72 167.435 123.207L166.688 125.062ZM182.25 135.25L180.842 136.671C185.065 140.854 188.356 145.775 190.716 151.455L192.562 150.688L194.409 149.92C191.853 143.766 188.268 138.396 183.658 133.829L182.25 135.25ZM192.562 150.688L190.716 151.455C193.063 157.105 194.25 163.321 194.25 170.125H196.25H198.25C198.25 162.846 196.978 156.103 194.409 149.92L192.562 150.688ZM196.25 170.125H194.25C194.25 176.886 193.064 183.103 190.714 188.8L192.562 189.562L194.411 190.325C196.978 184.105 198.25 177.364 198.25 170.125H196.25ZM192.562 189.562L190.711 188.806C188.393 194.481 185.125 199.399 180.905 203.579L182.312 205L183.72 206.421C188.333 201.851 191.898 196.477 194.414 190.319L192.562 189.562ZM182.312 205L180.905 203.579C176.682 207.762 171.697 211.036 165.929 213.399L166.688 215.25L167.446 217.101C173.678 214.547 179.109 210.988 183.72 206.421L182.312 205ZM166.688 215.25L165.94 213.395C160.201 215.707 153.895 216.875 147 216.875V218.875V220.875C154.355 220.875 161.174 219.627 167.435 217.105L166.688 215.25ZM147 202.062V204.062C151.473 204.062 155.653 203.197 159.514 201.446L158.688 199.625L157.861 197.804C154.555 199.303 150.944 200.062 147 200.062V202.062ZM158.688 199.625L159.506 201.45C163.372 199.717 166.74 197.31 169.591 194.235L168.125 192.875L166.659 191.515C164.177 194.19 161.253 196.283 157.869 197.8L158.688 199.625ZM168.125 192.875L169.601 194.225C172.444 191.115 174.637 187.521 176.182 183.461L174.312 182.75L172.443 182.039C171.071 185.646 169.139 188.802 166.649 191.525L168.125 192.875ZM174.312 182.75L176.178 183.472C177.775 179.346 178.562 174.891 178.562 170.125H176.562H174.562C174.562 174.443 173.85 178.404 172.447 182.028L174.312 182.75ZM176.562 170.125H178.562C178.562 165.359 177.775 160.904 176.178 156.778L174.312 157.5L172.447 158.222C173.85 161.846 174.562 165.807 174.562 170.125H176.562ZM174.312 157.5L176.184 156.796C174.64 152.692 172.444 149.091 169.591 146.015L168.125 147.375L166.659 148.735C169.139 151.409 171.069 154.558 172.441 158.204L174.312 157.5ZM168.125 147.375L169.601 146.025C166.745 142.902 163.369 140.487 159.488 138.792L158.688 140.625L157.887 142.458C161.256 143.929 164.171 146.015 166.649 148.725L168.125 147.375ZM158.688 140.625L159.514 138.804C155.653 137.053 151.473 136.188 147 136.188V138.188V140.188C150.944 140.188 154.555 140.947 157.861 142.446L158.688 140.625ZM147 138.188V136.188C142.488 136.188 138.269 137.052 134.369 138.8L135.188 140.625L136.006 142.45C139.356 140.948 143.012 140.188 147 140.188V138.188ZM135.188 140.625L134.379 138.796C130.543 140.491 127.175 142.902 124.284 146.014L125.75 147.375L127.216 148.736C129.742 146.015 132.665 143.926 135.996 142.454L135.188 140.625ZM125.75 147.375L124.284 146.015C121.435 149.086 119.221 152.681 117.635 156.778L119.5 157.5L121.365 158.222C122.779 154.569 124.732 151.414 127.216 148.735L125.75 147.375ZM119.5 157.5L117.628 156.796C116.077 160.917 115.312 165.366 115.312 170.125H117.312H119.312C119.312 165.801 120.006 161.833 121.372 158.204L119.5 157.5ZM117.312 170.125H115.312C115.312 174.884 116.077 179.333 117.628 183.454L119.5 182.75L121.372 182.046C120.006 178.417 119.312 174.449 119.312 170.125H117.312ZM119.5 182.75L117.635 183.472C119.22 187.566 121.431 191.178 124.274 194.287L125.75 192.938L127.226 191.588C124.735 188.864 122.78 185.684 121.365 182.028L119.5 182.75ZM125.75 192.938L124.294 194.309C127.18 197.373 130.54 199.776 134.361 201.509L135.188 199.688L136.014 197.866C132.668 196.349 129.736 194.252 127.206 191.566L125.75 192.938ZM135.188 199.688L134.387 201.52C138.283 203.222 142.495 204.062 147 204.062V202.062V200.062C143.005 200.062 139.342 199.32 135.988 197.855L135.188 199.688ZM293.438 217V219H295.438V217H293.438ZM271.312 217L269.662 218.13L270.258 219H271.312V217ZM227.5 153L229.15 151.87L225.5 146.538V153H227.5ZM227.5 217V219H229.5V217H227.5ZM208.25 217H206.25V219H208.25V217ZM208.25 123.25V121.25H206.25V123.25H208.25ZM230.375 123.25L232.026 122.122L231.431 121.25H230.375V123.25ZM274.188 187.375L272.536 188.503L276.188 193.847V187.375H274.188ZM274.188 123.25V121.25H272.188V123.25H274.188ZM293.438 123.25H295.438V121.25H293.438V123.25ZM293.438 217V215H271.312V217V219H293.438V217ZM271.312 217L272.963 215.87L229.15 151.87L227.5 153L225.85 154.13L269.662 218.13L271.312 217ZM227.5 153H225.5V217H227.5H229.5V153H227.5ZM227.5 217V215H208.25V217V219H227.5V217ZM208.25 217H210.25V123.25H208.25H206.25V217H208.25ZM208.25 123.25V125.25H230.375V123.25V121.25H208.25V123.25ZM230.375 123.25L228.724 124.378L272.536 188.503L274.188 187.375L275.839 186.247L232.026 122.122L230.375 123.25ZM274.188 187.375H276.188V123.25H274.188H272.188V187.375H274.188ZM274.188 123.25V125.25H293.438V123.25V121.25H274.188V123.25ZM293.438 123.25H291.438V217H293.438H295.438V123.25H293.438ZM390.625 123.25H392.625V121.25H390.625V123.25ZM385.688 198.438L383.899 197.543L383.894 197.552L385.688 198.438ZM371.625 213.625L372.622 215.359L372.626 215.356L371.625 213.625ZM327.75 213.625L326.749 215.356L326.758 215.361L327.75 213.625ZM313.625 198.438L311.832 199.323L311.836 199.332L313.625 198.438ZM308.75 123.25V121.25H306.75V123.25H308.75ZM328 123.25H330V121.25H328V123.25ZM330.438 188.812L328.563 189.509L328.566 189.517L328.569 189.524L330.438 188.812ZM337.75 198.75L336.602 200.387L336.609 200.392L336.616 200.397L337.75 198.75ZM361.625 198.75L362.759 200.397L362.766 200.392L362.773 200.387L361.625 198.75ZM368.875 188.812L367.006 188.101L367.003 188.108L367 188.116L368.875 188.812ZM371.375 123.25V121.25H369.375V123.25H371.375ZM390.625 123.25H388.625V174.812H390.625H392.625V123.25H390.625ZM390.625 174.812H388.625C388.625 183.743 387.022 191.297 383.899 197.543L385.688 198.438L387.476 199.332C390.937 192.411 392.625 184.215 392.625 174.812H390.625ZM385.688 198.438L383.894 197.552C380.812 203.796 376.394 208.557 370.624 211.894L371.625 213.625L372.626 215.356C379.106 211.609 384.063 206.246 387.481 199.323L385.688 198.438ZM371.625 213.625L370.628 211.891C364.907 215.183 357.955 216.875 349.688 216.875V218.875V220.875C358.504 220.875 366.176 219.067 372.622 215.359L371.625 213.625ZM349.688 218.875V216.875C341.464 216.875 334.509 215.184 328.742 211.889L327.75 213.625L326.758 215.361C333.241 219.066 340.911 220.875 349.688 220.875V218.875ZM327.75 213.625L328.751 211.894C322.979 208.556 318.538 203.791 315.414 197.543L313.625 198.438L311.836 199.332C315.295 206.25 320.271 211.611 326.749 215.356L327.75 213.625ZM313.625 198.438L315.418 197.552C312.334 191.304 310.75 183.747 310.75 174.812H308.75H306.75C306.75 184.212 308.416 192.404 311.832 199.323L313.625 198.438ZM308.75 174.812H310.75V123.25H308.75H306.75V174.812H308.75ZM308.75 123.25V125.25H328V123.25V121.25H308.75V123.25ZM328 123.25H326V172.438H328H330V123.25H328ZM328 172.438H326C326 179.129 326.829 184.841 328.563 189.509L330.438 188.812L332.312 188.116C330.796 184.034 330 178.83 330 172.438H328ZM330.438 188.812L328.569 189.524C330.349 194.199 333.007 197.866 336.602 200.387L337.75 198.75L338.898 197.113C336.077 195.134 333.859 192.176 332.306 188.101L330.438 188.812ZM337.75 198.75L336.616 200.397C340.225 202.882 344.623 204.062 349.688 204.062V202.062V200.062C345.252 200.062 341.691 199.035 338.884 197.103L337.75 198.75ZM349.688 202.062V204.062C354.752 204.062 359.15 202.882 362.759 200.397L361.625 198.75L360.491 197.103C357.684 199.035 354.123 200.062 349.688 200.062V202.062ZM361.625 198.75L362.773 200.387C366.373 197.863 369.011 194.19 370.75 189.509L368.875 188.812L367 188.116C365.489 192.185 363.294 195.137 360.477 197.113L361.625 198.75ZM368.875 188.812L370.744 189.524C372.524 184.851 373.375 179.133 373.375 172.438H371.375H369.375C369.375 178.825 368.559 184.024 367.006 188.101L368.875 188.812ZM371.375 172.438H373.375V123.25H371.375H369.375V172.438H371.375ZM371.375 123.25V125.25H390.625V123.25V121.25H371.375V123.25ZM446.375 217V219H448.375V217H446.375ZM427.125 217H425.125V219H427.125V217ZM427.125 140.062H429.125V138.062H427.125V140.062ZM399.5 140.062H397.5V142.062H399.5V140.062ZM399.5 123.25V121.25H397.5V123.25H399.5ZM474.062 123.25H476.062V121.25H474.062V123.25ZM474.062 140.062V142.062H476.062V140.062H474.062ZM446.375 140.062V138.062H444.375V140.062H446.375ZM446.375 217V215H427.125V217V219H446.375V217ZM427.125 217H429.125V140.062H427.125H425.125V217H427.125ZM427.125 140.062V138.062H399.5V140.062V142.062H427.125V140.062ZM399.5 140.062H401.5V123.25H399.5H397.5V140.062H399.5ZM399.5 123.25V125.25H474.062V123.25V121.25H399.5V123.25ZM474.062 123.25H472.062V140.062H474.062H476.062V123.25H474.062ZM474.062 140.062V138.062H446.375V140.062V142.062H474.062V140.062ZM446.375 140.062H444.375V217H446.375H448.375V140.062H446.375ZM478.625 206.875L476.926 205.82L475.98 207.343L477.392 208.449L478.625 206.875ZM487.75 192.188L489.01 190.635L487.249 189.205L486.051 191.132L487.75 192.188ZM496.062 197.938L495.082 199.681L495.098 199.69L495.114 199.698L496.062 197.938ZM504.062 201.188L503.541 203.118L503.556 203.122L503.57 203.126L504.062 201.188ZM526.062 196.875L524.486 195.644L524.476 195.657L524.467 195.669L526.062 196.875ZM525.562 184.312L527.027 182.95L525.562 184.312ZM519 179.625L518.083 181.403L518.1 181.411L518.117 181.419L519 179.625ZM510.312 175.688L509.552 177.537L509.561 177.541L509.57 177.544L510.312 175.688ZM501.125 171.625L500.24 173.419L500.255 173.426L500.27 173.433L501.125 171.625ZM492.688 166.312L491.435 167.872L491.441 167.877L491.447 167.882L492.688 166.312ZM486.5 158.875L484.726 159.799L484.734 159.814L484.742 159.829L486.5 158.875ZM488.312 133.875L486.672 132.73L486.664 132.742L488.312 133.875ZM529.938 123.125L529.456 125.066L529.46 125.067L529.938 123.125ZM544.125 128.438L545.924 129.312L546.785 127.539L545.026 126.652L544.125 128.438ZM536.562 144L535.526 145.711L537.403 146.847L538.361 144.874L536.562 144ZM510.25 139.438L509.494 137.586L509.487 137.589L509.481 137.591L510.25 139.438ZM505.562 142.938L507.146 144.159L507.154 144.148L507.162 144.137L505.562 142.938ZM506.312 154.312L504.847 155.673L504.855 155.682L504.863 155.691L506.312 154.312ZM512.625 158.875L511.708 160.652L511.719 160.658L512.625 158.875ZM521.062 162.875L520.25 164.703L520.259 164.707L520.269 164.711L521.062 162.875ZM530.375 167.25L529.471 169.034L529.481 169.039L530.375 167.25ZM539 172.875L537.715 174.407L537.728 174.419L537.742 174.429L539 172.875ZM545.312 180.562L543.544 181.496L543.552 181.511L543.56 181.525L545.312 180.562ZM543.375 205.75L545.008 206.905L545.013 206.897L543.375 205.75ZM531.188 215.438L531.993 217.268L532.005 217.263L531.188 215.438ZM478.625 206.875L480.324 207.93L489.449 193.243L487.75 192.188L486.051 191.132L476.926 205.82L478.625 206.875ZM487.75 192.188L486.49 193.74C489.435 196.131 492.299 198.115 495.082 199.681L496.062 197.938L497.043 196.194C494.493 194.76 491.815 192.911 489.01 190.635L487.75 192.188ZM496.062 197.938L495.114 199.698C497.941 201.22 500.75 202.365 503.541 203.118L504.062 201.188L504.584 199.257C502.125 198.593 499.601 197.571 497.011 196.177L496.062 197.938ZM504.062 201.188L503.57 203.126C506.359 203.834 509.212 204.188 512.125 204.188V202.188V200.188C509.538 200.188 507.016 199.874 504.555 199.249L504.062 201.188ZM512.125 202.188V204.188C515.556 204.188 518.624 203.704 521.283 202.678L520.562 200.812L519.842 198.947C517.751 199.754 515.194 200.188 512.125 200.188V202.188ZM520.562 200.812L521.283 202.678C523.939 201.653 526.102 200.139 527.658 198.081L526.062 196.875L524.467 195.669C523.439 197.028 521.936 198.139 519.842 198.947L520.562 200.812ZM526.062 196.875L527.639 198.106C529.258 196.031 530.062 193.615 530.062 190.938H528.062H526.062C526.062 192.76 525.534 194.302 524.486 195.644L526.062 196.875ZM528.062 190.938H530.062C530.062 187.847 529.064 185.14 527.027 182.95L525.562 184.312L524.098 185.675C525.394 187.068 526.062 188.778 526.062 190.938H528.062ZM525.562 184.312L527.027 182.95C525.161 180.944 522.761 179.247 519.883 177.831L519 179.625L518.117 181.419C520.656 182.669 522.631 184.097 524.098 185.675L525.562 184.312ZM519 179.625L519.917 177.847C517.187 176.44 514.232 175.101 511.055 173.831L510.312 175.688L509.57 177.544C512.643 178.774 515.48 180.06 518.083 181.403L519 179.625ZM510.312 175.688L511.073 173.838C508.064 172.601 505.033 171.261 501.98 169.817L501.125 171.625L500.27 173.433C503.383 174.906 506.477 176.274 509.552 177.537L510.312 175.688ZM501.125 171.625L502.01 169.831C499.09 168.392 496.397 166.695 493.928 164.743L492.688 166.312L491.447 167.882C494.144 170.013 497.076 171.858 500.24 173.419L501.125 171.625ZM492.688 166.312L493.94 164.753C491.609 162.881 489.717 160.609 488.258 157.921L486.5 158.875L484.742 159.829C486.45 162.975 488.683 165.661 491.435 167.872L492.688 166.312ZM486.5 158.875L488.274 157.951C486.915 155.343 486.188 152.094 486.188 148.125H484.188H482.188C482.188 152.573 483.002 156.491 484.726 159.799L486.5 158.875ZM484.188 148.125H486.188C486.188 142.974 487.469 138.631 489.961 135.008L488.312 133.875L486.664 132.742C483.656 137.119 482.188 142.276 482.188 148.125H484.188ZM488.312 133.875L489.953 135.02C492.519 131.342 496.036 128.482 500.568 126.45L499.75 124.625L498.932 122.8C493.797 125.102 489.689 128.408 486.672 132.73L488.312 133.875ZM499.75 124.625L500.568 126.45C505.104 124.417 510.338 123.375 516.312 123.375V121.375V119.375C509.87 119.375 504.063 120.5 498.932 122.8L499.75 124.625ZM516.312 121.375V123.375C520.509 123.375 524.889 123.934 529.456 125.066L529.938 123.125L530.419 121.184C525.57 119.982 520.866 119.375 516.312 119.375V121.375ZM529.938 123.125L529.46 125.067C534.053 126.195 538.64 127.911 543.224 130.223L544.125 128.438L545.026 126.652C540.193 124.214 535.322 122.388 530.415 121.183L529.938 123.125ZM544.125 128.438L542.326 127.563L534.764 143.126L536.562 144L538.361 144.874L545.924 129.312L544.125 128.438ZM536.562 144L537.599 142.289C534.494 140.409 531.153 138.925 527.583 137.837L527 139.75L526.417 141.663C529.68 142.658 532.715 144.008 535.526 145.711L536.562 144ZM527 139.75L527.583 137.837C524.012 136.748 520.606 136.188 517.375 136.188V138.188V140.188C520.144 140.188 523.154 140.668 526.417 141.663L527 139.75ZM517.375 138.188V136.188C514.465 136.188 511.824 136.635 509.494 137.586L510.25 139.438L511.006 141.289C512.76 140.573 514.868 140.188 517.375 140.188V138.188ZM510.25 139.438L509.481 137.591C507.203 138.54 505.333 139.91 503.962 141.738L505.562 142.938L507.162 144.137C508.042 142.965 509.297 142.001 511.019 141.284L510.25 139.438ZM505.562 142.938L503.979 141.716C502.56 143.555 501.875 145.723 501.875 148.125H503.875H505.875C505.875 146.527 506.315 145.237 507.146 144.159L505.562 142.938ZM503.875 148.125H501.875C501.875 151.008 502.881 153.556 504.847 155.673L506.312 154.312L507.778 152.952C506.494 151.569 505.875 149.992 505.875 148.125H503.875ZM506.312 154.312L504.863 155.691C506.673 157.594 508.971 159.24 511.708 160.652L512.625 158.875L513.542 157.098C511.113 155.844 509.202 154.448 507.762 152.934L506.312 154.312ZM512.625 158.875L511.719 160.658C514.378 162.009 517.222 163.357 520.25 164.703L521.062 162.875L521.875 161.047C518.903 159.726 516.122 158.408 513.531 157.092L512.625 158.875ZM521.062 162.875L520.269 164.711C523.313 166.027 526.381 167.468 529.471 169.034L530.375 167.25L531.279 165.466C528.119 163.865 524.978 162.389 521.856 161.039L521.062 162.875ZM530.375 167.25L529.481 169.039C532.514 170.556 535.257 172.346 537.715 174.407L539 172.875L540.285 171.343C537.576 169.071 534.569 167.111 531.269 165.461L530.375 167.25ZM539 172.875L537.742 174.429C540.155 176.383 542.086 178.734 543.544 181.496L545.312 180.562L547.081 179.629C545.372 176.391 543.095 173.617 540.258 171.321L539 172.875ZM545.312 180.562L543.56 181.525C544.989 184.127 545.75 187.342 545.75 191.25H547.75H549.75C549.75 186.825 548.886 182.915 547.065 179.6L545.312 180.562ZM547.75 191.25H545.75C545.75 196.375 544.398 200.8 541.737 204.603L543.375 205.75L545.013 206.897C548.185 202.366 549.75 197.125 549.75 191.25H547.75ZM543.375 205.75L541.742 204.595C539.058 208.391 535.295 211.406 530.37 213.612L531.188 215.438L532.005 217.263C537.497 214.802 541.859 211.359 545.008 206.905L543.375 205.75ZM531.188 215.438L530.382 213.607C525.476 215.765 519.698 216.875 513 216.875V218.875V220.875C520.136 220.875 526.482 219.693 531.993 217.268L531.188 215.438ZM513 218.875V216.875C506.886 216.875 501.049 215.89 495.477 213.926L494.812 215.812L494.148 217.699C500.16 219.818 506.447 220.875 513 220.875V218.875ZM494.812 215.812L495.477 213.926C489.898 211.959 484.693 209.088 479.858 205.301L478.625 206.875L477.392 208.449C482.557 212.496 488.144 215.582 494.148 217.699L494.812 215.812Z" fill="#E53847" mask="url(#path-1-outside-1_145_183)"/>
</svg>
