<svg width="1120" height="744" viewBox="0 0 1120 744" fill="none" xmlns="http://www.w3.org/2000/svg">
<path opacity="0.03" d="M-33.6172 626.589C-63.1648 602.483 -68.4831 574.478 -49.5721 542.573C-30.426 510.543 11.2363 477.345 75.415 442.98C111.853 423.469 143.391 413.144 170.029 412.003C196.667 410.863 218.354 417.12 235.091 430.774C249.142 442.237 256.221 455.478 256.33 470.497C256.674 485.39 249.658 500.315 235.283 515.272C282.878 495.65 317.834 494.942 340.15 513.148C351.721 522.588 356.73 533.029 355.179 544.47C353.656 555.616 346.907 566.629 334.932 577.508C314.651 595.906 290.876 612.406 263.606 627.008L257.407 621.951C263.228 619.393 268.606 616.792 273.543 614.149C297.052 601.561 311.185 589.107 315.942 576.787C321.633 561.734 317.246 548.307 302.782 536.507C294.517 529.765 284.243 525.354 271.96 523.275C259.706 520.902 249.518 520.214 241.397 521.213L228.862 522.899C222.785 528.107 215.045 533.228 205.642 538.264L199.443 533.206C222.011 521.122 236.899 505.472 244.107 486.256C251.314 467.04 245.723 449.931 227.333 434.928C212.043 422.454 192.037 417.251 167.316 419.32C142.623 421.094 115.01 430.016 84.4775 446.085C148.413 515.717 191.436 564.159 213.546 591.409C231.16 612.132 236.866 632.671 230.663 653.024C224.667 673.546 210.972 689.534 189.58 700.989L183.691 696.185C192.239 690.77 198.009 686.423 201.001 683.146C204.435 679.912 205.82 675.959 205.157 671.288C204.7 666.786 202.698 662.135 199.149 657.334C191.61 647.689 184 638.78 176.319 630.608L38.7748 472.651C-5.90529 501.322 -33.9716 528.775 -45.4242 555.011C-56.8483 580.952 -50.6793 603.615 -26.9172 623.001C-16.1726 631.767 -2.84944 636.918 13.0522 638.455C23.8885 639.354 35.4689 638.318 47.7936 635.349C59.9117 632.211 69.2335 629.174 75.759 626.238C82.3129 623.008 85.6184 621.098 85.6753 620.509L92.1841 625.819C64.4438 640.673 38.0882 646.968 13.1172 644.703C-4.81493 643.415 -20.393 637.377 -33.6172 626.589ZM307.592 419.176C301.949 422.197 298.965 427.704 298.638 435.697L289.63 435.495C288.382 432.254 289.443 428.196 292.813 423.32C296.182 418.445 301.275 414.182 308.093 410.532C329.486 399.077 348.654 400.261 365.597 414.084C372.829 419.984 383.627 431.652 397.992 449.089C412.357 466.527 422.432 477.605 428.218 482.325C437.103 489.574 446.365 490.618 456.003 485.457C462.821 481.806 465.89 475.416 465.212 466.286C464.77 457.03 460.7 446.086 453.004 433.454L396.219 367.113C413.615 357.798 425.69 350.495 432.443 345.204L436.097 341.991L529.629 450.222C536.061 445.94 539.046 440.433 538.582 433.701L547.59 433.903C547.976 443.748 542.88 451.503 532.301 457.167C521.722 462.832 511.221 465.383 500.798 464.821C490.375 464.26 480.914 460.67 472.414 454.054C479.897 473.5 474 488.385 454.723 498.707C440.852 506.134 426.629 509.143 412.053 507.734C397.269 506.156 383.782 500.395 371.591 490.449C365.186 485.223 355.125 473.998 341.408 456.772C327.485 439.377 316.213 426.845 307.592 419.176ZM643.035 397.874C628.225 405.804 613.072 408.055 597.576 404.625L586.551 435.657L579.851 439.245L416.335 252.476C409.902 256.758 406.918 262.265 407.382 268.996L398.373 268.794C397.987 258.949 403.083 251.195 413.662 245.53C424.476 239.74 435.198 237.21 445.828 237.94C456.457 238.67 466.111 242.575 474.79 249.655C476.443 251.004 478.894 253.321 482.143 256.607C496.771 273.624 514.296 294.116 534.717 318.082C530.54 301.333 536.327 288.741 552.078 280.307C567.829 271.873 583.965 268.678 600.487 270.72C616.802 272.594 631.881 279.179 645.725 290.473C670.107 310.364 681.801 330.07 680.806 349.589C679.604 368.939 667.014 385.034 643.035 397.874ZM632.198 392.368C645.128 385.445 647.738 373.438 640.027 356.347C632.345 338.961 616.726 320.659 593.17 301.442C583.666 293.688 575.981 289.007 570.118 287.4C564.489 285.667 558.737 286.375 552.859 289.521C546.982 292.668 543.969 298.47 543.821 306.926C543.907 315.256 545.33 322.452 548.088 328.514C550.639 334.407 552.328 337.691 553.154 338.365L552.449 338.743C573.64 363.973 589.747 382.99 600.77 395.795C611.378 399.049 621.855 397.907 632.198 392.368ZM791.981 299.273C792.437 303.775 791.408 308.654 788.894 313.909C786.615 319.039 781.244 323.869 772.781 328.401C764.318 332.932 754.771 334.833 744.142 334.103C733.512 333.373 723.858 329.468 715.18 322.388C713.527 321.039 711.076 318.722 707.827 315.436L619.169 212.134C602.945 193.179 594.137 178.211 592.746 167.229C591.591 156.121 597.125 147.294 609.35 140.748C617.813 136.217 627.537 134.779 638.523 136.435C649.744 137.965 661.037 143.366 672.402 152.638C683.766 161.909 694.932 177.848 705.899 200.456C717.102 222.937 727.558 238.139 737.27 246.062L730.923 249.46C719.971 240.526 709.308 225.155 698.932 203.349C688.35 181.373 676.963 165.412 664.772 155.467C657.333 149.398 648.93 145.242 639.561 142.999C630.427 140.631 623.039 140.957 617.397 143.978C622.534 148.487 642.596 170.412 677.581 209.755C712.595 248.803 744.613 285.408 773.635 319.567C780.217 316.043 783.333 310.326 782.983 302.416C782.633 294.506 780.637 287.478 776.996 281.33L771.577 271.668L780.404 270.292C782.591 273.029 784.946 277.492 787.469 283.68C790.02 289.573 791.524 294.771 791.981 299.273ZM893.62 248.62C894.006 258.465 888.909 266.219 878.33 271.884C867.751 277.548 857.029 280.078 846.165 279.474C835.535 278.744 826.398 275.26 818.753 269.023C816.066 266.832 806.686 256.638 790.611 238.441L746.769 186.948L731.958 194.878L727.085 189.949L742.248 181.83C759.644 172.515 771.836 165.149 778.825 159.732L782.832 156.33L875.658 264.938C882.09 260.656 885.075 255.149 884.611 248.418L893.62 248.62ZM720.635 149.427C711.359 148.53 703.622 145.553 697.423 140.496C691.224 135.439 688.424 129.819 689.022 123.635C689.413 117.283 693.134 112.219 700.187 108.443C707.24 104.666 715.507 103.311 724.99 104.376C734.501 105.147 742.356 108.061 748.555 113.118C754.753 118.175 757.436 123.858 756.604 130.167C756.006 136.351 752.181 141.331 745.128 145.107C738.076 148.883 729.911 150.323 720.635 149.427ZM913.114 168.658L960.238 224.256L918.275 246.726L763.48 66.5948C757.047 70.8769 754.063 76.3839 754.526 83.1157L745.518 82.9137C745.132 73.0688 750.228 65.3141 760.807 59.6495C771.621 53.8591 782.343 51.329 792.973 52.0592C803.602 52.7894 813.256 56.6945 821.934 63.7745C823.587 65.1231 826.038 67.4404 829.288 70.7264C850.122 95.0302 872.553 121.272 896.58 149.45C889.853 136.02 888.501 123.482 892.525 111.834C896.548 100.186 904.79 91.0266 917.25 84.355C929.709 77.6834 940.577 74.7959 949.853 75.6925C959.364 76.4632 967.426 79.5457 974.038 84.94C980.443 90.1657 983.479 95.6601 983.145 101.423C982.811 107.186 979 112.019 971.712 115.921C964.66 119.698 957.379 121.223 949.87 120.497C942.389 119.477 935.136 116.101 928.111 110.37C920.879 104.47 918.224 98.4919 920.147 92.4365C899.851 106.375 896.538 127.973 910.206 157.231C913.084 155.132 915.698 153.453 918.049 152.194C930.509 145.523 942.434 142.069 953.826 141.832C965.453 141.47 975.527 143.335 984.048 147.428C992.363 151.352 1000.19 155.676 1007.54 160.398C1014.68 164.951 1021.48 168.432 1027.93 170.839C1034.38 173.246 1040.32 173.002 1045.72 170.107C1051.13 167.212 1053.4 163.344 1052.53 158.505L1061.54 158.707C1062.78 161.948 1061.72 166.006 1058.35 170.882C1054.99 175.757 1048.83 180.587 1039.9 185.37C1031.2 190.027 1021.48 192.58 1010.74 193.028C1000.23 193.349 990.79 191.843 982.419 188.507C973.84 185.003 965.836 181.332 958.405 177.493C939.061 167.748 923.964 164.802 913.114 168.658Z" fill="#9C0746"/>
</svg>
