<svg width="358" height="157" viewBox="0 0 358 157" fill="none" xmlns="http://www.w3.org/2000/svg">
<mask id="path-1-outside-1_1_6" maskUnits="userSpaceOnUse" x="0" y="0" width="358" height="157" fill="black">
<rect fill="white" width="358" height="157"/>
<path d="M8.76562 67V8.40625H30.4453C36.7474 8.40625 41.6302 9.7474 45.0938 12.4297C48.5833 15.0859 50.3281 18.8229 50.3281 23.6406C50.3281 26.5833 49.638 29.1875 48.2578 31.4531C46.8776 33.6927 45.0156 35.3984 42.6719 36.5703C46.0052 37.5599 48.5964 39.2656 50.4453 41.6875C52.3203 44.0833 53.2578 47.026 53.2578 50.5156C53.2578 53.849 52.4375 56.7526 50.7969 59.2266C49.1823 61.6745 46.8906 63.5885 43.9219 64.9688C40.9792 66.3229 37.5156 67 33.5312 67H8.76562ZM20.7969 32.9375H29.7812C32.4635 32.9375 34.5859 32.2995 36.1484 31.0234C37.7109 29.7474 38.4922 28.0156 38.4922 25.8281C38.4922 23.6927 37.6979 22.013 36.1094 20.7891C34.5469 19.5391 32.3724 18.9141 29.5859 18.9141H20.7969V32.9375ZM20.7969 56.4922H30.5234C32.6589 56.4922 34.5078 56.1927 36.0703 55.5938C37.6328 54.9688 38.8307 54.0964 39.6641 52.9766C40.5234 51.8307 40.9531 50.5026 40.9531 48.9922C40.9531 47.4818 40.5625 46.1927 39.7812 45.125C39.026 44.0573 37.9193 43.25 36.4609 42.7031C35.0026 42.1302 33.2708 41.8438 31.2656 41.8438H20.7969V56.4922ZM111.734 8.40625V40.6328C111.734 46.362 110.706 51.2839 108.648 55.3984C106.617 59.513 103.688 62.6771 99.8594 64.8906C96.0573 67.0781 91.487 68.1719 86.1484 68.1719C80.8359 68.1719 76.2656 67.0781 72.4375 64.8906C68.6094 62.6771 65.6667 59.513 63.6094 55.3984C61.5781 51.2839 60.5625 46.362 60.5625 40.6328V8.40625H72.5938V39.1484C72.5938 43.237 73.1016 46.6484 74.1172 49.3828C75.1589 52.1172 76.6823 54.1875 78.6875 55.5938C80.6927 56.974 83.1797 57.6641 86.1484 57.6641C89.1172 57.6641 91.6042 56.974 93.6094 55.5938C95.6146 54.1875 97.125 52.1172 98.1406 49.3828C99.1823 46.6484 99.7031 43.237 99.7031 39.1484V8.40625H111.734ZM121.266 67V8.40625H142.945C149.247 8.40625 154.13 9.7474 157.594 12.4297C161.083 15.0859 162.828 18.8229 162.828 23.6406C162.828 26.5833 162.138 29.1875 160.758 31.4531C159.378 33.6927 157.516 35.3984 155.172 36.5703C158.505 37.5599 161.096 39.2656 162.945 41.6875C164.82 44.0833 165.758 47.026 165.758 50.5156C165.758 53.849 164.938 56.7526 163.297 59.2266C161.682 61.6745 159.391 63.5885 156.422 64.9688C153.479 66.3229 150.016 67 146.031 67H121.266ZM133.297 32.9375H142.281C144.964 32.9375 147.086 32.2995 148.648 31.0234C150.211 29.7474 150.992 28.0156 150.992 25.8281C150.992 23.6927 150.198 22.013 148.609 20.7891C147.047 19.5391 144.872 18.9141 142.086 18.9141H133.297V32.9375ZM133.297 56.4922H143.023C145.159 56.4922 147.008 56.1927 148.57 55.5938C150.133 54.9688 151.331 54.0964 152.164 52.9766C153.023 51.8307 153.453 50.5026 153.453 48.9922C153.453 47.4818 153.062 46.1927 152.281 45.125C151.526 44.0573 150.419 43.25 148.961 42.7031C147.503 42.1302 145.771 41.8438 143.766 41.8438H133.297V56.4922ZM211.344 67H173.062V8.40625H185.094V56.4922H211.344V67ZM217.75 67V8.40625H229.781V67H217.75ZM251.344 67H239.312V8.40625H251.344V37.2344C252.516 35.5156 253.635 33.9271 254.703 32.4688C255.771 31.0104 256.682 29.8125 257.438 28.875L273.688 8.40625H287.867L266.383 35.4375L292.008 67H276.422L258.688 45.0859L251.344 54.3438V67ZM8.76562 147V88.4062H27.9453C35.0286 88.4062 41.1615 89.6042 46.3438 92C51.526 94.3958 55.5365 97.7812 58.375 102.156C61.2135 106.531 62.6328 111.714 62.6328 117.703C62.6328 123.667 61.2135 128.849 58.375 133.25C55.5365 137.625 51.526 141.01 46.3438 143.406C41.1615 145.802 35.0286 147 27.9453 147H8.76562ZM20.7969 136.492H28.375C33.0625 136.492 37.0339 135.763 40.2891 134.305C43.5703 132.82 46.0573 130.685 47.75 127.898C49.4688 125.086 50.3281 121.688 50.3281 117.703C50.3281 113.693 49.4688 110.294 47.75 107.508C46.0573 104.721 43.5703 102.599 40.2891 101.141C37.0339 99.6562 33.0625 98.9141 28.375 98.9141H20.7969V136.492ZM99 148.172C94.5469 148.172 90.4323 147.417 86.6562 145.906C82.9062 144.37 79.638 142.234 76.8516 139.5C74.0911 136.74 71.9427 133.51 70.4062 129.812C68.8958 126.115 68.1406 122.078 68.1406 117.703C68.1406 113.328 68.8958 109.292 70.4062 105.594C71.9427 101.87 74.0911 98.6406 76.8516 95.9062C79.638 93.1458 82.9062 91.0104 86.6562 89.5C90.4323 87.9896 94.5469 87.2344 99 87.2344C103.453 87.2344 107.555 88.0026 111.305 89.5391C115.055 91.0495 118.297 93.1719 121.031 95.9062C123.792 98.6406 125.94 101.857 127.477 105.555C129.013 109.253 129.781 113.302 129.781 117.703C129.781 122.078 129.013 126.128 127.477 129.852C125.966 133.549 123.831 136.766 121.07 139.5C118.31 142.234 115.055 144.37 111.305 145.906C107.555 147.417 103.453 148.172 99 148.172ZM99 137.664C101.63 137.664 104.065 137.156 106.305 136.141C108.57 135.125 110.536 133.719 112.203 131.922C113.87 130.099 115.159 127.99 116.07 125.594C117.008 123.172 117.477 120.542 117.477 117.703C117.477 114.865 117.008 112.234 116.07 109.812C115.159 107.391 113.87 105.281 112.203 103.484C110.536 101.661 108.57 100.255 106.305 99.2656C104.065 98.25 101.63 97.7422 99 97.7422C96.3438 97.7422 93.8828 98.25 91.6172 99.2656C89.3776 100.255 87.4115 101.661 85.7188 103.484C84.0521 105.281 82.75 107.391 81.8125 109.812C80.901 112.234 80.4453 114.865 80.4453 117.703C80.4453 120.542 80.901 123.172 81.8125 125.594C82.75 128.016 84.0521 130.138 85.7188 131.961C87.4115 133.758 89.3776 135.164 91.6172 136.18C93.8828 137.169 96.3438 137.664 99 137.664ZM190.523 147H176.695L149.312 107V147H137.281V88.4062H151.109L178.492 128.484V88.4062H190.523V147ZM251.266 88.4062V120.633C251.266 126.362 250.237 131.284 248.18 135.398C246.148 139.513 243.219 142.677 239.391 144.891C235.589 147.078 231.018 148.172 225.68 148.172C220.367 148.172 215.797 147.078 211.969 144.891C208.141 142.677 205.198 139.513 203.141 135.398C201.109 131.284 200.094 126.362 200.094 120.633V88.4062H212.125V119.148C212.125 123.237 212.633 126.648 213.648 129.383C214.69 132.117 216.214 134.188 218.219 135.594C220.224 136.974 222.711 137.664 225.68 137.664C228.648 137.664 231.135 136.974 233.141 135.594C235.146 134.188 236.656 132.117 237.672 129.383C238.714 126.648 239.234 123.237 239.234 119.148V88.4062H251.266ZM286.109 147H274.078V98.9141H256.812V88.4062H303.414V98.9141H286.109V147ZM306.266 140.672L311.969 131.492C313.766 132.951 315.497 134.148 317.164 135.086C318.857 135.997 320.523 136.674 322.164 137.117C323.805 137.534 325.484 137.742 327.203 137.742C329.234 137.742 330.992 137.456 332.477 136.883C333.961 136.31 335.107 135.49 335.914 134.422C336.747 133.354 337.164 132.117 337.164 130.711C337.164 129.07 336.643 127.69 335.602 126.57C334.56 125.451 333.193 124.474 331.5 123.641C329.833 122.781 328.023 121.961 326.07 121.18C324.169 120.398 322.255 119.552 320.328 118.641C318.427 117.703 316.669 116.596 315.055 115.32C313.466 114.044 312.177 112.495 311.188 110.672C310.224 108.823 309.742 106.583 309.742 103.953C309.742 100.516 310.602 97.5469 312.32 95.0469C314.065 92.5469 316.448 90.6198 319.469 89.2656C322.49 87.9115 325.94 87.2344 329.82 87.2344C332.555 87.2344 335.393 87.599 338.336 88.3281C341.305 89.0573 344.26 90.1641 347.203 91.6484L342.477 101.375C340.628 100.255 338.635 99.3698 336.5 98.7188C334.365 98.0677 332.359 97.7422 330.484 97.7422C328.792 97.7422 327.307 98.0026 326.031 98.5234C324.781 99.0443 323.805 99.7734 323.102 100.711C322.398 101.622 322.047 102.703 322.047 103.953C322.047 105.438 322.555 106.727 323.57 107.82C324.586 108.888 325.901 109.839 327.516 110.672C329.156 111.505 330.914 112.339 332.789 113.172C334.716 114.005 336.656 114.917 338.609 115.906C340.589 116.896 342.385 118.068 344 119.422C345.641 120.75 346.956 122.352 347.945 124.227C348.961 126.076 349.469 128.302 349.469 130.906C349.469 134.344 348.557 137.365 346.734 139.969C344.911 142.547 342.372 144.565 339.117 146.023C335.862 147.456 332.073 148.172 327.75 148.172C323.792 148.172 320.003 147.534 316.383 146.258C312.763 144.982 309.391 143.12 306.266 140.672Z"/>
</mask>
<path d="M8.76562 67V8.40625H30.4453C36.7474 8.40625 41.6302 9.7474 45.0938 12.4297C48.5833 15.0859 50.3281 18.8229 50.3281 23.6406C50.3281 26.5833 49.638 29.1875 48.2578 31.4531C46.8776 33.6927 45.0156 35.3984 42.6719 36.5703C46.0052 37.5599 48.5964 39.2656 50.4453 41.6875C52.3203 44.0833 53.2578 47.026 53.2578 50.5156C53.2578 53.849 52.4375 56.7526 50.7969 59.2266C49.1823 61.6745 46.8906 63.5885 43.9219 64.9688C40.9792 66.3229 37.5156 67 33.5312 67H8.76562ZM20.7969 32.9375H29.7812C32.4635 32.9375 34.5859 32.2995 36.1484 31.0234C37.7109 29.7474 38.4922 28.0156 38.4922 25.8281C38.4922 23.6927 37.6979 22.013 36.1094 20.7891C34.5469 19.5391 32.3724 18.9141 29.5859 18.9141H20.7969V32.9375ZM20.7969 56.4922H30.5234C32.6589 56.4922 34.5078 56.1927 36.0703 55.5938C37.6328 54.9688 38.8307 54.0964 39.6641 52.9766C40.5234 51.8307 40.9531 50.5026 40.9531 48.9922C40.9531 47.4818 40.5625 46.1927 39.7812 45.125C39.026 44.0573 37.9193 43.25 36.4609 42.7031C35.0026 42.1302 33.2708 41.8438 31.2656 41.8438H20.7969V56.4922ZM111.734 8.40625V40.6328C111.734 46.362 110.706 51.2839 108.648 55.3984C106.617 59.513 103.688 62.6771 99.8594 64.8906C96.0573 67.0781 91.487 68.1719 86.1484 68.1719C80.8359 68.1719 76.2656 67.0781 72.4375 64.8906C68.6094 62.6771 65.6667 59.513 63.6094 55.3984C61.5781 51.2839 60.5625 46.362 60.5625 40.6328V8.40625H72.5938V39.1484C72.5938 43.237 73.1016 46.6484 74.1172 49.3828C75.1589 52.1172 76.6823 54.1875 78.6875 55.5938C80.6927 56.974 83.1797 57.6641 86.1484 57.6641C89.1172 57.6641 91.6042 56.974 93.6094 55.5938C95.6146 54.1875 97.125 52.1172 98.1406 49.3828C99.1823 46.6484 99.7031 43.237 99.7031 39.1484V8.40625H111.734ZM121.266 67V8.40625H142.945C149.247 8.40625 154.13 9.7474 157.594 12.4297C161.083 15.0859 162.828 18.8229 162.828 23.6406C162.828 26.5833 162.138 29.1875 160.758 31.4531C159.378 33.6927 157.516 35.3984 155.172 36.5703C158.505 37.5599 161.096 39.2656 162.945 41.6875C164.82 44.0833 165.758 47.026 165.758 50.5156C165.758 53.849 164.938 56.7526 163.297 59.2266C161.682 61.6745 159.391 63.5885 156.422 64.9688C153.479 66.3229 150.016 67 146.031 67H121.266ZM133.297 32.9375H142.281C144.964 32.9375 147.086 32.2995 148.648 31.0234C150.211 29.7474 150.992 28.0156 150.992 25.8281C150.992 23.6927 150.198 22.013 148.609 20.7891C147.047 19.5391 144.872 18.9141 142.086 18.9141H133.297V32.9375ZM133.297 56.4922H143.023C145.159 56.4922 147.008 56.1927 148.57 55.5938C150.133 54.9688 151.331 54.0964 152.164 52.9766C153.023 51.8307 153.453 50.5026 153.453 48.9922C153.453 47.4818 153.062 46.1927 152.281 45.125C151.526 44.0573 150.419 43.25 148.961 42.7031C147.503 42.1302 145.771 41.8438 143.766 41.8438H133.297V56.4922ZM211.344 67H173.062V8.40625H185.094V56.4922H211.344V67ZM217.75 67V8.40625H229.781V67H217.75ZM251.344 67H239.312V8.40625H251.344V37.2344C252.516 35.5156 253.635 33.9271 254.703 32.4688C255.771 31.0104 256.682 29.8125 257.438 28.875L273.688 8.40625H287.867L266.383 35.4375L292.008 67H276.422L258.688 45.0859L251.344 54.3438V67ZM8.76562 147V88.4062H27.9453C35.0286 88.4062 41.1615 89.6042 46.3438 92C51.526 94.3958 55.5365 97.7812 58.375 102.156C61.2135 106.531 62.6328 111.714 62.6328 117.703C62.6328 123.667 61.2135 128.849 58.375 133.25C55.5365 137.625 51.526 141.01 46.3438 143.406C41.1615 145.802 35.0286 147 27.9453 147H8.76562ZM20.7969 136.492H28.375C33.0625 136.492 37.0339 135.763 40.2891 134.305C43.5703 132.82 46.0573 130.685 47.75 127.898C49.4688 125.086 50.3281 121.688 50.3281 117.703C50.3281 113.693 49.4688 110.294 47.75 107.508C46.0573 104.721 43.5703 102.599 40.2891 101.141C37.0339 99.6562 33.0625 98.9141 28.375 98.9141H20.7969V136.492ZM99 148.172C94.5469 148.172 90.4323 147.417 86.6562 145.906C82.9062 144.37 79.638 142.234 76.8516 139.5C74.0911 136.74 71.9427 133.51 70.4062 129.812C68.8958 126.115 68.1406 122.078 68.1406 117.703C68.1406 113.328 68.8958 109.292 70.4062 105.594C71.9427 101.87 74.0911 98.6406 76.8516 95.9062C79.638 93.1458 82.9062 91.0104 86.6562 89.5C90.4323 87.9896 94.5469 87.2344 99 87.2344C103.453 87.2344 107.555 88.0026 111.305 89.5391C115.055 91.0495 118.297 93.1719 121.031 95.9062C123.792 98.6406 125.94 101.857 127.477 105.555C129.013 109.253 129.781 113.302 129.781 117.703C129.781 122.078 129.013 126.128 127.477 129.852C125.966 133.549 123.831 136.766 121.07 139.5C118.31 142.234 115.055 144.37 111.305 145.906C107.555 147.417 103.453 148.172 99 148.172ZM99 137.664C101.63 137.664 104.065 137.156 106.305 136.141C108.57 135.125 110.536 133.719 112.203 131.922C113.87 130.099 115.159 127.99 116.07 125.594C117.008 123.172 117.477 120.542 117.477 117.703C117.477 114.865 117.008 112.234 116.07 109.812C115.159 107.391 113.87 105.281 112.203 103.484C110.536 101.661 108.57 100.255 106.305 99.2656C104.065 98.25 101.63 97.7422 99 97.7422C96.3438 97.7422 93.8828 98.25 91.6172 99.2656C89.3776 100.255 87.4115 101.661 85.7188 103.484C84.0521 105.281 82.75 107.391 81.8125 109.812C80.901 112.234 80.4453 114.865 80.4453 117.703C80.4453 120.542 80.901 123.172 81.8125 125.594C82.75 128.016 84.0521 130.138 85.7188 131.961C87.4115 133.758 89.3776 135.164 91.6172 136.18C93.8828 137.169 96.3438 137.664 99 137.664ZM190.523 147H176.695L149.312 107V147H137.281V88.4062H151.109L178.492 128.484V88.4062H190.523V147ZM251.266 88.4062V120.633C251.266 126.362 250.237 131.284 248.18 135.398C246.148 139.513 243.219 142.677 239.391 144.891C235.589 147.078 231.018 148.172 225.68 148.172C220.367 148.172 215.797 147.078 211.969 144.891C208.141 142.677 205.198 139.513 203.141 135.398C201.109 131.284 200.094 126.362 200.094 120.633V88.4062H212.125V119.148C212.125 123.237 212.633 126.648 213.648 129.383C214.69 132.117 216.214 134.188 218.219 135.594C220.224 136.974 222.711 137.664 225.68 137.664C228.648 137.664 231.135 136.974 233.141 135.594C235.146 134.188 236.656 132.117 237.672 129.383C238.714 126.648 239.234 123.237 239.234 119.148V88.4062H251.266ZM286.109 147H274.078V98.9141H256.812V88.4062H303.414V98.9141H286.109V147ZM306.266 140.672L311.969 131.492C313.766 132.951 315.497 134.148 317.164 135.086C318.857 135.997 320.523 136.674 322.164 137.117C323.805 137.534 325.484 137.742 327.203 137.742C329.234 137.742 330.992 137.456 332.477 136.883C333.961 136.31 335.107 135.49 335.914 134.422C336.747 133.354 337.164 132.117 337.164 130.711C337.164 129.07 336.643 127.69 335.602 126.57C334.56 125.451 333.193 124.474 331.5 123.641C329.833 122.781 328.023 121.961 326.07 121.18C324.169 120.398 322.255 119.552 320.328 118.641C318.427 117.703 316.669 116.596 315.055 115.32C313.466 114.044 312.177 112.495 311.188 110.672C310.224 108.823 309.742 106.583 309.742 103.953C309.742 100.516 310.602 97.5469 312.32 95.0469C314.065 92.5469 316.448 90.6198 319.469 89.2656C322.49 87.9115 325.94 87.2344 329.82 87.2344C332.555 87.2344 335.393 87.599 338.336 88.3281C341.305 89.0573 344.26 90.1641 347.203 91.6484L342.477 101.375C340.628 100.255 338.635 99.3698 336.5 98.7188C334.365 98.0677 332.359 97.7422 330.484 97.7422C328.792 97.7422 327.307 98.0026 326.031 98.5234C324.781 99.0443 323.805 99.7734 323.102 100.711C322.398 101.622 322.047 102.703 322.047 103.953C322.047 105.438 322.555 106.727 323.57 107.82C324.586 108.888 325.901 109.839 327.516 110.672C329.156 111.505 330.914 112.339 332.789 113.172C334.716 114.005 336.656 114.917 338.609 115.906C340.589 116.896 342.385 118.068 344 119.422C345.641 120.75 346.956 122.352 347.945 124.227C348.961 126.076 349.469 128.302 349.469 130.906C349.469 134.344 348.557 137.365 346.734 139.969C344.911 142.547 342.372 144.565 339.117 146.023C335.862 147.456 332.073 148.172 327.75 148.172C323.792 148.172 320.003 147.534 316.383 146.258C312.763 144.982 309.391 143.12 306.266 140.672Z" fill="#FFE8EE"/>
<path d="M8.76562 67H0.765625V75H8.76562V67ZM8.76562 8.40625V0.40625H0.765625V8.40625H8.76562ZM45.0938 12.4297L40.1954 18.7547L40.2218 18.7751L40.2483 18.7953L45.0938 12.4297ZM48.2578 31.4531L55.0684 35.6503L55.0792 35.6328L55.0899 35.6152L48.2578 31.4531ZM42.6719 36.5703L39.0942 29.4149L20.9754 38.4743L40.3951 44.2395L42.6719 36.5703ZM50.4453 41.6875L44.0866 46.542L44.1157 46.5802L44.1453 46.618L50.4453 41.6875ZM50.7969 59.2266L44.1297 54.8052L44.1242 54.8135L44.1187 54.8218L50.7969 59.2266ZM43.9219 64.9688L47.2662 72.2362L47.2804 72.2297L47.2945 72.2231L43.9219 64.9688ZM20.7969 32.9375H12.7969V40.9375H20.7969V32.9375ZM36.1094 20.7891L31.1118 27.036L31.1688 27.0816L31.2267 27.1262L36.1094 20.7891ZM20.7969 18.9141V10.9141H12.7969V18.9141H20.7969ZM20.7969 56.4922H12.7969V64.4922H20.7969V56.4922ZM36.0703 55.5938L38.9338 63.0637L38.9878 63.043L39.0414 63.0216L36.0703 55.5938ZM39.6641 52.9766L33.2641 48.1766L33.2551 48.1885L33.2462 48.2005L39.6641 52.9766ZM39.7812 45.125L33.2499 49.7447L33.287 49.7972L33.325 49.8491L39.7812 45.125ZM36.4609 42.7031L33.5357 50.1491L33.5937 50.1719L33.652 50.1938L36.4609 42.7031ZM20.7969 41.8438V33.8438H12.7969V41.8438H20.7969ZM8.76562 67H16.7656V8.40625H8.76562H0.765625V67H8.76562ZM8.76562 8.40625V16.4062H30.4453V8.40625V0.40625H8.76562V8.40625ZM30.4453 8.40625V16.4062C35.7283 16.4062 38.6318 17.5438 40.1954 18.7547L45.0938 12.4297L49.9921 6.10464C44.6286 1.95094 37.7665 0.40625 30.4453 0.40625V8.40625ZM45.0938 12.4297L40.2483 18.7953C41.535 19.7748 42.3281 21.0375 42.3281 23.6406H50.3281H58.3281C58.3281 16.6084 55.6317 10.3971 49.9392 6.06405L45.0938 12.4297ZM50.3281 23.6406H42.3281C42.3281 25.2802 41.9605 26.4132 41.4257 27.2911L48.2578 31.4531L55.0899 35.6152C57.3155 31.9618 58.3281 27.8864 58.3281 23.6406H50.3281ZM48.2578 31.4531L41.4473 27.2559C40.8451 28.2331 40.1004 28.9118 39.0942 29.4149L42.6719 36.5703L46.2496 43.7257C49.9308 41.8851 52.9101 39.1524 55.0684 35.6503L48.2578 31.4531ZM42.6719 36.5703L40.3951 44.2395C42.3427 44.8177 43.4073 45.6523 44.0866 46.542L50.4453 41.6875L56.8041 36.833C53.7854 32.879 49.6677 30.3021 44.9487 28.9011L42.6719 36.5703ZM50.4453 41.6875L44.1453 46.618C44.7603 47.4038 45.2578 48.5379 45.2578 50.5156H53.2578H61.2578C61.2578 45.5142 59.8804 40.7629 56.7454 36.757L50.4453 41.6875ZM53.2578 50.5156H45.2578C45.2578 52.4762 44.7968 53.7993 44.1297 54.8052L50.7969 59.2266L57.4641 63.648C60.0782 59.7059 61.2578 55.2217 61.2578 50.5156H53.2578ZM50.7969 59.2266L44.1187 54.8218C43.4132 55.8915 42.3345 56.8844 40.5492 57.7144L43.9219 64.9688L47.2945 72.2231C51.4468 70.2926 54.9514 67.4575 57.4751 63.6313L50.7969 59.2266ZM43.9219 64.9688L40.5776 57.7013C38.8962 58.475 36.6204 59 33.5312 59V67V75C38.4108 75 43.0621 74.1708 47.2662 72.2362L43.9219 64.9688ZM33.5312 67V59H8.76562V67V75H33.5312V67ZM20.7969 32.9375V40.9375H29.7812V32.9375V24.9375H20.7969V32.9375ZM29.7812 32.9375V40.9375C33.6971 40.9375 37.8072 39.9976 41.2087 37.2197L36.1484 31.0234L31.0882 24.8272C31.1977 24.7377 31.2361 24.7512 31.0817 24.7977C30.9051 24.8507 30.5003 24.9375 29.7812 24.9375V32.9375ZM36.1484 31.0234L41.2087 37.2197C44.8036 34.2839 46.4922 30.1864 46.4922 25.8281H38.4922H30.4922C30.4922 25.9585 30.4726 25.7912 30.614 25.4778C30.681 25.3291 30.767 25.1875 30.8634 25.0638C30.9587 24.9415 31.0424 24.8646 31.0882 24.8272L36.1484 31.0234ZM38.4922 25.8281H46.4922C46.4922 21.3977 44.6895 17.3008 40.9921 14.4519L36.1094 20.7891L31.2267 27.1262C31.0993 27.0281 30.8507 26.7808 30.6643 26.3867C30.4855 26.0086 30.4922 25.7667 30.4922 25.8281H38.4922ZM36.1094 20.7891L41.1069 14.5421C37.6603 11.7848 33.4862 10.9141 29.5859 10.9141V18.9141V26.9141C31.2586 26.9141 31.4334 27.2933 31.1118 27.036L36.1094 20.7891ZM29.5859 18.9141V10.9141H20.7969V18.9141V26.9141H29.5859V18.9141ZM20.7969 18.9141H12.7969V32.9375H20.7969H28.7969V18.9141H20.7969ZM20.7969 56.4922V64.4922H30.5234V56.4922V48.4922H20.7969V56.4922ZM30.5234 56.4922V64.4922C33.3794 64.4922 36.2437 64.0949 38.9338 63.0637L36.0703 55.5938L33.2068 48.1238C32.772 48.2905 31.9383 48.4922 30.5234 48.4922V56.4922ZM36.0703 55.5938L39.0414 63.0216C41.6922 61.9613 44.2005 60.2808 46.0819 57.7526L39.6641 52.9766L33.2462 48.2005C33.29 48.1416 33.3327 48.0941 33.369 48.0585C33.405 48.0232 33.4282 48.0059 33.4311 48.0039C33.4363 48.0001 33.3451 48.0676 33.0992 48.1659L36.0703 55.5938ZM39.6641 52.9766L46.0641 57.7766C48.0209 55.1674 48.9531 52.1327 48.9531 48.9922H40.9531H32.9531C32.9531 48.9797 32.9565 48.8526 33.0193 48.6585C33.0836 48.4599 33.1776 48.2918 33.2641 48.1766L39.6641 52.9766ZM40.9531 48.9922H48.9531C48.9531 46.0336 48.1603 43.0287 46.2375 40.4009L39.7812 45.125L33.325 49.8491C33.1733 49.6417 33.0654 49.4155 33.004 49.2126C32.9456 49.0199 32.9531 48.929 32.9531 48.9922H40.9531ZM39.7812 45.125L46.3126 40.5053C44.4671 37.8961 41.9366 36.2125 39.2699 35.2125L36.4609 42.7031L33.652 50.1938C33.7934 50.2468 33.7763 50.2593 33.6704 50.1821C33.5556 50.0984 33.3973 49.9531 33.2499 49.7447L39.7812 45.125ZM36.4609 42.7031L39.3862 35.2571C36.7756 34.2315 34.0043 33.8438 31.2656 33.8438V41.8438V49.8438C32.5374 49.8438 33.2296 50.0289 33.5357 50.1491L36.4609 42.7031ZM31.2656 41.8438V33.8438H20.7969V41.8438V49.8438H31.2656V41.8438ZM20.7969 41.8438H12.7969V56.4922H20.7969H28.7969V41.8438H20.7969ZM111.734 8.40625H119.734V0.40625H111.734V8.40625ZM108.648 55.3984L101.493 51.8207L101.484 51.8389L101.475 51.8571L108.648 55.3984ZM99.8594 64.8906L103.849 71.8249L103.856 71.8205L103.864 71.8162L99.8594 64.8906ZM72.4375 64.8906L68.4329 71.8162L68.4506 71.8264L68.4684 71.8366L72.4375 64.8906ZM63.6094 55.3984L56.4359 58.9398L56.4449 58.958L56.454 58.9761L63.6094 55.3984ZM60.5625 8.40625V0.40625H52.5625V8.40625H60.5625ZM72.5938 8.40625H80.5938V0.40625H72.5938V8.40625ZM74.1172 49.3828L66.6178 52.1683L66.6294 52.1996L66.6413 52.2308L74.1172 49.3828ZM78.6875 55.5938L74.0941 62.1436L74.1228 62.1637L74.1516 62.1836L78.6875 55.5938ZM93.6094 55.5938L98.1452 62.1836L98.1741 62.1637L98.2028 62.1436L93.6094 55.5938ZM98.1406 49.3828L90.6647 46.5349L90.6528 46.566L90.6412 46.5973L98.1406 49.3828ZM99.7031 8.40625V0.40625H91.7031V8.40625H99.7031ZM111.734 8.40625H103.734V40.6328H111.734H119.734V8.40625H111.734ZM111.734 40.6328H103.734C103.734 45.4181 102.875 49.056 101.493 51.8207L108.648 55.3984L115.804 58.9761C118.536 53.5117 119.734 47.3058 119.734 40.6328H111.734ZM108.648 55.3984L101.475 51.8571C100.115 54.612 98.2622 56.573 95.8548 57.9651L99.8594 64.8906L103.864 71.8162C109.113 68.7811 113.119 64.414 115.822 58.9398L108.648 55.3984ZM99.8594 64.8906L95.8698 57.9564C93.5194 59.3087 90.3896 60.1719 86.1484 60.1719V68.1719V76.1719C92.5844 76.1719 98.5952 74.8475 103.849 71.8249L99.8594 64.8906ZM86.1484 68.1719V60.1719C81.9432 60.1719 78.8005 59.3126 76.4066 57.9447L72.4375 64.8906L68.4684 71.8366C73.7307 74.8436 79.7287 76.1719 86.1484 76.1719V68.1719ZM72.4375 64.8906L76.4421 57.9651C74.0257 56.5679 72.1518 54.5947 70.7648 51.8207L63.6094 55.3984L56.454 58.9761C59.1815 64.4313 63.193 68.7863 68.4329 71.8162L72.4375 64.8906ZM63.6094 55.3984L70.7829 51.8571C69.4135 49.0832 68.5625 45.4318 68.5625 40.6328H60.5625H52.5625C52.5625 47.2921 53.7428 53.4845 56.4359 58.9398L63.6094 55.3984ZM60.5625 40.6328H68.5625V8.40625H60.5625H52.5625V40.6328H60.5625ZM60.5625 8.40625V16.4062H72.5938V8.40625V0.40625H60.5625V8.40625ZM72.5938 8.40625H64.5938V39.1484H72.5938H80.5938V8.40625H72.5938ZM72.5938 39.1484H64.5938C64.5938 43.835 65.1672 48.2629 66.6178 52.1683L74.1172 49.3828L81.6166 46.5973C81.0359 45.034 80.5938 42.6389 80.5938 39.1484H72.5938ZM74.1172 49.3828L66.6413 52.2308C68.1394 56.1633 70.5422 59.6527 74.0941 62.1436L78.6875 55.5938L83.2809 49.0439C82.8224 48.7223 82.1783 48.0711 81.5931 46.5349L74.1172 49.3828ZM78.6875 55.5938L74.1516 62.1836C77.76 64.6673 81.9202 65.6641 86.1484 65.6641V57.6641V49.6641C84.4392 49.6641 83.6254 49.2806 83.2234 49.0039L78.6875 55.5938ZM86.1484 57.6641V65.6641C90.3767 65.6641 94.5369 64.6673 98.1452 62.1836L93.6094 55.5938L89.0735 49.0039C88.6715 49.2806 87.8577 49.6641 86.1484 49.6641V57.6641ZM93.6094 55.5938L98.2028 62.1436C101.773 59.6397 104.17 56.1266 105.64 52.1683L98.1406 49.3828L90.6412 46.5973C90.0802 48.1078 89.4561 48.7353 89.016 49.0439L93.6094 55.5938ZM98.1406 49.3828L105.617 52.2308C107.113 48.3035 107.703 43.8523 107.703 39.1484H99.7031H91.7031C91.7031 42.6217 91.252 44.9934 90.6647 46.5349L98.1406 49.3828ZM99.7031 39.1484H107.703V8.40625H99.7031H91.7031V39.1484H99.7031ZM99.7031 8.40625V16.4062H111.734V8.40625V0.40625H99.7031V8.40625ZM121.266 67H113.266V75H121.266V67ZM121.266 8.40625V0.40625H113.266V8.40625H121.266ZM157.594 12.4297L152.695 18.7547L152.722 18.7751L152.748 18.7953L157.594 12.4297ZM160.758 31.4531L167.568 35.6503L167.579 35.6328L167.59 35.6152L160.758 31.4531ZM155.172 36.5703L151.594 29.4149L133.475 38.4743L152.895 44.2395L155.172 36.5703ZM162.945 41.6875L156.587 46.542L156.616 46.5802L156.645 46.618L162.945 41.6875ZM163.297 59.2266L156.63 54.8052L156.624 54.8135L156.619 54.8218L163.297 59.2266ZM156.422 64.9688L159.766 72.2362L159.78 72.2297L159.795 72.2231L156.422 64.9688ZM133.297 32.9375H125.297V40.9375H133.297V32.9375ZM148.609 20.7891L143.612 27.036L143.669 27.0816L143.727 27.1262L148.609 20.7891ZM133.297 18.9141V10.9141H125.297V18.9141H133.297ZM133.297 56.4922H125.297V64.4922H133.297V56.4922ZM148.57 55.5938L151.434 63.0637L151.488 63.043L151.541 63.0216L148.57 55.5938ZM152.164 52.9766L145.764 48.1766L145.755 48.1885L145.746 48.2005L152.164 52.9766ZM152.281 45.125L145.75 49.7447L145.787 49.7972L145.825 49.8491L152.281 45.125ZM148.961 42.7031L146.036 50.1491L146.094 50.1719L146.152 50.1938L148.961 42.7031ZM133.297 41.8438V33.8438H125.297V41.8438H133.297ZM121.266 67H129.266V8.40625H121.266H113.266V67H121.266ZM121.266 8.40625V16.4062H142.945V8.40625V0.40625H121.266V8.40625ZM142.945 8.40625V16.4062C148.228 16.4062 151.132 17.5438 152.695 18.7547L157.594 12.4297L162.492 6.10464C157.129 1.95094 150.267 0.40625 142.945 0.40625V8.40625ZM157.594 12.4297L152.748 18.7953C154.035 19.7748 154.828 21.0375 154.828 23.6406H162.828H170.828C170.828 16.6084 168.132 10.3971 162.439 6.06405L157.594 12.4297ZM162.828 23.6406H154.828C154.828 25.2802 154.46 26.4132 153.926 27.2911L160.758 31.4531L167.59 35.6152C169.816 31.9618 170.828 27.8864 170.828 23.6406H162.828ZM160.758 31.4531L153.947 27.2559C153.345 28.2331 152.6 28.9118 151.594 29.4149L155.172 36.5703L158.75 43.7257C162.431 41.8851 165.41 39.1524 167.568 35.6503L160.758 31.4531ZM155.172 36.5703L152.895 44.2395C154.843 44.8177 155.907 45.6523 156.587 46.542L162.945 41.6875L169.304 36.833C166.285 32.879 162.168 30.3021 157.449 28.9011L155.172 36.5703ZM162.945 41.6875L156.645 46.618C157.26 47.4038 157.758 48.5379 157.758 50.5156H165.758H173.758C173.758 45.5142 172.38 40.7629 169.245 36.757L162.945 41.6875ZM165.758 50.5156H157.758C157.758 52.4762 157.297 53.7993 156.63 54.8052L163.297 59.2266L169.964 63.648C172.578 59.7059 173.758 55.2217 173.758 50.5156H165.758ZM163.297 59.2266L156.619 54.8218C155.913 55.8915 154.834 56.8844 153.049 57.7144L156.422 64.9688L159.795 72.2231C163.947 70.2926 167.451 67.4575 169.975 63.6313L163.297 59.2266ZM156.422 64.9688L153.078 57.7013C151.396 58.475 149.12 59 146.031 59V67V75C150.911 75 155.562 74.1708 159.766 72.2362L156.422 64.9688ZM146.031 67V59H121.266V67V75H146.031V67ZM133.297 32.9375V40.9375H142.281V32.9375V24.9375H133.297V32.9375ZM142.281 32.9375V40.9375C146.197 40.9375 150.307 39.9976 153.709 37.2197L148.648 31.0234L143.588 24.8272C143.698 24.7377 143.736 24.7512 143.582 24.7977C143.405 24.8507 143 24.9375 142.281 24.9375V32.9375ZM148.648 31.0234L153.709 37.2197C157.304 34.2839 158.992 30.1864 158.992 25.8281H150.992H142.992C142.992 25.9585 142.973 25.7912 143.114 25.4778C143.181 25.3291 143.267 25.1875 143.363 25.0638C143.459 24.9415 143.542 24.8646 143.588 24.8272L148.648 31.0234ZM150.992 25.8281H158.992C158.992 21.3977 157.189 17.3008 153.492 14.4519L148.609 20.7891L143.727 27.1262C143.599 27.0281 143.351 26.7808 143.164 26.3867C142.986 26.0086 142.992 25.7667 142.992 25.8281H150.992ZM148.609 20.7891L153.607 14.5421C150.16 11.7848 145.986 10.9141 142.086 10.9141V18.9141V26.9141C143.759 26.9141 143.933 27.2933 143.612 27.036L148.609 20.7891ZM142.086 18.9141V10.9141H133.297V18.9141V26.9141H142.086V18.9141ZM133.297 18.9141H125.297V32.9375H133.297H141.297V18.9141H133.297ZM133.297 56.4922V64.4922H143.023V56.4922V48.4922H133.297V56.4922ZM143.023 56.4922V64.4922C145.879 64.4922 148.744 64.0949 151.434 63.0637L148.57 55.5938L145.707 48.1238C145.272 48.2905 144.438 48.4922 143.023 48.4922V56.4922ZM148.57 55.5938L151.541 63.0216C154.192 61.9613 156.701 60.2808 158.582 57.7526L152.164 52.9766L145.746 48.2005C145.79 48.1416 145.833 48.0941 145.869 48.0585C145.905 48.0232 145.928 48.0059 145.931 48.0039C145.936 48.0001 145.845 48.0676 145.599 48.1659L148.57 55.5938ZM152.164 52.9766L158.564 57.7766C160.521 55.1674 161.453 52.1327 161.453 48.9922H153.453H145.453C145.453 48.9797 145.457 48.8526 145.519 48.6585C145.584 48.4599 145.678 48.2918 145.764 48.1766L152.164 52.9766ZM153.453 48.9922H161.453C161.453 46.0336 160.66 43.0287 158.737 40.4009L152.281 45.125L145.825 49.8491C145.673 49.6417 145.565 49.4155 145.504 49.2126C145.446 49.0199 145.453 48.929 145.453 48.9922H153.453ZM152.281 45.125L158.813 40.5053C156.967 37.8961 154.437 36.2125 151.77 35.2125L148.961 42.7031L146.152 50.1938C146.293 50.2468 146.276 50.2593 146.17 50.1821C146.056 50.0984 145.897 49.9531 145.75 49.7447L152.281 45.125ZM148.961 42.7031L151.886 35.2571C149.276 34.2315 146.504 33.8438 143.766 33.8438V41.8438V49.8438C145.037 49.8438 145.73 50.0289 146.036 50.1491L148.961 42.7031ZM143.766 41.8438V33.8438H133.297V41.8438V49.8438H143.766V41.8438ZM133.297 41.8438H125.297V56.4922H133.297H141.297V41.8438H133.297ZM211.344 67V75H219.344V67H211.344ZM173.062 67H165.062V75H173.062V67ZM173.062 8.40625V0.40625H165.062V8.40625H173.062ZM185.094 8.40625H193.094V0.40625H185.094V8.40625ZM185.094 56.4922H177.094V64.4922H185.094V56.4922ZM211.344 56.4922H219.344V48.4922H211.344V56.4922ZM211.344 67V59H173.062V67V75H211.344V67ZM173.062 67H181.062V8.40625H173.062H165.062V67H173.062ZM173.062 8.40625V16.4062H185.094V8.40625V0.40625H173.062V8.40625ZM185.094 8.40625H177.094V56.4922H185.094H193.094V8.40625H185.094ZM185.094 56.4922V64.4922H211.344V56.4922V48.4922H185.094V56.4922ZM211.344 56.4922H203.344V67H211.344H219.344V56.4922H211.344ZM217.75 67H209.75V75H217.75V67ZM217.75 8.40625V0.40625H209.75V8.40625H217.75ZM229.781 8.40625H237.781V0.40625H229.781V8.40625ZM229.781 67V75H237.781V67H229.781ZM217.75 67H225.75V8.40625H217.75H209.75V67H217.75ZM217.75 8.40625V16.4062H229.781V8.40625V0.40625H217.75V8.40625ZM229.781 8.40625H221.781V67H229.781H237.781V8.40625H229.781ZM229.781 67V59H217.75V67V75H229.781V67ZM251.344 67V75H259.344V67H251.344ZM239.312 67H231.312V75H239.312V67ZM239.312 8.40625V0.40625H231.312V8.40625H239.312ZM251.344 8.40625H259.344V0.40625H251.344V8.40625ZM251.344 37.2344H243.344V63.1688L257.954 41.7411L251.344 37.2344ZM254.703 32.4688L248.248 27.7428L254.703 32.4688ZM257.438 28.875L263.668 33.8936L263.685 33.8715L263.703 33.8492L257.438 28.875ZM273.688 8.40625V0.40625H269.824L267.422 3.43206L273.688 8.40625ZM287.867 8.40625L294.13 13.3839L304.445 0.40625H287.867V8.40625ZM266.383 35.4375L260.12 30.4598L256.121 35.4908L260.172 40.4799L266.383 35.4375ZM292.008 67V75H308.807L298.219 61.9576L292.008 67ZM276.422 67L270.203 72.0326L272.605 75H276.422V67ZM258.688 45.0859L264.906 40.0533L258.625 32.2918L252.42 40.1142L258.688 45.0859ZM251.344 54.3438L245.076 49.372L243.344 51.556V54.3438H251.344ZM251.344 67V59H239.312V67V75H251.344V67ZM239.312 67H247.312V8.40625H239.312H231.312V67H239.312ZM239.312 8.40625V16.4062H251.344V8.40625V0.40625H239.312V8.40625ZM251.344 8.40625H243.344V37.2344H251.344H259.344V8.40625H251.344ZM251.344 37.2344L257.954 41.7411C259.082 40.0855 260.15 38.571 261.158 37.1947L254.703 32.4688L248.248 27.7428C247.12 29.2832 245.949 30.9457 244.734 32.7277L251.344 37.2344ZM254.703 32.4688L261.158 37.1947C262.185 35.7918 263.017 34.7007 263.668 33.8936L257.438 28.875L251.207 23.8564C250.347 24.9243 249.357 26.229 248.248 27.7428L254.703 32.4688ZM257.438 28.875L263.703 33.8492L279.953 13.3804L273.688 8.40625L267.422 3.43206L251.172 23.9008L257.438 28.875ZM273.688 8.40625V16.4062H287.867V8.40625V0.40625H273.688V8.40625ZM287.867 8.40625L281.604 3.42858L260.12 30.4598L266.383 35.4375L272.646 40.4152L294.13 13.3839L287.867 8.40625ZM266.383 35.4375L260.172 40.4799L285.797 72.0424L292.008 67L298.219 61.9576L272.594 30.3951L266.383 35.4375ZM292.008 67V59H276.422V67V75H292.008V67ZM276.422 67L282.641 61.9674L264.906 40.0533L258.688 45.0859L252.469 50.1186L270.203 72.0326L276.422 67ZM258.688 45.0859L252.42 40.1142L245.076 49.372L251.344 54.3438L257.611 59.3155L264.955 50.0577L258.688 45.0859ZM251.344 54.3438H243.344V67H251.344H259.344V54.3438H251.344ZM8.76562 147H0.765625V155H8.76562V147ZM8.76562 88.4062V80.4062H0.765625V88.4062H8.76562ZM46.3438 92L42.9867 99.2615L46.3438 92ZM58.375 133.25L65.0862 137.604L65.0921 137.595L65.098 137.586L58.375 133.25ZM46.3438 143.406L42.9867 136.145L46.3438 143.406ZM20.7969 136.492H12.7969V144.492H20.7969V136.492ZM40.2891 134.305L43.5598 141.606L43.5731 141.6L43.5864 141.594L40.2891 134.305ZM47.75 127.898L40.9237 123.727L40.9182 123.736L40.9127 123.745L47.75 127.898ZM47.75 107.508L40.9127 111.661L40.9268 111.685L40.9411 111.708L47.75 107.508ZM40.2891 101.141L36.9699 108.42L37.0048 108.436L37.04 108.451L40.2891 101.141ZM20.7969 98.9141V90.9141H12.7969V98.9141H20.7969ZM8.76562 147H16.7656V88.4062H8.76562H0.765625V147H8.76562ZM8.76562 88.4062V96.4062H27.9453V88.4062V80.4062H8.76562V88.4062ZM27.9453 88.4062V96.4062C34.1411 96.4062 39.0783 97.4546 42.9867 99.2615L46.3438 92L49.7008 84.7385C43.2447 81.7537 35.9161 80.4062 27.9453 80.4062V88.4062ZM46.3438 92L42.9867 99.2615C46.9337 101.086 49.7238 103.52 51.6638 106.511L58.375 102.156L65.0862 97.802C61.3491 92.042 56.1184 87.7054 49.7008 84.7385L46.3438 92ZM58.375 102.156L51.6638 106.511C53.5416 109.405 54.6328 113.024 54.6328 117.703H62.6328H70.6328C70.6328 110.403 68.8855 103.658 65.0862 97.802L58.375 102.156ZM62.6328 117.703H54.6328C54.6328 122.348 53.5455 125.978 51.652 128.914L58.375 133.25L65.098 137.586C68.8815 131.72 70.6328 124.985 70.6328 117.703H62.6328ZM58.375 133.25L51.6638 128.896C49.7238 131.886 46.9337 134.32 42.9867 136.145L46.3438 143.406L49.7008 150.668C56.1184 147.701 61.3491 143.364 65.0862 137.604L58.375 133.25ZM46.3438 143.406L42.9867 136.145C39.0783 137.952 34.1411 139 27.9453 139V147V155C35.9161 155 43.2447 153.653 49.7008 150.668L46.3438 143.406ZM27.9453 147V139H8.76562V147V155H27.9453V147ZM20.7969 136.492V144.492H28.375V136.492V128.492H20.7969V136.492ZM28.375 136.492V144.492C33.852 144.492 39.0067 143.645 43.5598 141.606L40.2891 134.305L37.0183 127.004C35.061 127.881 32.273 128.492 28.375 128.492V136.492ZM40.2891 134.305L43.5864 141.594C48.1763 139.517 51.9706 136.359 54.5873 132.052L47.75 127.898L40.9127 123.745C40.144 125.01 38.9643 126.123 36.9917 127.016L40.2891 134.305ZM47.75 127.898L54.5763 132.07C57.209 127.762 58.3281 122.851 58.3281 117.703H50.3281H42.3281C42.3281 120.524 41.7285 122.41 40.9237 123.727L47.75 127.898ZM50.3281 117.703H58.3281C58.3281 112.543 57.2148 107.614 54.5589 103.308L47.75 107.508L40.9411 111.708C41.7227 112.975 42.3281 114.842 42.3281 117.703H50.3281ZM47.75 107.508L54.5873 103.354C51.9627 99.0338 48.1513 95.8804 43.5382 93.8301L40.2891 101.141L37.04 108.451C38.9893 109.317 40.1519 110.409 40.9127 111.661L47.75 107.508ZM40.2891 101.141L43.6083 93.8617C39.0409 91.779 33.8681 90.9141 28.375 90.9141V98.9141V106.914C32.2569 106.914 35.0268 107.534 36.9699 108.42L40.2891 101.141ZM28.375 98.9141V90.9141H20.7969V98.9141V106.914H28.375V98.9141ZM20.7969 98.9141H12.7969V136.492H20.7969H28.7969V98.9141H20.7969ZM86.6562 145.906L83.6232 153.309L83.6541 153.322L83.6851 153.334L86.6562 145.906ZM76.8516 139.5L71.1947 145.157L71.2214 145.184L71.2483 145.21L76.8516 139.5ZM70.4062 129.812L63.0002 132.837L63.0093 132.86L63.0186 132.882L70.4062 129.812ZM70.4062 105.594L63.011 102.543L63.0056 102.556L63.0002 102.569L70.4062 105.594ZM76.8516 95.9062L82.4815 101.59L82.4818 101.59L76.8516 95.9062ZM86.6562 89.5L83.6851 82.0722L83.6762 82.0757L83.6674 82.0793L86.6562 89.5ZM111.305 89.5391L108.272 96.9418L108.294 96.9508L108.316 96.9597L111.305 89.5391ZM121.031 95.9062L115.374 101.563L115.388 101.577L115.401 101.59L121.031 95.9062ZM127.477 105.555L120.089 108.624L127.477 105.555ZM127.477 129.852L120.081 126.8L120.076 126.813L120.071 126.827L127.477 129.852ZM111.305 145.906L114.294 153.327L114.316 153.318L114.338 153.309L111.305 145.906ZM106.305 136.141L103.032 128.841L103.016 128.848L103.001 128.855L106.305 136.141ZM112.203 131.922L118.068 137.362L118.088 137.341L118.107 137.32L112.203 131.922ZM116.07 125.594L108.61 122.706L108.601 122.727L108.593 122.749L116.07 125.594ZM116.07 109.812L108.583 112.63L108.596 112.665L108.61 112.7L116.07 109.812ZM112.203 103.484L106.299 108.883L106.318 108.904L106.338 108.925L112.203 103.484ZM106.305 99.2656L103.001 106.551L103.051 106.574L103.103 106.597L106.305 99.2656ZM91.6172 99.2656L94.8505 106.583L94.8701 106.574L94.8896 106.566L91.6172 99.2656ZM85.7188 103.484L79.8564 98.0408L79.8534 98.044L85.7188 103.484ZM81.8125 109.812L74.352 106.925L74.3384 106.96L74.3252 106.995L81.8125 109.812ZM81.8125 125.594L74.3252 128.412L74.3384 128.447L74.352 128.482L81.8125 125.594ZM85.7188 131.961L79.8145 137.359L79.8548 137.403L79.8956 137.446L85.7188 131.961ZM91.6172 136.18L88.3131 143.466L88.3639 143.489L88.4151 143.511L91.6172 136.18ZM99 148.172V140.172C95.4677 140.172 92.3724 139.576 89.6274 138.478L86.6562 145.906L83.6851 153.334C88.4922 155.257 93.6261 156.172 99 156.172V148.172ZM86.6562 145.906L89.6893 138.504C86.8604 137.344 84.474 135.772 82.4548 133.79L76.8516 139.5L71.2483 145.21C74.802 148.697 78.9521 151.395 83.6232 153.309L86.6562 145.906ZM76.8516 139.5L82.5084 133.843C80.5081 131.843 78.939 129.499 77.7939 126.743L70.4062 129.812L63.0186 132.882C64.9464 137.522 67.6742 141.636 71.1947 145.157L76.8516 139.5ZM70.4062 129.812L77.8123 126.788C76.73 124.138 76.1406 121.14 76.1406 117.703H68.1406H60.1406C60.1406 123.016 61.0617 128.092 63.0002 132.837L70.4062 129.812ZM68.1406 117.703H76.1406C76.1406 114.266 76.73 111.269 77.8123 108.619L70.4062 105.594L63.0002 102.569C61.0617 107.315 60.1406 112.39 60.1406 117.703H68.1406ZM70.4062 105.594L77.8015 108.645C78.9463 105.87 80.5072 103.546 82.4815 101.59L76.8516 95.9062L71.2216 90.2226C67.6751 93.7357 64.9391 97.8692 63.011 102.543L70.4062 105.594ZM76.8516 95.9062L82.4818 101.59C84.4887 99.6014 86.8514 98.0459 89.6451 96.9207L86.6562 89.5L83.6674 82.0793C78.9611 83.9749 74.7873 86.6903 71.2213 90.2229L76.8516 95.9062ZM86.6562 89.5L89.6274 96.9278C92.3724 95.8298 95.4677 95.2344 99 95.2344V87.2344V79.2344C93.6261 79.2344 88.4922 80.1494 83.6851 82.0722L86.6562 89.5ZM99 87.2344V95.2344C102.516 95.2344 105.575 95.8371 108.272 96.9418L111.305 89.5391L114.338 82.1363C109.534 80.1682 104.39 79.2344 99 79.2344V87.2344ZM111.305 89.5391L108.316 96.9597C111.113 98.0864 113.436 99.6248 115.374 101.563L121.031 95.9062L126.688 90.2494C123.158 86.719 118.996 84.0125 114.294 82.1184L111.305 89.5391ZM121.031 95.9062L115.401 101.59C117.385 103.555 118.947 105.875 120.089 108.624L127.477 105.555L134.864 102.485C132.934 97.8387 130.198 93.7263 126.661 90.2226L121.031 95.9062ZM127.477 105.555L120.089 108.624C121.183 111.257 121.781 114.251 121.781 117.703H129.781H137.781C137.781 112.353 136.843 107.248 134.864 102.485L127.477 105.555ZM129.781 117.703H121.781C121.781 121.122 121.185 124.125 120.081 126.8L127.477 129.852L134.872 132.903C136.841 128.131 137.781 123.034 137.781 117.703H129.781ZM127.477 129.852L120.071 126.827C118.956 129.556 117.414 131.861 115.44 133.816L121.07 139.5L126.7 145.184C130.247 141.67 132.977 137.543 134.883 132.877L127.477 129.852ZM121.07 139.5L115.44 133.816C113.457 135.782 111.094 137.347 108.272 138.504L111.305 145.906L114.338 153.309C119.015 151.393 123.163 148.687 126.7 145.184L121.07 139.5ZM111.305 145.906L108.316 138.486C105.608 139.576 102.533 140.172 99 140.172V148.172V156.172C104.373 156.172 109.501 155.257 114.294 153.327L111.305 145.906ZM99 137.664V145.664C102.689 145.664 106.26 144.945 109.609 143.426L106.305 136.141L103.001 128.855C101.87 129.368 100.571 129.664 99 129.664V137.664ZM106.305 136.141L109.577 143.441C112.81 141.991 115.661 139.957 118.068 137.362L112.203 131.922L106.338 126.482C105.411 127.48 104.331 128.259 103.032 128.841L106.305 136.141ZM112.203 131.922L118.107 137.32C120.48 134.725 122.291 131.741 123.548 128.438L116.07 125.594L108.593 122.749C108.027 124.239 107.259 125.473 106.299 126.524L112.203 131.922ZM116.07 125.594L123.531 128.482C124.857 125.057 125.477 121.437 125.477 117.703H117.477H109.477C109.477 119.646 109.159 121.287 108.61 122.706L116.07 125.594ZM117.477 117.703H125.477C125.477 113.969 124.857 110.35 123.531 106.925L116.07 109.812L108.61 112.7C109.159 114.119 109.477 115.76 109.477 117.703H117.477ZM116.07 109.812L123.558 106.995C122.301 103.657 120.48 100.644 118.068 98.044L112.203 103.484L106.338 108.925C107.26 109.919 108.016 111.125 108.583 112.63L116.07 109.812ZM112.203 103.484L118.107 98.0862C115.684 95.4362 112.797 93.3717 109.507 91.9344L106.305 99.2656L103.103 106.597C104.343 107.139 105.388 107.887 106.299 108.883L112.203 103.484ZM106.305 99.2656L109.609 91.9798C106.26 90.4613 102.689 89.7422 99 89.7422V97.7422V105.742C100.571 105.742 101.87 106.039 103.001 106.551L106.305 99.2656ZM99 97.7422V89.7422C95.2958 89.7422 91.7103 90.4569 88.3447 91.9656L91.6172 99.2656L94.8896 106.566C96.0554 106.043 97.3917 105.742 99 105.742V97.7422ZM91.6172 99.2656L88.3839 91.9481C85.1335 93.3843 82.2768 95.4341 79.8564 98.0408L85.7188 103.484L91.5811 108.928C92.5461 107.889 93.6217 107.126 94.8505 106.583L91.6172 99.2656ZM85.7188 103.484L79.8534 98.044C77.4579 100.627 75.6328 103.616 74.352 106.925L81.8125 109.812L89.273 112.7C89.8672 111.166 90.6463 109.936 91.5841 108.925L85.7188 103.484ZM81.8125 109.812L74.3252 106.995C73.0433 110.401 72.4453 113.995 72.4453 117.703H80.4453H88.4453C88.4453 115.734 88.7587 114.068 89.2998 112.63L81.8125 109.812ZM80.4453 117.703H72.4453C72.4453 121.411 73.0433 125.006 74.3252 128.412L81.8125 125.594L89.2998 122.776C88.7587 121.338 88.4453 119.672 88.4453 117.703H80.4453ZM81.8125 125.594L74.352 128.482C75.6293 131.781 77.4437 134.766 79.8145 137.359L85.7188 131.961L91.623 126.563C90.6604 125.51 89.8707 124.25 89.273 122.706L81.8125 125.594ZM85.7188 131.961L79.8956 137.446C82.2999 139.999 85.1209 142.018 88.3131 143.466L91.6172 136.18L94.9212 128.894C93.6343 128.31 92.523 127.517 91.5419 126.475L85.7188 131.961ZM91.6172 136.18L88.4151 143.511C91.7641 144.974 95.3248 145.664 99 145.664V137.664V129.664C97.3627 129.664 96.0016 129.365 94.8193 128.848L91.6172 136.18ZM190.523 147V155H198.523V147H190.523ZM176.695 147L170.094 151.519L172.477 155H176.695V147ZM149.312 107L155.914 102.481L141.312 81.1517V107H149.312ZM149.312 147V155H157.312V147H149.312ZM137.281 147H129.281V155H137.281V147ZM137.281 88.4062V80.4062H129.281V88.4062H137.281ZM151.109 88.4062L157.715 83.8932L155.332 80.4062H151.109V88.4062ZM178.492 128.484L171.887 132.997L186.492 154.374V128.484H178.492ZM178.492 88.4062V80.4062H170.492V88.4062H178.492ZM190.523 88.4062H198.523V80.4062H190.523V88.4062ZM190.523 147V139H176.695V147V155H190.523V147ZM176.695 147L183.297 142.481L155.914 102.481L149.312 107L142.711 111.519L170.094 151.519L176.695 147ZM149.312 107H141.312V147H149.312H157.312V107H149.312ZM149.312 147V139H137.281V147V155H149.312V147ZM137.281 147H145.281V88.4062H137.281H129.281V147H137.281ZM137.281 88.4062V96.4062H151.109V88.4062V80.4062H137.281V88.4062ZM151.109 88.4062L144.504 92.9193L171.887 132.997L178.492 128.484L185.098 123.971L157.715 83.8932L151.109 88.4062ZM178.492 128.484H186.492V88.4062H178.492H170.492V128.484H178.492ZM178.492 88.4062V96.4062H190.523V88.4062V80.4062H178.492V88.4062ZM190.523 88.4062H182.523V147H190.523H198.523V88.4062H190.523ZM251.266 88.4062H259.266V80.4062H251.266V88.4062ZM248.18 135.398L241.024 131.821L241.015 131.839L241.006 131.857L248.18 135.398ZM239.391 144.891L243.38 151.825L243.388 151.821L243.395 151.816L239.391 144.891ZM211.969 144.891L207.964 151.816L207.982 151.826L208 151.837L211.969 144.891ZM203.141 135.398L195.967 138.94L195.976 138.958L195.985 138.976L203.141 135.398ZM200.094 88.4062V80.4062H192.094V88.4062H200.094ZM212.125 88.4062H220.125V80.4062H212.125V88.4062ZM213.648 129.383L206.149 132.168L206.161 132.2L206.173 132.231L213.648 129.383ZM218.219 135.594L213.625 142.144L213.654 142.164L213.683 142.184L218.219 135.594ZM233.141 135.594L237.676 142.184L237.705 142.164L237.734 142.144L233.141 135.594ZM237.672 129.383L230.196 126.535L230.184 126.566L230.172 126.597L237.672 129.383ZM239.234 88.4062V80.4062H231.234V88.4062H239.234ZM251.266 88.4062H243.266V120.633H251.266H259.266V88.4062H251.266ZM251.266 120.633H243.266C243.266 125.418 242.407 129.056 241.024 131.821L248.18 135.398L255.335 138.976C258.067 133.512 259.266 127.306 259.266 120.633H251.266ZM248.18 135.398L241.006 131.857C239.646 134.612 237.793 136.573 235.386 137.965L239.391 144.891L243.395 151.816C248.644 148.781 252.651 144.414 255.353 138.94L248.18 135.398ZM239.391 144.891L235.401 137.956C233.051 139.309 229.921 140.172 225.68 140.172V148.172V156.172C232.116 156.172 238.126 154.848 243.38 151.825L239.391 144.891ZM225.68 148.172V140.172C221.474 140.172 218.332 139.313 215.938 137.945L211.969 144.891L208 151.837C213.262 154.844 219.26 156.172 225.68 156.172V148.172ZM211.969 144.891L215.973 137.965C213.557 136.568 211.683 134.595 210.296 131.821L203.141 135.398L195.985 138.976C198.713 144.431 202.724 148.786 207.964 151.816L211.969 144.891ZM203.141 135.398L210.314 131.857C208.945 129.083 208.094 125.432 208.094 120.633H200.094H192.094C192.094 127.292 193.274 133.485 195.967 138.94L203.141 135.398ZM200.094 120.633H208.094V88.4062H200.094H192.094V120.633H200.094ZM200.094 88.4062V96.4062H212.125V88.4062V80.4062H200.094V88.4062ZM212.125 88.4062H204.125V119.148H212.125H220.125V88.4062H212.125ZM212.125 119.148H204.125C204.125 123.835 204.698 128.263 206.149 132.168L213.648 129.383L221.148 126.597C220.567 125.034 220.125 122.639 220.125 119.148H212.125ZM213.648 129.383L206.173 132.231C207.671 136.163 210.073 139.653 213.625 142.144L218.219 135.594L222.812 129.044C222.354 128.722 221.71 128.071 221.124 126.535L213.648 129.383ZM218.219 135.594L213.683 142.184C217.291 144.667 221.451 145.664 225.68 145.664V137.664V129.664C223.97 129.664 223.157 129.281 222.755 129.004L218.219 135.594ZM225.68 137.664V145.664C229.908 145.664 234.068 144.667 237.676 142.184L233.141 135.594L228.605 129.004C228.203 129.281 227.389 129.664 225.68 129.664V137.664ZM233.141 135.594L237.734 142.144C241.304 139.64 243.701 136.127 245.171 132.168L237.672 129.383L230.172 126.597C229.611 128.108 228.987 128.735 228.547 129.044L233.141 135.594ZM237.672 129.383L245.148 132.231C246.644 128.304 247.234 123.852 247.234 119.148H239.234H231.234C231.234 122.622 230.783 124.993 230.196 126.535L237.672 129.383ZM239.234 119.148H247.234V88.4062H239.234H231.234V119.148H239.234ZM239.234 88.4062V96.4062H251.266V88.4062V80.4062H239.234V88.4062ZM286.109 147V155H294.109V147H286.109ZM274.078 147H266.078V155H274.078V147ZM274.078 98.9141H282.078V90.9141H274.078V98.9141ZM256.812 98.9141H248.812V106.914H256.812V98.9141ZM256.812 88.4062V80.4062H248.812V88.4062H256.812ZM303.414 88.4062H311.414V80.4062H303.414V88.4062ZM303.414 98.9141V106.914H311.414V98.9141H303.414ZM286.109 98.9141V90.9141H278.109V98.9141H286.109ZM286.109 147V139H274.078V147V155H286.109V147ZM274.078 147H282.078V98.9141H274.078H266.078V147H274.078ZM274.078 98.9141V90.9141H256.812V98.9141V106.914H274.078V98.9141ZM256.812 98.9141H264.812V88.4062H256.812H248.812V98.9141H256.812ZM256.812 88.4062V96.4062H303.414V88.4062V80.4062H256.812V88.4062ZM303.414 88.4062H295.414V98.9141H303.414H311.414V88.4062H303.414ZM303.414 98.9141V90.9141H286.109V98.9141V106.914H303.414V98.9141ZM286.109 98.9141H278.109V147H286.109H294.109V98.9141H286.109ZM306.266 140.672L299.47 136.45L295.684 142.545L301.332 146.97L306.266 140.672ZM311.969 131.492L317.01 125.281L309.963 119.561L305.173 127.27L311.969 131.492ZM317.164 135.086L313.242 142.059L313.306 142.095L313.371 142.13L317.164 135.086ZM322.164 137.117L320.08 144.841L320.137 144.856L320.195 144.871L322.164 137.117ZM332.477 136.883L335.357 144.346L332.477 136.883ZM335.914 134.422L329.608 129.5L329.57 129.548L329.533 129.597L335.914 134.422ZM335.602 126.57L341.459 121.121L335.602 126.57ZM331.5 123.641L327.834 130.751L327.9 130.785L327.967 130.818L331.5 123.641ZM326.07 121.18L323.029 128.579L323.064 128.594L323.099 128.607L326.07 121.18ZM320.328 118.641L316.79 125.816L316.848 125.845L316.908 125.873L320.328 118.641ZM315.055 115.32L310.045 121.557L310.069 121.577L310.094 121.597L315.055 115.32ZM311.188 110.672L304.093 114.369L304.124 114.429L304.157 114.489L311.188 110.672ZM312.32 95.0469L305.76 90.4684L305.744 90.4914L305.728 90.5146L312.32 95.0469ZM338.336 88.3281L336.412 96.0933L336.42 96.0953L336.428 96.0972L338.336 88.3281ZM347.203 91.6484L354.399 95.145L357.844 88.0556L350.806 84.5057L347.203 91.6484ZM342.477 101.375L338.332 108.218L345.837 112.763L349.672 104.872L342.477 101.375ZM326.031 98.5234L323.008 91.1167L322.981 91.1276L322.954 91.1388L326.031 98.5234ZM323.102 100.711L329.436 105.597L329.469 105.554L329.502 105.511L323.102 100.711ZM323.57 107.82L317.708 113.264L317.741 113.299L317.774 113.334L323.57 107.82ZM327.516 110.672L323.846 117.781L323.87 117.793L323.893 117.805L327.516 110.672ZM332.789 113.172L329.54 120.482L329.577 120.499L329.614 120.515L332.789 113.172ZM338.609 115.906L334.994 123.043L335.013 123.052L335.032 123.062L338.609 115.906ZM344 119.422L338.859 125.551L338.912 125.596L338.966 125.64L344 119.422ZM347.945 124.227L340.87 127.961L340.901 128.02L340.934 128.078L347.945 124.227ZM346.734 139.969L353.266 144.587L353.277 144.572L353.288 144.556L346.734 139.969ZM339.117 146.023L342.339 153.346L342.364 153.335L342.388 153.324L339.117 146.023ZM306.266 140.672L313.061 144.894L318.764 135.714L311.969 131.492L305.173 127.27L299.47 136.45L306.266 140.672ZM311.969 131.492L306.927 137.704C309.005 139.39 311.11 140.859 313.242 142.059L317.164 135.086L321.086 128.113C319.885 127.438 318.526 126.511 317.01 125.281L311.969 131.492ZM317.164 135.086L313.371 142.13C315.536 143.295 317.774 144.219 320.08 144.841L322.164 137.117L324.248 129.393C323.273 129.13 322.178 128.699 320.957 128.042L317.164 135.086ZM322.164 137.117L320.195 144.871C322.489 145.454 324.831 145.742 327.203 145.742V137.742V129.742C326.138 129.742 325.12 129.614 324.133 129.363L322.164 137.117ZM327.203 137.742V145.742C329.959 145.742 332.739 145.357 335.357 144.346L332.477 136.883L329.596 129.419C329.246 129.555 328.51 129.742 327.203 129.742V137.742ZM332.477 136.883L335.357 144.346C337.966 143.339 340.432 141.711 342.295 139.247L335.914 134.422L329.533 129.597C329.584 129.529 329.636 129.471 329.685 129.424C329.733 129.378 329.772 129.348 329.792 129.333C329.834 129.303 329.788 129.345 329.596 129.419L332.477 136.883ZM335.914 134.422L342.221 139.344C344.196 136.813 345.164 133.827 345.164 130.711H337.164H329.164C329.164 130.613 329.181 130.405 329.27 130.14C329.361 129.87 329.49 129.651 329.608 129.5L335.914 134.422ZM337.164 130.711H345.164C345.164 127.209 343.984 123.835 341.459 121.121L335.602 126.57L329.744 132.019C329.584 131.847 329.409 131.588 329.289 131.27C329.172 130.962 329.164 130.748 329.164 130.711H337.164ZM335.602 126.57L341.459 121.121C339.62 119.144 337.402 117.63 335.033 116.463L331.5 123.641L327.967 130.818C328.983 131.318 329.5 131.757 329.744 132.019L335.602 126.57ZM331.5 123.641L335.166 116.53C333.248 115.541 331.203 114.617 329.041 113.752L326.07 121.18L323.099 128.607C324.844 129.305 326.419 130.022 327.834 130.751L331.5 123.641ZM326.07 121.18L329.111 113.78C327.343 113.053 325.555 112.263 323.749 111.409L320.328 118.641L316.908 125.873C318.955 126.841 320.996 127.743 323.029 128.579L326.07 121.18ZM320.328 118.641L323.866 111.466C322.455 110.769 321.176 109.961 320.015 109.044L315.055 115.32L310.094 121.597C312.163 123.232 314.4 124.637 316.79 125.816L320.328 118.641ZM315.055 115.32L320.065 109.083C319.319 108.484 318.711 107.762 318.218 106.855L311.188 110.672L304.157 114.489C305.643 117.227 307.614 119.604 310.045 121.557L315.055 115.32ZM311.188 110.672L318.282 106.975C318.049 106.527 317.742 105.625 317.742 103.953H309.742H301.742C301.742 107.542 302.399 111.119 304.093 114.369L311.188 110.672ZM309.742 103.953H317.742C317.742 101.911 318.229 100.573 318.913 99.5791L312.32 95.0469L305.728 90.5146C302.974 94.521 301.742 99.1204 301.742 103.953H309.742ZM312.32 95.0469L318.881 99.6254C319.725 98.4149 320.925 97.3798 322.741 96.5657L319.469 89.2656L316.196 81.9656C311.971 83.8598 308.405 86.6789 305.76 90.4684L312.32 95.0469ZM319.469 89.2656L322.741 96.5657C324.571 95.7455 326.876 95.2344 329.82 95.2344V87.2344V79.2344C325.004 79.2344 320.408 80.0774 316.196 81.9656L319.469 89.2656ZM329.82 87.2344V95.2344C331.84 95.2344 334.031 95.5034 336.412 96.0933L338.336 88.3281L340.26 80.563C336.755 79.6945 333.269 79.2344 329.82 79.2344V87.2344ZM338.336 88.3281L336.428 96.0972C338.766 96.6715 341.155 97.5579 343.6 98.7912L347.203 91.6484L350.806 84.5057C347.366 82.7703 343.843 81.4431 340.244 80.559L338.336 88.3281ZM347.203 91.6484L340.008 88.1519L335.281 97.8784L342.477 101.375L349.672 104.872L354.399 95.145L347.203 91.6484ZM342.477 101.375L346.621 94.5321C344.186 93.0573 341.583 91.9048 338.833 91.0665L336.5 98.7188L334.167 106.371C335.688 106.835 337.07 107.453 338.332 108.218L342.477 101.375ZM336.5 98.7188L338.833 91.0665C336.081 90.2275 333.284 89.7422 330.484 89.7422V97.7422V105.742C331.435 105.742 332.648 105.908 334.167 106.371L336.5 98.7188ZM330.484 97.7422V89.7422C327.985 89.7422 325.436 90.1258 323.008 91.1167L326.031 98.5234L329.054 105.93C329.179 105.879 329.599 105.742 330.484 105.742V97.7422ZM326.031 98.5234L322.954 91.1388C320.594 92.1224 318.388 93.6629 316.702 95.9109L323.102 100.711L329.502 105.511C329.377 105.677 329.247 105.797 329.148 105.871C329.054 105.941 329.024 105.943 329.108 105.908L326.031 98.5234ZM323.102 100.711L316.767 95.8245C314.89 98.2586 314.047 101.096 314.047 103.953H322.047H330.047C330.047 104.085 330.027 104.345 329.918 104.68C329.807 105.022 329.636 105.338 329.436 105.597L323.102 100.711ZM322.047 103.953H314.047C314.047 107.469 315.327 110.7 317.708 113.264L323.57 107.82L329.433 102.377C329.551 102.504 329.732 102.748 329.871 103.101C330.011 103.455 330.047 103.764 330.047 103.953H322.047ZM323.57 107.82L317.774 113.334C319.529 115.179 321.617 116.63 323.846 117.781L327.516 110.672L331.185 103.563C330.185 103.047 329.643 102.597 329.367 102.307L323.57 107.82ZM327.516 110.672L323.893 117.805C325.669 118.707 327.553 119.599 329.54 120.482L332.789 113.172L336.038 105.861C334.275 105.078 332.643 104.303 331.139 103.539L327.516 110.672ZM332.789 113.172L329.614 120.515C331.386 121.281 333.179 122.123 334.994 123.043L338.609 115.906L342.225 108.77C340.133 107.71 338.046 106.729 335.964 105.829L332.789 113.172ZM338.609 115.906L335.032 123.062C336.479 123.786 337.747 124.619 338.859 125.551L344 119.422L349.141 113.292C347.024 111.517 344.698 110.006 342.187 108.751L338.609 115.906ZM344 119.422L338.966 125.64C339.762 126.284 340.384 127.039 340.87 127.961L347.945 124.227L355.02 120.492C353.528 117.664 351.52 115.216 349.034 113.204L344 119.422ZM347.945 124.227L340.934 128.078C341.166 128.501 341.469 129.337 341.469 130.906H349.469H357.469C357.469 127.267 356.756 123.65 354.957 120.375L347.945 124.227ZM349.469 130.906H341.469C341.469 132.843 340.985 134.232 340.181 135.381L346.734 139.969L353.288 144.556C356.13 140.497 357.469 135.845 357.469 130.906H349.469ZM346.734 139.969L340.202 135.35C339.31 136.612 337.967 137.773 335.846 138.723L339.117 146.023L342.388 153.324C346.778 151.358 350.513 148.481 353.266 144.587L346.734 139.969ZM339.117 146.023L335.895 138.701C333.85 139.601 331.197 140.172 327.75 140.172V148.172V156.172C332.948 156.172 337.874 155.31 342.339 153.346L339.117 146.023ZM327.75 148.172V140.172C324.669 140.172 321.781 139.678 319.043 138.713L316.383 146.258L313.723 153.803C318.224 155.389 322.914 156.172 327.75 156.172V148.172ZM316.383 146.258L319.043 138.713C316.271 137.736 313.663 136.304 311.199 134.374L306.266 140.672L301.332 146.97C305.119 149.936 309.255 152.228 313.723 153.803L316.383 146.258Z" fill="#B00E17" mask="url(#path-1-outside-1_1_6)"/>
</svg>
