<svg width="107" height="49" viewBox="0 0 107 49" fill="none" xmlns="http://www.w3.org/2000/svg">
<mask id="path-1-outside-1_142_470" maskUnits="userSpaceOnUse" x="0" y="0" width="107" height="49" fill="black">
<rect fill="white" width="107" height="49"/>
<path d="M2.42969 20V2.42188H8.93359C10.8242 2.42188 12.2891 2.82422 13.3281 3.62891C14.375 4.42578 14.8984 5.54688 14.8984 6.99219C14.8984 7.875 14.6914 8.65625 14.2773 9.33594C13.8633 10.0078 13.3047 10.5195 12.6016 10.8711C13.6016 11.168 14.3789 11.6797 14.9336 12.4062C15.4961 13.125 15.7773 14.0078 15.7773 15.0547C15.7773 16.0547 15.5312 16.9258 15.0391 17.668C14.5547 18.4023 13.8672 18.9766 12.9766 19.3906C12.0938 19.7969 11.0547 20 9.85938 20H2.42969ZM6.03906 9.78125H8.73438C9.53906 9.78125 10.1758 9.58984 10.6445 9.20703C11.1133 8.82422 11.3477 8.30469 11.3477 7.64844C11.3477 7.00781 11.1094 6.50391 10.6328 6.13672C10.1641 5.76172 9.51172 5.57422 8.67578 5.57422H6.03906V9.78125ZM6.03906 16.8477H8.95703C9.59766 16.8477 10.1523 16.7578 10.6211 16.5781C11.0898 16.3906 11.4492 16.1289 11.6992 15.793C11.957 15.4492 12.0859 15.0508 12.0859 14.5977C12.0859 14.1445 11.9688 13.7578 11.7344 13.4375C11.5078 13.1172 11.1758 12.875 10.7383 12.7109C10.3008 12.5391 9.78125 12.4531 9.17969 12.4531H6.03906V16.8477ZM33.3203 2.42188V12.0898C33.3203 13.8086 33.0117 15.2852 32.3945 16.5195C31.7852 17.7539 30.9062 18.7031 29.7578 19.3672C28.6172 20.0234 27.2461 20.3516 25.6445 20.3516C24.0508 20.3516 22.6797 20.0234 21.5312 19.3672C20.3828 18.7031 19.5 17.7539 18.8828 16.5195C18.2734 15.2852 17.9688 13.8086 17.9688 12.0898V2.42188H21.5781V11.6445C21.5781 12.8711 21.7305 13.8945 22.0352 14.7148C22.3477 15.5352 22.8047 16.1562 23.4062 16.5781C24.0078 16.9922 24.7539 17.1992 25.6445 17.1992C26.5352 17.1992 27.2812 16.9922 27.8828 16.5781C28.4844 16.1562 28.9375 15.5352 29.2422 14.7148C29.5547 13.8945 29.7109 12.8711 29.7109 11.6445V2.42188H33.3203ZM36.1797 20V2.42188H42.6836C44.5742 2.42188 46.0391 2.82422 47.0781 3.62891C48.125 4.42578 48.6484 5.54688 48.6484 6.99219C48.6484 7.875 48.4414 8.65625 48.0273 9.33594C47.6133 10.0078 47.0547 10.5195 46.3516 10.8711C47.3516 11.168 48.1289 11.6797 48.6836 12.4062C49.2461 13.125 49.5273 14.0078 49.5273 15.0547C49.5273 16.0547 49.2812 16.9258 48.7891 17.668C48.3047 18.4023 47.6172 18.9766 46.7266 19.3906C45.8438 19.7969 44.8047 20 43.6094 20H36.1797ZM39.7891 9.78125H42.4844C43.2891 9.78125 43.9258 9.58984 44.3945 9.20703C44.8633 8.82422 45.0977 8.30469 45.0977 7.64844C45.0977 7.00781 44.8594 6.50391 44.3828 6.13672C43.9141 5.76172 43.2617 5.57422 42.4258 5.57422H39.7891V9.78125ZM39.7891 16.8477H42.707C43.3477 16.8477 43.9023 16.7578 44.3711 16.5781C44.8398 16.3906 45.1992 16.1289 45.4492 15.793C45.707 15.4492 45.8359 15.0508 45.8359 14.5977C45.8359 14.1445 45.7188 13.7578 45.4844 13.4375C45.2578 13.1172 44.9258 12.875 44.4883 12.7109C44.0508 12.5391 43.5312 12.4531 42.9297 12.4531H39.7891V16.8477ZM63.2031 20H51.7188V2.42188H55.3281V16.8477H63.2031V20ZM65.125 20V2.42188H68.7344V20H65.125ZM75.2031 20H71.5938V2.42188H75.2031V11.0703C75.5547 10.5547 75.8906 10.0781 76.2109 9.64062C76.5312 9.20312 76.8047 8.84375 77.0312 8.5625L81.9062 2.42188H86.1602L79.7148 10.5312L87.4023 20H82.7266L77.4062 13.4258L75.2031 16.2031V20ZM2.42969 46V28.4219H8.18359C10.3086 28.4219 12.1484 28.7812 13.7031 29.5C15.2578 30.2188 16.4609 31.2344 17.3125 32.5469C18.1641 33.8594 18.5898 35.4141 18.5898 37.2109C18.5898 39 18.1641 40.5547 17.3125 41.875C16.4609 43.1875 15.2578 44.2031 13.7031 44.9219C12.1484 45.6406 10.3086 46 8.18359 46H2.42969ZM6.03906 42.8477H8.3125C9.71875 42.8477 10.9102 42.6289 11.8867 42.1914C12.8711 41.7461 13.6172 41.1055 14.125 40.2695C14.6406 39.4258 14.8984 38.4062 14.8984 37.2109C14.8984 36.0078 14.6406 34.9883 14.125 34.1523C13.6172 33.3164 12.8711 32.6797 11.8867 32.2422C10.9102 31.7969 9.71875 31.5742 8.3125 31.5742H6.03906V42.8477ZM29.5 46.3516C28.1641 46.3516 26.9297 46.125 25.7969 45.6719C24.6719 45.2109 23.6914 44.5703 22.8555 43.75C22.0273 42.9219 21.3828 41.9531 20.9219 40.8438C20.4688 39.7344 20.2422 38.5234 20.2422 37.2109C20.2422 35.8984 20.4688 34.6875 20.9219 33.5781C21.3828 32.4609 22.0273 31.4922 22.8555 30.6719C23.6914 29.8438 24.6719 29.2031 25.7969 28.75C26.9297 28.2969 28.1641 28.0703 29.5 28.0703C30.8359 28.0703 32.0664 28.3008 33.1914 28.7617C34.3164 29.2148 35.2891 29.8516 36.1094 30.6719C36.9375 31.4922 37.582 32.457 38.043 33.5664C38.5039 34.6758 38.7344 35.8906 38.7344 37.2109C38.7344 38.5234 38.5039 39.7383 38.043 40.8555C37.5898 41.9648 36.9492 42.9297 36.1211 43.75C35.293 44.5703 34.3164 45.2109 33.1914 45.6719C32.0664 46.125 30.8359 46.3516 29.5 46.3516ZM29.5 43.1992C30.2891 43.1992 31.0195 43.0469 31.6914 42.7422C32.3711 42.4375 32.9609 42.0156 33.4609 41.4766C33.9609 40.9297 34.3477 40.2969 34.6211 39.5781C34.9023 38.8516 35.043 38.0625 35.043 37.2109C35.043 36.3594 34.9023 35.5703 34.6211 34.8438C34.3477 34.1172 33.9609 33.4844 33.4609 32.9453C32.9609 32.3984 32.3711 31.9766 31.6914 31.6797C31.0195 31.375 30.2891 31.2227 29.5 31.2227C28.7031 31.2227 27.9648 31.375 27.2852 31.6797C26.6133 31.9766 26.0234 32.3984 25.5156 32.9453C25.0156 33.4844 24.625 34.1172 24.3438 34.8438C24.0703 35.5703 23.9336 36.3594 23.9336 37.2109C23.9336 38.0625 24.0703 38.8516 24.3438 39.5781C24.625 40.3047 25.0156 40.9414 25.5156 41.4883C26.0234 42.0273 26.6133 42.4492 27.2852 42.7539C27.9648 43.0508 28.7031 43.1992 29.5 43.1992ZM56.957 46H52.8086L44.5938 34V46H40.9844V28.4219H45.1328L53.3477 40.4453V28.4219H56.957V46ZM75.1797 28.4219V38.0898C75.1797 39.8086 74.8711 41.2852 74.2539 42.5195C73.6445 43.7539 72.7656 44.7031 71.6172 45.3672C70.4766 46.0234 69.1055 46.3516 67.5039 46.3516C65.9102 46.3516 64.5391 46.0234 63.3906 45.3672C62.2422 44.7031 61.3594 43.7539 60.7422 42.5195C60.1328 41.2852 59.8281 39.8086 59.8281 38.0898V28.4219H63.4375V37.6445C63.4375 38.8711 63.5898 39.8945 63.8945 40.7148C64.207 41.5352 64.6641 42.1562 65.2656 42.5781C65.8672 42.9922 66.6133 43.1992 67.5039 43.1992C68.3945 43.1992 69.1406 42.9922 69.7422 42.5781C70.3438 42.1562 70.7969 41.5352 71.1016 40.7148C71.4141 39.8945 71.5703 38.8711 71.5703 37.6445V28.4219H75.1797ZM85.6328 46H82.0234V31.5742H76.8438V28.4219H90.8242V31.5742H85.6328V46ZM91.6797 44.1016L93.3906 41.3477C93.9297 41.7852 94.4492 42.1445 94.9492 42.4258C95.457 42.6992 95.957 42.9023 96.4492 43.0352C96.9414 43.1602 97.4453 43.2227 97.9609 43.2227C98.5703 43.2227 99.0977 43.1367 99.543 42.9648C99.9883 42.793 100.332 42.5469 100.574 42.2266C100.824 41.9062 100.949 41.5352 100.949 41.1133C100.949 40.6211 100.793 40.207 100.48 39.8711C100.168 39.5352 99.7578 39.2422 99.25 38.9922C98.75 38.7344 98.207 38.4883 97.6211 38.2539C97.0508 38.0195 96.4766 37.7656 95.8984 37.4922C95.3281 37.2109 94.8008 36.8789 94.3164 36.4961C93.8398 36.1133 93.4531 35.6484 93.1562 35.1016C92.8672 34.5469 92.7227 33.875 92.7227 33.0859C92.7227 32.0547 92.9805 31.1641 93.4961 30.4141C94.0195 29.6641 94.7344 29.0859 95.6406 28.6797C96.5469 28.2734 97.582 28.0703 98.7461 28.0703C99.5664 28.0703 100.418 28.1797 101.301 28.3984C102.191 28.6172 103.078 28.9492 103.961 29.3945L102.543 32.3125C101.988 31.9766 101.391 31.7109 100.75 31.5156C100.109 31.3203 99.5078 31.2227 98.9453 31.2227C98.4375 31.2227 97.9922 31.3008 97.6094 31.457C97.2344 31.6133 96.9414 31.832 96.7305 32.1133C96.5195 32.3867 96.4141 32.7109 96.4141 33.0859C96.4141 33.5312 96.5664 33.918 96.8711 34.2461C97.1758 34.5664 97.5703 34.8516 98.0547 35.1016C98.5469 35.3516 99.0742 35.6016 99.6367 35.8516C100.215 36.1016 100.797 36.375 101.383 36.6719C101.977 36.9688 102.516 37.3203 103 37.7266C103.492 38.125 103.887 38.6055 104.184 39.168C104.488 39.7227 104.641 40.3906 104.641 41.1719C104.641 42.2031 104.367 43.1094 103.82 43.8906C103.273 44.6641 102.512 45.2695 101.535 45.707C100.559 46.1367 99.4219 46.3516 98.125 46.3516C96.9375 46.3516 95.8008 46.1602 94.7148 45.7773C93.6289 45.3945 92.6172 44.8359 91.6797 44.1016Z"/>
</mask>
<path d="M2.42969 20V2.42188H8.93359C10.8242 2.42188 12.2891 2.82422 13.3281 3.62891C14.375 4.42578 14.8984 5.54688 14.8984 6.99219C14.8984 7.875 14.6914 8.65625 14.2773 9.33594C13.8633 10.0078 13.3047 10.5195 12.6016 10.8711C13.6016 11.168 14.3789 11.6797 14.9336 12.4062C15.4961 13.125 15.7773 14.0078 15.7773 15.0547C15.7773 16.0547 15.5312 16.9258 15.0391 17.668C14.5547 18.4023 13.8672 18.9766 12.9766 19.3906C12.0938 19.7969 11.0547 20 9.85938 20H2.42969ZM6.03906 9.78125H8.73438C9.53906 9.78125 10.1758 9.58984 10.6445 9.20703C11.1133 8.82422 11.3477 8.30469 11.3477 7.64844C11.3477 7.00781 11.1094 6.50391 10.6328 6.13672C10.1641 5.76172 9.51172 5.57422 8.67578 5.57422H6.03906V9.78125ZM6.03906 16.8477H8.95703C9.59766 16.8477 10.1523 16.7578 10.6211 16.5781C11.0898 16.3906 11.4492 16.1289 11.6992 15.793C11.957 15.4492 12.0859 15.0508 12.0859 14.5977C12.0859 14.1445 11.9688 13.7578 11.7344 13.4375C11.5078 13.1172 11.1758 12.875 10.7383 12.7109C10.3008 12.5391 9.78125 12.4531 9.17969 12.4531H6.03906V16.8477ZM33.3203 2.42188V12.0898C33.3203 13.8086 33.0117 15.2852 32.3945 16.5195C31.7852 17.7539 30.9062 18.7031 29.7578 19.3672C28.6172 20.0234 27.2461 20.3516 25.6445 20.3516C24.0508 20.3516 22.6797 20.0234 21.5312 19.3672C20.3828 18.7031 19.5 17.7539 18.8828 16.5195C18.2734 15.2852 17.9688 13.8086 17.9688 12.0898V2.42188H21.5781V11.6445C21.5781 12.8711 21.7305 13.8945 22.0352 14.7148C22.3477 15.5352 22.8047 16.1562 23.4062 16.5781C24.0078 16.9922 24.7539 17.1992 25.6445 17.1992C26.5352 17.1992 27.2812 16.9922 27.8828 16.5781C28.4844 16.1562 28.9375 15.5352 29.2422 14.7148C29.5547 13.8945 29.7109 12.8711 29.7109 11.6445V2.42188H33.3203ZM36.1797 20V2.42188H42.6836C44.5742 2.42188 46.0391 2.82422 47.0781 3.62891C48.125 4.42578 48.6484 5.54688 48.6484 6.99219C48.6484 7.875 48.4414 8.65625 48.0273 9.33594C47.6133 10.0078 47.0547 10.5195 46.3516 10.8711C47.3516 11.168 48.1289 11.6797 48.6836 12.4062C49.2461 13.125 49.5273 14.0078 49.5273 15.0547C49.5273 16.0547 49.2812 16.9258 48.7891 17.668C48.3047 18.4023 47.6172 18.9766 46.7266 19.3906C45.8438 19.7969 44.8047 20 43.6094 20H36.1797ZM39.7891 9.78125H42.4844C43.2891 9.78125 43.9258 9.58984 44.3945 9.20703C44.8633 8.82422 45.0977 8.30469 45.0977 7.64844C45.0977 7.00781 44.8594 6.50391 44.3828 6.13672C43.9141 5.76172 43.2617 5.57422 42.4258 5.57422H39.7891V9.78125ZM39.7891 16.8477H42.707C43.3477 16.8477 43.9023 16.7578 44.3711 16.5781C44.8398 16.3906 45.1992 16.1289 45.4492 15.793C45.707 15.4492 45.8359 15.0508 45.8359 14.5977C45.8359 14.1445 45.7188 13.7578 45.4844 13.4375C45.2578 13.1172 44.9258 12.875 44.4883 12.7109C44.0508 12.5391 43.5312 12.4531 42.9297 12.4531H39.7891V16.8477ZM63.2031 20H51.7188V2.42188H55.3281V16.8477H63.2031V20ZM65.125 20V2.42188H68.7344V20H65.125ZM75.2031 20H71.5938V2.42188H75.2031V11.0703C75.5547 10.5547 75.8906 10.0781 76.2109 9.64062C76.5312 9.20312 76.8047 8.84375 77.0312 8.5625L81.9062 2.42188H86.1602L79.7148 10.5312L87.4023 20H82.7266L77.4062 13.4258L75.2031 16.2031V20ZM2.42969 46V28.4219H8.18359C10.3086 28.4219 12.1484 28.7812 13.7031 29.5C15.2578 30.2188 16.4609 31.2344 17.3125 32.5469C18.1641 33.8594 18.5898 35.4141 18.5898 37.2109C18.5898 39 18.1641 40.5547 17.3125 41.875C16.4609 43.1875 15.2578 44.2031 13.7031 44.9219C12.1484 45.6406 10.3086 46 8.18359 46H2.42969ZM6.03906 42.8477H8.3125C9.71875 42.8477 10.9102 42.6289 11.8867 42.1914C12.8711 41.7461 13.6172 41.1055 14.125 40.2695C14.6406 39.4258 14.8984 38.4062 14.8984 37.2109C14.8984 36.0078 14.6406 34.9883 14.125 34.1523C13.6172 33.3164 12.8711 32.6797 11.8867 32.2422C10.9102 31.7969 9.71875 31.5742 8.3125 31.5742H6.03906V42.8477ZM29.5 46.3516C28.1641 46.3516 26.9297 46.125 25.7969 45.6719C24.6719 45.2109 23.6914 44.5703 22.8555 43.75C22.0273 42.9219 21.3828 41.9531 20.9219 40.8438C20.4688 39.7344 20.2422 38.5234 20.2422 37.2109C20.2422 35.8984 20.4688 34.6875 20.9219 33.5781C21.3828 32.4609 22.0273 31.4922 22.8555 30.6719C23.6914 29.8438 24.6719 29.2031 25.7969 28.75C26.9297 28.2969 28.1641 28.0703 29.5 28.0703C30.8359 28.0703 32.0664 28.3008 33.1914 28.7617C34.3164 29.2148 35.2891 29.8516 36.1094 30.6719C36.9375 31.4922 37.582 32.457 38.043 33.5664C38.5039 34.6758 38.7344 35.8906 38.7344 37.2109C38.7344 38.5234 38.5039 39.7383 38.043 40.8555C37.5898 41.9648 36.9492 42.9297 36.1211 43.75C35.293 44.5703 34.3164 45.2109 33.1914 45.6719C32.0664 46.125 30.8359 46.3516 29.5 46.3516ZM29.5 43.1992C30.2891 43.1992 31.0195 43.0469 31.6914 42.7422C32.3711 42.4375 32.9609 42.0156 33.4609 41.4766C33.9609 40.9297 34.3477 40.2969 34.6211 39.5781C34.9023 38.8516 35.043 38.0625 35.043 37.2109C35.043 36.3594 34.9023 35.5703 34.6211 34.8438C34.3477 34.1172 33.9609 33.4844 33.4609 32.9453C32.9609 32.3984 32.3711 31.9766 31.6914 31.6797C31.0195 31.375 30.2891 31.2227 29.5 31.2227C28.7031 31.2227 27.9648 31.375 27.2852 31.6797C26.6133 31.9766 26.0234 32.3984 25.5156 32.9453C25.0156 33.4844 24.625 34.1172 24.3438 34.8438C24.0703 35.5703 23.9336 36.3594 23.9336 37.2109C23.9336 38.0625 24.0703 38.8516 24.3438 39.5781C24.625 40.3047 25.0156 40.9414 25.5156 41.4883C26.0234 42.0273 26.6133 42.4492 27.2852 42.7539C27.9648 43.0508 28.7031 43.1992 29.5 43.1992ZM56.957 46H52.8086L44.5938 34V46H40.9844V28.4219H45.1328L53.3477 40.4453V28.4219H56.957V46ZM75.1797 28.4219V38.0898C75.1797 39.8086 74.8711 41.2852 74.2539 42.5195C73.6445 43.7539 72.7656 44.7031 71.6172 45.3672C70.4766 46.0234 69.1055 46.3516 67.5039 46.3516C65.9102 46.3516 64.5391 46.0234 63.3906 45.3672C62.2422 44.7031 61.3594 43.7539 60.7422 42.5195C60.1328 41.2852 59.8281 39.8086 59.8281 38.0898V28.4219H63.4375V37.6445C63.4375 38.8711 63.5898 39.8945 63.8945 40.7148C64.207 41.5352 64.6641 42.1562 65.2656 42.5781C65.8672 42.9922 66.6133 43.1992 67.5039 43.1992C68.3945 43.1992 69.1406 42.9922 69.7422 42.5781C70.3438 42.1562 70.7969 41.5352 71.1016 40.7148C71.4141 39.8945 71.5703 38.8711 71.5703 37.6445V28.4219H75.1797ZM85.6328 46H82.0234V31.5742H76.8438V28.4219H90.8242V31.5742H85.6328V46ZM91.6797 44.1016L93.3906 41.3477C93.9297 41.7852 94.4492 42.1445 94.9492 42.4258C95.457 42.6992 95.957 42.9023 96.4492 43.0352C96.9414 43.1602 97.4453 43.2227 97.9609 43.2227C98.5703 43.2227 99.0977 43.1367 99.543 42.9648C99.9883 42.793 100.332 42.5469 100.574 42.2266C100.824 41.9062 100.949 41.5352 100.949 41.1133C100.949 40.6211 100.793 40.207 100.48 39.8711C100.168 39.5352 99.7578 39.2422 99.25 38.9922C98.75 38.7344 98.207 38.4883 97.6211 38.2539C97.0508 38.0195 96.4766 37.7656 95.8984 37.4922C95.3281 37.2109 94.8008 36.8789 94.3164 36.4961C93.8398 36.1133 93.4531 35.6484 93.1562 35.1016C92.8672 34.5469 92.7227 33.875 92.7227 33.0859C92.7227 32.0547 92.9805 31.1641 93.4961 30.4141C94.0195 29.6641 94.7344 29.0859 95.6406 28.6797C96.5469 28.2734 97.582 28.0703 98.7461 28.0703C99.5664 28.0703 100.418 28.1797 101.301 28.3984C102.191 28.6172 103.078 28.9492 103.961 29.3945L102.543 32.3125C101.988 31.9766 101.391 31.7109 100.75 31.5156C100.109 31.3203 99.5078 31.2227 98.9453 31.2227C98.4375 31.2227 97.9922 31.3008 97.6094 31.457C97.2344 31.6133 96.9414 31.832 96.7305 32.1133C96.5195 32.3867 96.4141 32.7109 96.4141 33.0859C96.4141 33.5312 96.5664 33.918 96.8711 34.2461C97.1758 34.5664 97.5703 34.8516 98.0547 35.1016C98.5469 35.3516 99.0742 35.6016 99.6367 35.8516C100.215 36.1016 100.797 36.375 101.383 36.6719C101.977 36.9688 102.516 37.3203 103 37.7266C103.492 38.125 103.887 38.6055 104.184 39.168C104.488 39.7227 104.641 40.3906 104.641 41.1719C104.641 42.2031 104.367 43.1094 103.82 43.8906C103.273 44.6641 102.512 45.2695 101.535 45.707C100.559 46.1367 99.4219 46.3516 98.125 46.3516C96.9375 46.3516 95.8008 46.1602 94.7148 45.7773C93.6289 45.3945 92.6172 44.8359 91.6797 44.1016Z" fill="#FFE8EE"/>
<path d="M2.42969 20H0.429688V22H2.42969V20ZM2.42969 2.42188V0.421875H0.429688V2.42188H2.42969ZM13.3281 3.62891L12.1035 5.21017L12.1101 5.21527L12.1168 5.22031L13.3281 3.62891ZM14.2773 9.33594L15.98 10.3853L15.9854 10.3765L14.2773 9.33594ZM12.6016 10.8711L11.7071 9.08224L7.17745 11.3471L12.0324 12.7884L12.6016 10.8711ZM14.9336 12.4062L13.3439 13.6199L13.3512 13.6294L13.3586 13.6389L14.9336 12.4062ZM15.0391 17.668L13.3723 16.5626L13.3695 16.5668L15.0391 17.668ZM12.9766 19.3906L13.8126 21.2075L13.8197 21.2042L12.9766 19.3906ZM6.03906 9.78125H4.03906V11.7812H6.03906V9.78125ZM10.6328 6.13672L9.38342 7.69846L9.39768 7.70986L9.41214 7.721L10.6328 6.13672ZM6.03906 5.57422V3.57422H4.03906V5.57422H6.03906ZM6.03906 16.8477H4.03906V18.8477H6.03906V16.8477ZM10.6211 16.5781L11.337 18.4456L11.3505 18.4404L11.3639 18.4351L10.6211 16.5781ZM11.6992 15.793L10.0992 14.593L10.0948 14.5989L11.6992 15.793ZM11.7344 13.4375L10.1015 14.5924L10.1108 14.6056L10.1203 14.6185L11.7344 13.4375ZM10.7383 12.7109L10.007 14.5724L10.0215 14.5781L10.036 14.5836L10.7383 12.7109ZM6.03906 12.4531V10.4531H4.03906V12.4531H6.03906ZM2.42969 20H4.42969V2.42188H2.42969H0.429688V20H2.42969ZM2.42969 2.42188V4.42188H8.93359V2.42188V0.421875H2.42969V2.42188ZM8.93359 2.42188V4.42188C10.5694 4.42188 11.5395 4.77333 12.1035 5.21017L13.3281 3.62891L14.5527 2.04764C13.0387 0.875106 11.079 0.421875 8.93359 0.421875V2.42188ZM13.3281 3.62891L12.1168 5.22031C12.6129 5.59799 12.8984 6.10051 12.8984 6.99219H14.8984H16.8984C16.8984 4.99324 16.1371 3.25358 14.5395 2.0375L13.3281 3.62891ZM14.8984 6.99219H12.8984C12.8984 7.54923 12.772 7.96269 12.5693 8.29542L14.2773 9.33594L15.9854 10.3765C16.6108 9.34981 16.8984 8.20077 16.8984 6.99219H14.8984ZM14.2773 9.33594L12.5747 8.28664C12.3551 8.6429 12.0759 8.89786 11.7071 9.08224L12.6016 10.8711L13.496 12.6599C14.5335 12.1412 15.3714 11.3727 15.98 10.3852L14.2773 9.33594ZM12.6016 10.8711L12.0324 12.7884C12.6859 12.9824 13.0816 13.2763 13.3439 13.6199L14.9336 12.4062L16.5233 11.1926C15.6762 10.083 14.5172 9.35352 13.1708 8.9538L12.6016 10.8711ZM14.9336 12.4062L13.3586 13.6389C13.6061 13.9551 13.7773 14.3858 13.7773 15.0547H15.7773H17.7773C17.7773 13.6299 17.3861 12.2949 16.5086 11.1736L14.9336 12.4062ZM15.7773 15.0547H13.7773C13.7773 15.7115 13.6211 16.1874 13.3723 16.5626L15.0391 17.668L16.7059 18.7733C17.4414 17.6641 17.7773 16.3979 17.7773 15.0547H15.7773ZM15.0391 17.668L13.3695 16.5668C13.1124 16.9566 12.7281 17.3005 12.1334 17.577L12.9766 19.3906L13.8197 21.2042C15.0062 20.6526 15.997 19.8481 16.7086 18.7692L15.0391 17.668ZM12.9766 19.3906L12.1405 17.5738C11.573 17.8349 10.8309 18 9.85938 18V20V22C11.2785 22 12.6145 21.7588 13.8126 21.2075L12.9766 19.3906ZM9.85938 20V18H2.42969V20V22H9.85938V20ZM6.03906 9.78125V11.7812H8.73438V9.78125V7.78125H6.03906V9.78125ZM8.73438 9.78125V11.7812C9.84744 11.7812 10.9811 11.5144 11.9096 10.7561L10.6445 9.20703L9.37946 7.65797C9.37046 7.66532 9.23068 7.78125 8.73438 7.78125V9.78125ZM10.6445 9.20703L11.9096 10.7561C12.8865 9.95833 13.3477 8.84739 13.3477 7.64844H11.3477H9.34766C9.34766 7.69345 9.34365 7.71725 9.3423 7.72401C9.34109 7.73005 9.34195 7.72302 9.3488 7.70783C9.35204 7.70065 9.35605 7.69294 9.36075 7.68514C9.36546 7.67735 9.37021 7.67056 9.37455 7.66499C9.38372 7.65322 9.38754 7.65137 9.37946 7.65797L10.6445 9.20703ZM11.3477 7.64844H13.3477C13.3477 6.43406 12.8573 5.32584 11.8535 4.55244L10.6328 6.13672L9.41214 7.721C9.41929 7.72651 9.41256 7.7224 9.3995 7.70648C9.38604 7.69008 9.37214 7.66877 9.3609 7.64501C9.3498 7.62154 9.34578 7.60518 9.34496 7.60124C9.34431 7.59814 9.34766 7.61231 9.34766 7.64844H11.3477ZM10.6328 6.13672L11.8822 4.57498C10.9424 3.82316 9.79018 3.57422 8.67578 3.57422V5.57422V7.57422C8.94826 7.57422 9.12882 7.60521 9.23951 7.63702C9.34491 7.66732 9.38053 7.69614 9.38342 7.69846L10.6328 6.13672ZM8.67578 5.57422V3.57422H6.03906V5.57422V7.57422H8.67578V5.57422ZM6.03906 5.57422H4.03906V9.78125H6.03906H8.03906V5.57422H6.03906ZM6.03906 16.8477V18.8477H8.95703V16.8477V14.8477H6.03906V16.8477ZM8.95703 16.8477V18.8477C9.7778 18.8477 10.5863 18.7334 11.337 18.4456L10.6211 16.5781L9.90522 14.7106C9.71838 14.7823 9.41751 14.8477 8.95703 14.8477V16.8477ZM10.6211 16.5781L11.3639 18.4351C12.1047 18.1388 12.7917 17.675 13.3037 16.987L11.6992 15.793L10.0948 14.5989C10.0972 14.5956 10.0917 14.6049 10.0648 14.6245C10.0361 14.6454 9.97885 14.681 9.87831 14.7212L10.6211 16.5781ZM11.6992 15.793L13.2992 16.993C13.8314 16.2834 14.0859 15.4583 14.0859 14.5977H12.0859H10.0859C10.0859 14.6159 10.0847 14.6255 10.0843 14.6279C10.084 14.6301 10.0843 14.6272 10.0864 14.6207C10.0885 14.6141 10.0914 14.6071 10.0947 14.6007C10.098 14.5944 10.1001 14.5918 10.0992 14.593L11.6992 15.793ZM12.0859 14.5977H14.0859C14.0859 13.7825 13.8682 12.9668 13.3484 12.2565L11.7344 13.4375L10.1203 14.6185C10.1122 14.6074 10.1042 14.5945 10.0974 14.5807C10.0905 14.5668 10.0863 14.5553 10.084 14.5478C10.0792 14.5318 10.0859 14.5441 10.0859 14.5977H12.0859ZM11.7344 13.4375L13.3672 12.2826C12.8681 11.5769 12.1801 11.1156 11.4405 10.8383L10.7383 12.7109L10.036 14.5836C10.1079 14.6105 10.1356 14.6306 10.1368 14.6315C10.1375 14.6319 10.133 14.6287 10.1255 14.6212C10.118 14.6136 10.1096 14.6038 10.1015 14.5924L11.7344 13.4375ZM10.7383 12.7109L11.4696 10.8494C10.744 10.5644 9.96461 10.4531 9.17969 10.4531V12.4531V14.4531C9.59789 14.4531 9.85753 14.5137 10.007 14.5724L10.7383 12.7109ZM9.17969 12.4531V10.4531H6.03906V12.4531V14.4531H9.17969V12.4531ZM6.03906 12.4531H4.03906V16.8477H6.03906H8.03906V12.4531H6.03906ZM33.3203 2.42188H35.3203V0.421875H33.3203V2.42188ZM32.3945 16.5195L30.6057 15.6251L30.6012 15.6342L32.3945 16.5195ZM29.7578 19.3672L30.7552 21.1007L30.759 21.0986L29.7578 19.3672ZM21.5312 19.3672L20.5301 21.0986L20.539 21.1037L21.5312 19.3672ZM18.8828 16.5195L17.0894 17.4049L17.094 17.414L18.8828 16.5195ZM17.9688 2.42188V0.421875H15.9688V2.42188H17.9688ZM21.5781 2.42188H23.5781V0.421875H21.5781V2.42188ZM22.0352 14.7148L20.1603 15.4112L20.1632 15.419L20.1662 15.4268L22.0352 14.7148ZM23.4062 16.5781L22.2579 18.2156L22.2651 18.2206L22.2723 18.2256L23.4062 16.5781ZM27.8828 16.5781L29.0168 18.2256L29.024 18.2206L29.0312 18.2156L27.8828 16.5781ZM29.2422 14.7148L27.3732 14.0029L27.3702 14.0106L27.3673 14.0185L29.2422 14.7148ZM29.7109 2.42188V0.421875H27.7109V2.42188H29.7109ZM33.3203 2.42188H31.3203V12.0898H33.3203H35.3203V2.42188H33.3203ZM33.3203 12.0898H31.3203C31.3203 13.5726 31.0541 14.7282 30.6057 15.6251L32.3945 16.5195L34.1834 17.414C34.9693 15.8421 35.3203 14.0446 35.3203 12.0898H33.3203ZM32.3945 16.5195L30.6012 15.6342C30.1596 16.5287 29.5499 17.1771 28.7567 17.6358L29.7578 19.3672L30.759 21.0986C32.2626 20.2291 33.4107 18.9792 34.1879 17.4049L32.3945 16.5195ZM29.7578 19.3672L28.7604 17.6336C27.9827 18.0811 26.9717 18.3516 25.6445 18.3516V20.3516V22.3516C27.5205 22.3516 29.2517 21.9658 30.7552 21.1007L29.7578 19.3672ZM25.6445 20.3516V18.3516C24.3276 18.3516 23.3134 18.0821 22.5235 17.6307L21.5312 19.3672L20.539 21.1037C22.046 21.9648 23.774 22.3516 25.6445 22.3516V20.3516ZM21.5312 19.3672L22.5324 17.6358C21.7369 17.1758 21.1213 16.5243 20.6717 15.6251L18.8828 16.5195L17.094 17.414C17.8787 18.9835 19.0287 20.2304 20.5301 21.0986L21.5312 19.3672ZM18.8828 16.5195L20.6762 15.6342C20.2323 14.735 19.9688 13.5761 19.9688 12.0898H17.9688H15.9688C15.9688 14.0411 16.3146 15.8353 17.0894 17.4049L18.8828 16.5195ZM17.9688 12.0898H19.9688V2.42188H17.9688H15.9688V12.0898H17.9688ZM17.9688 2.42188V4.42188H21.5781V2.42188V0.421875H17.9688V2.42188ZM21.5781 2.42188H19.5781V11.6445H21.5781H23.5781V2.42188H21.5781ZM21.5781 11.6445H19.5781C19.5781 13.0206 19.7469 14.2981 20.1603 15.4112L22.0352 14.7148L23.91 14.0185C23.7141 13.4909 23.5781 12.7216 23.5781 11.6445H21.5781ZM22.0352 14.7148L20.1662 15.4268C20.5928 16.5467 21.2697 17.5225 22.2579 18.2156L23.4062 16.5781L24.5546 14.9407C24.3397 14.79 24.1025 14.5236 23.9041 14.0029L22.0352 14.7148ZM23.4062 16.5781L22.2723 18.2256C23.2746 18.9155 24.439 19.1992 25.6445 19.1992V17.1992V15.1992C25.0688 15.1992 24.741 15.0689 24.5402 14.9307L23.4062 16.5781ZM25.6445 17.1992V19.1992C26.85 19.1992 28.0144 18.9155 29.0168 18.2256L27.8828 16.5781L26.7488 14.9307C26.5481 15.0689 26.2203 15.1992 25.6445 15.1992V17.1992ZM27.8828 16.5781L29.0312 18.2156C30.024 17.5193 30.6987 16.5375 31.117 15.4112L29.2422 14.7148L27.3673 14.0185C27.1763 14.5328 26.9447 14.7932 26.7345 14.9407L27.8828 16.5781ZM29.2422 14.7148L31.1112 15.4268C31.5373 14.3083 31.7109 13.0249 31.7109 11.6445H29.7109H27.7109C27.7109 12.7173 27.5721 13.4808 27.3732 14.0029L29.2422 14.7148ZM29.7109 11.6445H31.7109V2.42188H29.7109H27.7109V11.6445H29.7109ZM29.7109 2.42188V4.42188H33.3203V2.42188V0.421875H29.7109V2.42188ZM36.1797 20H34.1797V22H36.1797V20ZM36.1797 2.42188V0.421875H34.1797V2.42188H36.1797ZM47.0781 3.62891L45.8535 5.21017L45.8601 5.21527L45.8668 5.22031L47.0781 3.62891ZM48.0273 9.33594L49.73 10.3853L49.7354 10.3765L48.0273 9.33594ZM46.3516 10.8711L45.4571 9.08224L40.9274 11.3471L45.7824 12.7884L46.3516 10.8711ZM48.6836 12.4062L47.0939 13.6199L47.1012 13.6294L47.1086 13.6389L48.6836 12.4062ZM48.7891 17.668L47.1223 16.5626L47.1195 16.5668L48.7891 17.668ZM46.7266 19.3906L47.5626 21.2075L47.5697 21.2042L46.7266 19.3906ZM39.7891 9.78125H37.7891V11.7812H39.7891V9.78125ZM44.3828 6.13672L43.1334 7.69846L43.1477 7.70986L43.1621 7.721L44.3828 6.13672ZM39.7891 5.57422V3.57422H37.7891V5.57422H39.7891ZM39.7891 16.8477H37.7891V18.8477H39.7891V16.8477ZM44.3711 16.5781L45.087 18.4456L45.1005 18.4404L45.1139 18.4351L44.3711 16.5781ZM45.4492 15.793L43.8492 14.593L43.8448 14.5989L45.4492 15.793ZM45.4844 13.4375L43.8515 14.5924L43.8608 14.6056L43.8703 14.6185L45.4844 13.4375ZM44.4883 12.7109L43.757 14.5724L43.7715 14.5781L43.786 14.5836L44.4883 12.7109ZM39.7891 12.4531V10.4531H37.7891V12.4531H39.7891ZM36.1797 20H38.1797V2.42188H36.1797H34.1797V20H36.1797ZM36.1797 2.42188V4.42188H42.6836V2.42188V0.421875H36.1797V2.42188ZM42.6836 2.42188V4.42188C44.3194 4.42188 45.2895 4.77333 45.8535 5.21017L47.0781 3.62891L48.3027 2.04764C46.7887 0.875106 44.829 0.421875 42.6836 0.421875V2.42188ZM47.0781 3.62891L45.8668 5.22031C46.3629 5.59799 46.6484 6.10051 46.6484 6.99219H48.6484H50.6484C50.6484 4.99324 49.8871 3.25358 48.2895 2.0375L47.0781 3.62891ZM48.6484 6.99219H46.6484C46.6484 7.54923 46.522 7.96269 46.3193 8.29542L48.0273 9.33594L49.7354 10.3765C50.3608 9.34981 50.6484 8.20077 50.6484 6.99219H48.6484ZM48.0273 9.33594L46.3247 8.28664C46.1051 8.6429 45.8259 8.89786 45.4571 9.08224L46.3516 10.8711L47.246 12.6599C48.2835 12.1412 49.1214 11.3727 49.73 10.3852L48.0273 9.33594ZM46.3516 10.8711L45.7824 12.7884C46.4359 12.9824 46.8316 13.2763 47.0939 13.6199L48.6836 12.4062L50.2733 11.1926C49.4262 10.083 48.2672 9.35352 46.9208 8.9538L46.3516 10.8711ZM48.6836 12.4062L47.1086 13.6389C47.3561 13.9551 47.5273 14.3858 47.5273 15.0547H49.5273H51.5273C51.5273 13.6299 51.1361 12.2949 50.2586 11.1736L48.6836 12.4062ZM49.5273 15.0547H47.5273C47.5273 15.7115 47.3711 16.1874 47.1223 16.5626L48.7891 17.668L50.4559 18.7733C51.1914 17.6641 51.5273 16.3979 51.5273 15.0547H49.5273ZM48.7891 17.668L47.1195 16.5668C46.8624 16.9566 46.4781 17.3005 45.8834 17.577L46.7266 19.3906L47.5697 21.2042C48.7562 20.6526 49.747 19.8481 50.4586 18.7692L48.7891 17.668ZM46.7266 19.3906L45.8905 17.5738C45.323 17.8349 44.5809 18 43.6094 18V20V22C45.0285 22 46.3645 21.7588 47.5626 21.2075L46.7266 19.3906ZM43.6094 20V18H36.1797V20V22H43.6094V20ZM39.7891 9.78125V11.7812H42.4844V9.78125V7.78125H39.7891V9.78125ZM42.4844 9.78125V11.7812C43.5974 11.7812 44.7311 11.5144 45.6596 10.7561L44.3945 9.20703L43.1295 7.65797C43.1205 7.66532 42.9807 7.78125 42.4844 7.78125V9.78125ZM44.3945 9.20703L45.6596 10.7561C46.6365 9.95833 47.0977 8.84739 47.0977 7.64844H45.0977H43.0977C43.0977 7.69345 43.0936 7.71725 43.0923 7.72401C43.0911 7.73005 43.092 7.72302 43.0988 7.70783C43.102 7.70065 43.106 7.69294 43.1108 7.68514C43.1155 7.67735 43.1202 7.67056 43.1245 7.66499C43.1337 7.65322 43.1375 7.65137 43.1295 7.65797L44.3945 9.20703ZM45.0977 7.64844H47.0977C47.0977 6.43406 46.6073 5.32584 45.6035 4.55244L44.3828 6.13672L43.1621 7.721C43.1693 7.72651 43.1626 7.7224 43.1495 7.70648C43.136 7.69008 43.1221 7.66877 43.1109 7.64501C43.0998 7.62154 43.0958 7.60518 43.095 7.60124C43.0943 7.59814 43.0977 7.61231 43.0977 7.64844H45.0977ZM44.3828 6.13672L45.6322 4.57498C44.6924 3.82316 43.5402 3.57422 42.4258 3.57422V5.57422V7.57422C42.6983 7.57422 42.8788 7.60521 42.9895 7.63702C43.0949 7.66732 43.1305 7.69614 43.1334 7.69846L44.3828 6.13672ZM42.4258 5.57422V3.57422H39.7891V5.57422V7.57422H42.4258V5.57422ZM39.7891 5.57422H37.7891V9.78125H39.7891H41.7891V5.57422H39.7891ZM39.7891 16.8477V18.8477H42.707V16.8477V14.8477H39.7891V16.8477ZM42.707 16.8477V18.8477C43.5278 18.8477 44.3363 18.7334 45.087 18.4456L44.3711 16.5781L43.6552 14.7106C43.4684 14.7823 43.1675 14.8477 42.707 14.8477V16.8477ZM44.3711 16.5781L45.1139 18.4351C45.8547 18.1388 46.5417 17.675 47.0537 16.987L45.4492 15.793L43.8448 14.5989C43.8472 14.5956 43.8417 14.6049 43.8148 14.6245C43.7861 14.6454 43.7289 14.681 43.6283 14.7212L44.3711 16.5781ZM45.4492 15.793L47.0492 16.993C47.5814 16.2834 47.8359 15.4583 47.8359 14.5977H45.8359H43.8359C43.8359 14.6159 43.8347 14.6255 43.8343 14.6279C43.834 14.6301 43.8343 14.6272 43.8364 14.6207C43.8385 14.6141 43.8414 14.6071 43.8447 14.6007C43.848 14.5944 43.8501 14.5918 43.8492 14.593L45.4492 15.793ZM45.8359 14.5977H47.8359C47.8359 13.7825 47.6182 12.9668 47.0984 12.2565L45.4844 13.4375L43.8703 14.6185C43.8622 14.6074 43.8542 14.5945 43.8474 14.5807C43.8405 14.5668 43.8363 14.5553 43.834 14.5478C43.8292 14.5318 43.8359 14.5441 43.8359 14.5977H45.8359ZM45.4844 13.4375L47.1172 12.2826C46.6181 11.5769 45.9301 11.1156 45.1905 10.8383L44.4883 12.7109L43.786 14.5836C43.8579 14.6105 43.8856 14.6306 43.8868 14.6315C43.8875 14.6319 43.883 14.6287 43.8755 14.6212C43.868 14.6136 43.8596 14.6038 43.8515 14.5924L45.4844 13.4375ZM44.4883 12.7109L45.2196 10.8494C44.494 10.5644 43.7146 10.4531 42.9297 10.4531V12.4531V14.4531C43.3479 14.4531 43.6075 14.5137 43.757 14.5724L44.4883 12.7109ZM42.9297 12.4531V10.4531H39.7891V12.4531V14.4531H42.9297V12.4531ZM39.7891 12.4531H37.7891V16.8477H39.7891H41.7891V12.4531H39.7891ZM63.2031 20V22H65.2031V20H63.2031ZM51.7188 20H49.7188V22H51.7188V20ZM51.7188 2.42188V0.421875H49.7188V2.42188H51.7188ZM55.3281 2.42188H57.3281V0.421875H55.3281V2.42188ZM55.3281 16.8477H53.3281V18.8477H55.3281V16.8477ZM63.2031 16.8477H65.2031V14.8477H63.2031V16.8477ZM63.2031 20V18H51.7188V20V22H63.2031V20ZM51.7188 20H53.7188V2.42188H51.7188H49.7188V20H51.7188ZM51.7188 2.42188V4.42188H55.3281V2.42188V0.421875H51.7188V2.42188ZM55.3281 2.42188H53.3281V16.8477H55.3281H57.3281V2.42188H55.3281ZM55.3281 16.8477V18.8477H63.2031V16.8477V14.8477H55.3281V16.8477ZM63.2031 16.8477H61.2031V20H63.2031H65.2031V16.8477H63.2031ZM65.125 20H63.125V22H65.125V20ZM65.125 2.42188V0.421875H63.125V2.42188H65.125ZM68.7344 2.42188H70.7344V0.421875H68.7344V2.42188ZM68.7344 20V22H70.7344V20H68.7344ZM65.125 20H67.125V2.42188H65.125H63.125V20H65.125ZM65.125 2.42188V4.42188H68.7344V2.42188V0.421875H65.125V2.42188ZM68.7344 2.42188H66.7344V20H68.7344H70.7344V2.42188H68.7344ZM68.7344 20V18H65.125V20V22H68.7344V20ZM75.2031 20V22H77.2031V20H75.2031ZM71.5938 20H69.5938V22H71.5938V20ZM71.5938 2.42188V0.421875H69.5938V2.42188H71.5938ZM75.2031 2.42188H77.2031V0.421875H75.2031V2.42188ZM75.2031 11.0703H73.2031V17.5539L76.8556 12.197L75.2031 11.0703ZM77.0312 8.5625L78.5888 9.81716L78.5932 9.81162L78.5976 9.80605L77.0312 8.5625ZM81.9062 2.42188V0.421875H80.9404L80.3399 1.17833L81.9062 2.42188ZM86.1602 2.42188L87.7259 3.66629L90.3045 0.421875H86.1602V2.42188ZM79.7148 10.5312L78.1491 9.28683L77.1495 10.5446L78.1621 11.7919L79.7148 10.5312ZM87.4023 20V22H91.6023L88.955 18.7394L87.4023 20ZM82.7266 20L81.1719 21.2582L81.7722 22H82.7266V20ZM77.4062 13.4258L78.9609 12.1676L77.3906 10.2272L75.8394 12.1829L77.4062 13.4258ZM75.2031 16.2031L73.6362 14.9602L73.2031 15.5062V16.2031H75.2031ZM75.2031 20V18H71.5938V20V22H75.2031V20ZM71.5938 20H73.5938V2.42188H71.5938H69.5938V20H71.5938ZM71.5938 2.42188V4.42188H75.2031V2.42188V0.421875H71.5938V2.42188ZM75.2031 2.42188H73.2031V11.0703H75.2031H77.2031V2.42188H75.2031ZM75.2031 11.0703L76.8556 12.197C77.1964 11.6972 77.5194 11.2391 77.8247 10.8221L76.2109 9.64062L74.5972 8.45915C74.2619 8.91714 73.913 9.41222 73.5507 9.94364L75.2031 11.0703ZM76.2109 9.64062L77.8247 10.8221C78.1348 10.3985 78.3885 10.0658 78.5888 9.81716L77.0312 8.5625L75.4737 7.30784C75.2209 7.62169 74.9277 8.00778 74.5972 8.45915L76.2109 9.64062ZM77.0312 8.5625L78.5976 9.80605L83.4726 3.66542L81.9062 2.42188L80.3399 1.17833L75.4649 7.31895L77.0312 8.5625ZM81.9062 2.42188V4.42188H86.1602V2.42188V0.421875H81.9062V2.42188ZM86.1602 2.42188L84.5945 1.17746L78.1491 9.28683L79.7148 10.5312L81.2805 11.7757L87.7259 3.66629L86.1602 2.42188ZM79.7148 10.5312L78.1621 11.7919L85.8496 21.2606L87.4023 20L88.955 18.7394L81.2675 9.27064L79.7148 10.5312ZM87.4023 20V18H82.7266V20V22H87.4023V20ZM82.7266 20L84.2812 18.7418L78.9609 12.1676L77.4062 13.4258L75.8516 14.6839L81.1719 21.2582L82.7266 20ZM77.4062 13.4258L75.8394 12.1829L73.6362 14.9602L75.2031 16.2031L76.77 17.4461L78.9731 14.6687L77.4062 13.4258ZM75.2031 16.2031H73.2031V20H75.2031H77.2031V16.2031H75.2031ZM2.42969 46H0.429688V48H2.42969V46ZM2.42969 28.4219V26.4219H0.429688V28.4219H2.42969ZM17.3125 41.875L18.9903 42.9636L18.9932 42.959L17.3125 41.875ZM6.03906 42.8477H4.03906V44.8477H6.03906V42.8477ZM11.8867 42.1914L12.7044 44.0166L12.7111 44.0136L11.8867 42.1914ZM14.125 40.2695L12.4184 39.2266L12.4157 39.2312L14.125 40.2695ZM14.125 34.1523L12.4156 35.1907L12.4228 35.2023L14.125 34.1523ZM11.8867 32.2422L11.0569 34.0619L11.0657 34.0659L11.0744 34.0698L11.8867 32.2422ZM6.03906 31.5742V29.5742H4.03906V31.5742H6.03906ZM2.42969 46H4.42969V28.4219H2.42969H0.429688V46H2.42969ZM2.42969 28.4219V30.4219H8.18359V28.4219V26.4219H2.42969V28.4219ZM8.18359 28.4219V30.4219C10.0867 30.4219 11.6276 30.7439 12.8639 31.3154L13.7031 29.5L14.5424 27.6846C12.6692 26.8186 10.5305 26.4219 8.18359 26.4219V28.4219ZM13.7031 29.5L12.8639 31.3154C14.1097 31.8914 15.0078 32.6692 15.6347 33.6354L17.3125 32.5469L18.9903 31.4583C17.9141 29.7996 16.4059 28.5461 14.5424 27.6846L13.7031 29.5ZM17.3125 32.5469L15.6347 33.6354C16.2461 34.5778 16.5898 35.7416 16.5898 37.2109H18.5898H20.5898C20.5898 35.0865 20.082 33.141 18.9903 31.4583L17.3125 32.5469ZM18.5898 37.2109H16.5898C16.5898 38.6703 16.2471 39.837 15.6318 40.791L17.3125 41.875L18.9932 42.959C20.0811 41.2724 20.5898 39.3297 20.5898 37.2109H18.5898ZM17.3125 41.875L15.6347 40.7864C15.0078 41.7527 14.1097 42.5305 12.8639 43.1065L13.7031 44.9219L14.5424 46.7373C16.4059 45.8757 17.9141 44.6223 18.9903 42.9636L17.3125 41.875ZM13.7031 44.9219L12.8639 43.1065C11.6276 43.678 10.0867 44 8.18359 44V46V48C10.5305 48 12.6692 47.6032 14.5424 46.7373L13.7031 44.9219ZM8.18359 46V44H2.42969V46V48H8.18359V46ZM6.03906 42.8477V44.8477H8.3125V42.8477V40.8477H6.03906V42.8477ZM8.3125 42.8477V44.8477C9.91612 44.8477 11.4034 44.5995 12.7044 44.0166L11.8867 42.1914L11.069 40.3662C10.417 40.6583 9.52138 40.8477 8.3125 40.8477V42.8477ZM11.8867 42.1914L12.7111 44.0136C14.0226 43.4203 15.0955 42.5241 15.8343 41.3079L14.125 40.2695L12.4157 39.2312C12.1389 39.6868 11.7196 40.0719 11.0624 40.3692L11.8867 42.1914ZM14.125 40.2695L15.8316 41.3124C16.5757 40.0948 16.8984 38.6971 16.8984 37.2109H14.8984H12.8984C12.8984 38.1154 12.7056 38.7568 12.4184 39.2266L14.125 40.2695ZM14.8984 37.2109H16.8984C16.8984 35.7205 16.5771 34.3181 15.8272 33.1024L14.125 34.1523L12.4228 35.2023C12.7041 35.6584 12.8984 36.2952 12.8984 37.2109H14.8984ZM14.125 34.1523L15.8343 33.114C15.0935 31.8945 14.0164 31.0001 12.699 30.4146L11.8867 32.2422L11.0744 34.0698C11.7258 34.3593 12.1408 34.7383 12.4157 35.1907L14.125 34.1523ZM11.8867 32.2422L12.7165 30.4225C11.4119 29.8276 9.92015 29.5742 8.3125 29.5742V31.5742V33.5742C9.51735 33.5742 10.4084 33.7662 11.0569 34.0619L11.8867 32.2422ZM8.3125 31.5742V29.5742H6.03906V31.5742V33.5742H8.3125V31.5742ZM6.03906 31.5742H4.03906V42.8477H6.03906H8.03906V31.5742H6.03906ZM25.7969 45.6719L25.0386 47.5226L25.0463 47.5257L25.0541 47.5288L25.7969 45.6719ZM22.8555 43.75L21.4413 45.1642L21.4479 45.1709L21.4547 45.1775L22.8555 43.75ZM20.9219 40.8438L19.0703 41.6L19.075 41.6111L20.9219 40.8438ZM20.9219 33.5781L19.073 32.8153L19.0704 32.8219L20.9219 33.5781ZM22.8555 30.6719L24.263 32.0928L24.263 32.0927L22.8555 30.6719ZM25.7969 28.75L25.0541 26.893L25.0497 26.8948L25.7969 28.75ZM33.1914 28.7617L32.4331 30.6124L32.4442 30.6169L33.1914 28.7617ZM36.1094 30.6719L34.6951 32.0861L34.7019 32.0928L36.1094 30.6719ZM38.043 40.8555L36.1941 40.0927L36.1915 40.0992L38.043 40.8555ZM33.1914 45.6719L33.9386 47.5271L33.9497 47.5226L33.1914 45.6719ZM31.6914 42.7422L30.8733 40.9172L30.8654 40.9207L31.6914 42.7422ZM33.4609 41.4766L34.9273 42.8367L34.9322 42.8314L34.937 42.8261L33.4609 41.4766ZM34.6211 39.5781L32.7559 38.8561L32.7518 38.867L34.6211 39.5781ZM34.6211 34.8438L32.7493 35.5482L32.7526 35.557L32.756 35.5657L34.6211 34.8438ZM33.4609 32.9453L31.9849 34.2948L31.9897 34.3001L31.9946 34.3054L33.4609 32.9453ZM31.6914 31.6797L30.8654 33.5011L30.8781 33.5069L30.8909 33.5125L31.6914 31.6797ZM27.2852 31.6797L28.0935 33.5091L28.1033 33.5047L27.2852 31.6797ZM25.5156 32.9453L24.05 31.5844L24.0493 31.5852L25.5156 32.9453ZM24.3438 34.8438L22.4786 34.1218L22.4752 34.1305L22.4719 34.1393L24.3438 34.8438ZM24.3438 39.5781L22.4719 40.2826L22.4752 40.2914L22.4786 40.3001L24.3438 39.5781ZM25.5156 41.4883L24.0396 42.8378L24.0496 42.8488L24.0598 42.8597L25.5156 41.4883ZM27.2852 42.7539L26.4591 44.5754L26.4718 44.5811L26.4846 44.5867L27.2852 42.7539ZM29.5 46.3516V44.3516C28.3943 44.3516 27.4147 44.1649 26.5397 43.8149L25.7969 45.6719L25.0541 47.5288C26.4447 48.0851 27.9339 48.3516 29.5 48.3516V46.3516ZM25.7969 45.6719L26.5551 43.8212C25.6604 43.4546 24.9004 42.9546 24.2563 42.3225L22.8555 43.75L21.4547 45.1775C22.4824 46.186 23.6833 46.9673 25.0386 47.5226L25.7969 45.6719ZM22.8555 43.75L24.2697 42.3358C23.6316 41.6977 23.1319 40.9503 22.7688 40.0764L20.9219 40.8438L19.075 41.6111C19.6337 42.956 20.4231 44.1461 21.4413 45.1642L22.8555 43.75ZM20.9219 40.8438L22.7734 40.0875C22.4273 39.2401 22.2422 38.2889 22.2422 37.2109H20.2422H18.2422C18.2422 38.758 18.5102 40.2286 19.0704 41.6L20.9219 40.8438ZM20.2422 37.2109H22.2422C22.2422 36.133 22.4273 35.1817 22.7734 34.3344L20.9219 33.5781L19.0704 32.8219C18.5102 34.1933 18.2422 35.6639 18.2422 37.2109H20.2422ZM20.9219 33.5781L22.7707 34.3409C23.1337 33.4611 23.6314 32.7184 24.263 32.0928L22.8555 30.6719L21.448 29.251C20.4233 30.266 19.6319 31.4608 19.0731 32.8153L20.9219 33.5781ZM22.8555 30.6719L24.263 32.0927C24.9041 31.4576 25.6582 30.962 26.5441 30.6052L25.7969 28.75L25.0497 26.8948C23.6856 27.4442 22.4787 28.2299 21.4479 29.251L22.8555 30.6719ZM25.7969 28.75L26.5397 30.607C27.4147 30.2569 28.3943 30.0703 29.5 30.0703V28.0703V26.0703C27.9339 26.0703 26.4447 26.3368 25.0541 26.893L25.7969 28.75ZM29.5 28.0703V30.0703C30.6017 30.0703 31.5716 30.2594 32.4331 30.6124L33.1914 28.7617L33.9497 26.911C32.5613 26.3422 31.0702 26.0703 29.5 26.0703V28.0703ZM33.1914 28.7617L32.4442 30.6169C33.331 30.9741 34.0739 31.4648 34.6952 32.0861L36.1094 30.6719L37.5236 29.2577C36.5043 28.2383 35.3018 27.4556 33.9386 26.9065L33.1914 28.7617ZM36.1094 30.6719L34.7019 32.0928C35.3359 32.7208 35.8336 33.4616 36.196 34.3338L38.043 33.5664L39.8899 32.799C39.3304 31.4525 38.5391 30.2636 37.5169 29.251L36.1094 30.6719ZM38.043 33.5664L36.196 34.3338C36.5463 35.1769 36.7344 36.1278 36.7344 37.2109H38.7344H40.7344C40.7344 35.6534 40.4615 34.1747 39.8899 32.799L38.043 33.5664ZM38.7344 37.2109H36.7344C36.7344 38.2844 36.547 39.2375 36.1941 40.0927L38.043 40.8555L39.8918 41.6183C40.4608 40.239 40.7344 38.7625 40.7344 37.2109H38.7344ZM38.043 40.8555L36.1915 40.0992C35.8372 40.9666 35.3451 41.7036 34.7136 42.3291L36.1211 43.75L37.5286 45.1709C38.5534 44.1558 39.3425 42.9631 39.8945 41.6117L38.043 40.8555ZM36.1211 43.75L34.7136 42.3291C34.0796 42.9571 33.3263 43.4552 32.4331 43.8212L33.1914 45.6719L33.9497 47.5226C35.3065 46.9666 36.5063 46.1835 37.5286 45.1709L36.1211 43.75ZM33.1914 45.6719L32.4442 43.8167C31.5797 44.1649 30.6059 44.3516 29.5 44.3516V46.3516V48.3516C31.0659 48.3516 32.5531 48.0851 33.9386 47.527L33.1914 45.6719ZM29.5 43.1992V45.1992C30.5538 45.1992 31.5683 44.9941 32.5174 44.5636L31.6914 42.7422L30.8654 40.9207C30.4707 41.0997 30.0243 41.1992 29.5 41.1992V43.1992ZM31.6914 42.7422L32.5095 44.5672C33.431 44.1541 34.2422 43.5753 34.9273 42.8367L33.4609 41.4766L31.9946 40.1165C31.6797 40.456 31.3112 40.7209 30.8733 40.9172L31.6914 42.7422ZM33.4609 41.4766L34.937 42.8261C35.6136 42.0861 36.1307 41.2346 36.4904 40.2893L34.6211 39.5781L32.7518 38.867C32.5646 39.3591 32.3083 39.7733 31.9849 40.127L33.4609 41.4766ZM34.6211 39.5781L36.4862 40.3001C36.8646 39.3227 37.043 38.2864 37.043 37.2109H35.043H33.043C33.043 37.8386 32.9401 38.3804 32.756 38.8561L34.6211 39.5781ZM35.043 37.2109H37.043C37.043 36.1355 36.8646 35.0991 36.4862 34.1218L34.6211 34.8438L32.756 35.5657C32.9401 36.0415 33.043 36.5833 33.043 37.2109H35.043ZM34.6211 34.8438L36.4929 34.1393C36.1333 33.1837 35.6134 32.325 34.9273 31.5852L33.4609 32.9453L31.9946 34.3054C32.3085 34.6438 32.562 35.0507 32.7493 35.5482L34.6211 34.8438ZM33.4609 32.9453L34.937 31.5958C34.2479 30.8421 33.4279 30.2557 32.4919 29.8469L31.6914 31.6797L30.8909 33.5125C31.3143 33.6974 31.6739 33.9548 31.9849 34.2948L33.4609 32.9453ZM31.6914 31.6797L32.5174 29.8582C31.5683 29.4278 30.5538 29.2227 29.5 29.2227V31.2227V33.2227C30.0243 33.2227 30.4707 33.3222 30.8654 33.5011L31.6914 31.6797ZM29.5 31.2227V29.2227C28.4411 29.2227 27.4217 29.4267 26.467 29.8547L27.2852 31.6797L28.1033 33.5047C28.508 33.3233 28.9651 33.2227 29.5 33.2227V31.2227ZM27.2852 31.6797L26.4768 29.8503C25.5523 30.2588 24.7398 30.8416 24.05 31.5844L25.5156 32.9453L26.9812 34.3062C27.3071 33.9553 27.6743 33.6943 28.0935 33.5091L27.2852 31.6797ZM25.5156 32.9453L24.0493 31.5852C23.3671 32.3207 22.8457 33.1734 22.4786 34.1218L24.3438 34.8438L26.2089 35.5657C26.4043 35.0609 26.6642 34.648 26.982 34.3054L25.5156 32.9453ZM24.3438 34.8438L22.4719 34.1393C22.1059 35.1119 21.9336 36.1421 21.9336 37.2109H23.9336H25.9336C25.9336 36.5767 26.0347 36.0287 26.2156 35.5482L24.3438 34.8438ZM23.9336 37.2109H21.9336C21.9336 38.2798 22.1059 39.31 22.4719 40.2826L24.3438 39.5781L26.2156 38.8737C26.0347 38.3931 25.9336 37.8452 25.9336 37.2109H23.9336ZM24.3438 39.5781L22.4786 40.3001C22.8448 41.2461 23.3635 42.0984 24.0396 42.8378L25.5156 41.4883L26.9917 40.1387C26.6677 39.7844 26.4052 39.3632 26.2089 38.8561L24.3438 39.5781ZM25.5156 41.4883L24.0598 42.8597C24.7456 43.5876 25.5491 44.1627 26.4591 44.5754L27.2852 42.7539L28.1112 40.9324C27.6775 40.7358 27.3013 40.4671 26.9714 40.1169L25.5156 41.4883ZM27.2852 42.7539L26.4846 44.5867C27.4352 45.0019 28.4484 45.1992 29.5 45.1992V43.1992V41.1992C28.9579 41.1992 28.4945 41.0997 28.0857 40.9211L27.2852 42.7539ZM56.957 46V48H58.957V46H56.957ZM52.8086 46L51.1583 47.1298L51.754 48H52.8086V46ZM44.5938 34L46.2441 32.8702L42.5938 27.5379V34H44.5938ZM44.5938 46V48H46.5938V46H44.5938ZM40.9844 46H38.9844V48H40.9844V46ZM40.9844 28.4219V26.4219H38.9844V28.4219H40.9844ZM45.1328 28.4219L46.7842 27.2936L46.1886 26.4219H45.1328V28.4219ZM53.3477 40.4453L51.6963 41.5736L55.3477 46.9178V40.4453H53.3477ZM53.3477 28.4219V26.4219H51.3477V28.4219H53.3477ZM56.957 28.4219H58.957V26.4219H56.957V28.4219ZM56.957 46V44H52.8086V46V48H56.957V46ZM52.8086 46L54.4589 44.8702L46.2441 32.8702L44.5938 34L42.9434 35.1298L51.1583 47.1298L52.8086 46ZM44.5938 34H42.5938V46H44.5938H46.5938V34H44.5938ZM44.5938 46V44H40.9844V46V48H44.5938V46ZM40.9844 46H42.9844V28.4219H40.9844H38.9844V46H40.9844ZM40.9844 28.4219V30.4219H45.1328V28.4219V26.4219H40.9844V28.4219ZM45.1328 28.4219L43.4814 29.5501L51.6963 41.5736L53.3477 40.4453L54.999 39.317L46.7842 27.2936L45.1328 28.4219ZM53.3477 40.4453H55.3477V28.4219H53.3477H51.3477V40.4453H53.3477ZM53.3477 28.4219V30.4219H56.957V28.4219V26.4219H53.3477V28.4219ZM56.957 28.4219H54.957V46H56.957H58.957V28.4219H56.957ZM75.1797 28.4219H77.1797V26.4219H75.1797V28.4219ZM74.2539 42.5195L72.465 41.6251L72.4605 41.6342L74.2539 42.5195ZM71.6172 45.3672L72.6146 47.1007L72.6183 47.0986L71.6172 45.3672ZM63.3906 45.3672L62.3895 47.0986L62.3983 47.1037L63.3906 45.3672ZM60.7422 42.5195L58.9488 43.4049L58.9533 43.414L60.7422 42.5195ZM59.8281 28.4219V26.4219H57.8281V28.4219H59.8281ZM63.4375 28.4219H65.4375V26.4219H63.4375V28.4219ZM63.8945 40.7148L62.0197 41.4112L62.0226 41.419L62.0256 41.4268L63.8945 40.7148ZM65.2656 42.5781L64.1173 44.2156L64.1244 44.2206L64.1317 44.2256L65.2656 42.5781ZM69.7422 42.5781L70.8762 44.2256L70.8834 44.2206L70.8905 44.2156L69.7422 42.5781ZM71.1016 40.7148L69.2326 40.0029L69.2296 40.0107L69.2267 40.0185L71.1016 40.7148ZM71.5703 28.4219V26.4219H69.5703V28.4219H71.5703ZM75.1797 28.4219H73.1797V38.0898H75.1797H77.1797V28.4219H75.1797ZM75.1797 38.0898H73.1797C73.1797 39.5726 72.9135 40.7282 72.465 41.6251L74.2539 42.5195L76.0428 43.414C76.8287 41.8421 77.1797 40.0446 77.1797 38.0898H75.1797ZM74.2539 42.5195L72.4605 41.6342C72.019 42.5287 71.4093 43.1771 70.616 43.6358L71.6172 45.3672L72.6183 47.0986C74.1219 46.2291 75.2701 44.9792 76.0473 43.4049L74.2539 42.5195ZM71.6172 45.3672L70.6198 43.6336C69.8421 44.0811 68.8311 44.3516 67.5039 44.3516V46.3516V48.3516C69.3798 48.3516 71.111 47.9658 72.6146 47.1007L71.6172 45.3672ZM67.5039 46.3516V44.3516C66.187 44.3516 65.1728 44.0821 64.3829 43.6307L63.3906 45.3672L62.3983 47.1037C63.9053 47.9648 65.6333 48.3516 67.5039 48.3516V46.3516ZM63.3906 45.3672L64.3918 43.6358C63.5963 43.1758 62.9807 42.5243 62.531 41.6251L60.7422 42.5195L58.9533 43.414C59.7381 44.9835 60.8881 46.2304 62.3895 47.0986L63.3906 45.3672ZM60.7422 42.5195L62.5356 41.6342C62.0916 40.735 61.8281 39.5761 61.8281 38.0898H59.8281H57.8281C57.8281 40.0411 58.174 41.8353 58.9488 43.4049L60.7422 42.5195ZM59.8281 38.0898H61.8281V28.4219H59.8281H57.8281V38.0898H59.8281ZM59.8281 28.4219V30.4219H63.4375V28.4219V26.4219H59.8281V28.4219ZM63.4375 28.4219H61.4375V37.6445H63.4375H65.4375V28.4219H63.4375ZM63.4375 37.6445H61.4375C61.4375 39.0206 61.6063 40.2981 62.0197 41.4112L63.8945 40.7148L65.7694 40.0185C65.5734 39.4909 65.4375 38.7216 65.4375 37.6445H63.4375ZM63.8945 40.7148L62.0256 41.4268C62.4522 42.5467 63.129 43.5225 64.1173 44.2156L65.2656 42.5781L66.414 40.9407C66.1991 40.79 65.9619 40.5236 65.7635 40.0029L63.8945 40.7148ZM65.2656 42.5781L64.1317 44.2256C65.134 44.9155 66.2984 45.1992 67.5039 45.1992V43.1992V41.1992C66.9282 41.1992 66.6004 41.0689 66.3996 40.9307L65.2656 42.5781ZM67.5039 43.1992V45.1992C68.7094 45.1992 69.8738 44.9155 70.8762 44.2256L69.7422 42.5781L68.6082 40.9307C68.4074 41.0689 68.0797 41.1992 67.5039 41.1992V43.1992ZM69.7422 42.5781L70.8905 44.2156C71.8834 43.5193 72.5581 42.5375 72.9764 41.4112L71.1016 40.7148L69.2267 40.0185C69.0357 40.5328 68.8041 40.7932 68.5938 40.9407L69.7422 42.5781ZM71.1016 40.7148L72.9705 41.4268C73.3966 40.3083 73.5703 39.0249 73.5703 37.6445H71.5703H69.5703C69.5703 38.7173 69.4315 39.4808 69.2326 40.0029L71.1016 40.7148ZM71.5703 37.6445H73.5703V28.4219H71.5703H69.5703V37.6445H71.5703ZM71.5703 28.4219V30.4219H75.1797V28.4219V26.4219H71.5703V28.4219ZM85.6328 46V48H87.6328V46H85.6328ZM82.0234 46H80.0234V48H82.0234V46ZM82.0234 31.5742H84.0234V29.5742H82.0234V31.5742ZM76.8438 31.5742H74.8438V33.5742H76.8438V31.5742ZM76.8438 28.4219V26.4219H74.8438V28.4219H76.8438ZM90.8242 28.4219H92.8242V26.4219H90.8242V28.4219ZM90.8242 31.5742V33.5742H92.8242V31.5742H90.8242ZM85.6328 31.5742V29.5742H83.6328V31.5742H85.6328ZM85.6328 46V44H82.0234V46V48H85.6328V46ZM82.0234 46H84.0234V31.5742H82.0234H80.0234V46H82.0234ZM82.0234 31.5742V29.5742H76.8438V31.5742V33.5742H82.0234V31.5742ZM76.8438 31.5742H78.8438V28.4219H76.8438H74.8438V31.5742H76.8438ZM76.8438 28.4219V30.4219H90.8242V28.4219V26.4219H76.8438V28.4219ZM90.8242 28.4219H88.8242V31.5742H90.8242H92.8242V28.4219H90.8242ZM90.8242 31.5742V29.5742H85.6328V31.5742V33.5742H90.8242V31.5742ZM85.6328 31.5742H83.6328V46H85.6328H87.6328V31.5742H85.6328ZM91.6797 44.1016L89.9809 43.0461L89.0342 44.5698L90.4464 45.676L91.6797 44.1016ZM93.3906 41.3477L94.651 39.7947L92.8892 38.3649L91.6918 40.2922L93.3906 41.3477ZM94.9492 42.4258L93.9687 44.1689L93.9848 44.178L94.001 44.1867L94.9492 42.4258ZM96.4492 43.0352L95.9282 44.9661L95.9425 44.97L95.9569 44.9736L96.4492 43.0352ZM100.574 42.2266L98.9976 40.996L98.9882 41.0081L98.9789 41.0203L100.574 42.2266ZM99.25 38.9922L98.3334 40.7698L98.35 40.7783L98.3666 40.7865L99.25 38.9922ZM97.6211 38.2539L96.8609 40.1038L96.8696 40.1074L96.8783 40.1109L97.6211 38.2539ZM95.8984 37.4922L95.0139 39.2859L95.0285 39.2932L95.0433 39.3002L95.8984 37.4922ZM94.3164 36.4961L93.0639 38.0553L93.0701 38.0603L93.0763 38.0652L94.3164 36.4961ZM93.1562 35.1016L91.3826 36.0258L91.3905 36.0409L91.3985 36.0557L93.1562 35.1016ZM93.4961 30.4141L91.856 29.2694L91.848 29.281L93.4961 30.4141ZM101.301 28.3984L100.82 30.3397L100.824 30.3407L101.301 28.3984ZM103.961 29.3945L105.76 30.2687L106.621 28.4963L104.862 27.6088L103.961 29.3945ZM102.543 32.3125L101.507 34.0232L103.383 35.1595L104.342 33.1866L102.543 32.3125ZM97.6094 31.457L96.8536 29.6053L96.8469 29.6081L96.8401 29.6109L97.6094 31.457ZM96.7305 32.1133L98.314 33.3349L98.3223 33.3241L98.3305 33.3133L96.7305 32.1133ZM96.8711 34.2461L95.4055 35.607L95.4137 35.6158L95.422 35.6245L96.8711 34.2461ZM98.0547 35.1016L97.1374 36.8788L97.149 36.8847L98.0547 35.1016ZM99.6367 35.8516L98.8244 37.6792L98.8336 37.6833L98.8429 37.6873L99.6367 35.8516ZM101.383 36.6719L100.479 38.456L100.488 38.4607L101.383 36.6719ZM103 37.7266L101.715 39.2589L101.728 39.2701L101.742 39.2811L103 37.7266ZM104.184 39.168L102.415 40.1015L102.423 40.1162L102.431 40.1309L104.184 39.168ZM103.82 43.8906L105.453 45.0453L105.459 45.0375L103.82 43.8906ZM101.535 45.707L102.341 47.5377L102.353 47.5322L101.535 45.707ZM91.6797 44.1016L93.3785 45.157L95.0895 42.4031L93.3906 41.3477L91.6918 40.2922L89.9809 43.0461L91.6797 44.1016ZM93.3906 41.3477L92.1303 42.9006C92.7395 43.395 93.3523 43.8222 93.9687 44.1689L94.9492 42.4258L95.9297 40.6826C95.5462 40.4669 95.1199 40.1753 94.651 39.7947L93.3906 41.3477ZM94.9492 42.4258L94.001 44.1867C94.6268 44.5237 95.2696 44.7884 95.9282 44.9661L96.4492 43.0352L96.9703 41.1042C96.6444 41.0163 96.2872 40.8747 95.8974 40.6648L94.9492 42.4258ZM96.4492 43.0352L95.9569 44.9736C96.6125 45.1401 97.2819 45.2227 97.9609 45.2227V43.2227V41.2227C97.6088 41.2227 97.2703 41.1802 96.9415 41.0967L96.4492 43.0352ZM97.9609 43.2227V45.2227C98.7515 45.2227 99.5343 45.112 100.263 44.8307L99.543 42.9648L98.8228 41.099C98.661 41.1614 98.3892 41.2227 97.9609 41.2227V43.2227ZM99.543 42.9648L100.263 44.8307C100.99 44.5503 101.663 44.1021 102.17 43.4328L100.574 42.2266L98.9789 41.0203C98.9858 41.0112 98.987 41.0133 98.9705 41.0252C98.9523 41.0382 98.9078 41.0662 98.8228 41.099L99.543 42.9648ZM100.574 42.2266L102.151 43.4571C102.686 42.771 102.949 41.9627 102.949 41.1133H100.949H98.9492C98.9492 41.1239 98.9481 41.1051 98.9601 41.0696C98.9724 41.0332 98.989 41.007 98.9976 40.996L100.574 42.2266ZM100.949 41.1133H102.949C102.949 40.1559 102.628 39.2433 101.945 38.5089L100.48 39.8711L99.0161 41.2333C99.0108 41.2276 99.0009 41.2158 98.9895 41.1977C98.9782 41.1795 98.9683 41.1595 98.9608 41.1397C98.9448 41.0972 98.9492 41.0815 98.9492 41.1133H100.949ZM100.48 39.8711L101.945 38.5089C101.433 37.9585 100.81 37.5311 100.133 37.1978L99.25 38.9922L98.3666 40.7865C98.7054 40.9533 98.9031 41.1118 99.0161 41.2333L100.48 39.8711ZM99.25 38.9922L100.167 37.2146C99.6036 36.9243 99.002 36.6522 98.3639 36.397L97.6211 38.2539L96.8783 40.1109C97.4121 40.3244 97.8964 40.5444 98.3334 40.7698L99.25 38.9922ZM97.6211 38.2539L98.3813 36.404C97.8442 36.1833 97.3016 35.9434 96.7536 35.6842L95.8984 37.4922L95.0433 39.3002C95.6516 39.5878 96.2574 39.8558 96.8609 40.1038L97.6211 38.2539ZM95.8984 37.4922L96.783 35.6984C96.335 35.4775 95.9273 35.2201 95.5565 34.927L94.3164 36.4961L93.0763 38.0652C93.6742 38.5378 94.3213 38.9444 95.0139 39.2859L95.8984 37.4922ZM94.3164 36.4961L95.5689 34.9369C95.303 34.7233 95.0866 34.4654 94.914 34.1474L93.1562 35.1016L91.3985 36.0557C91.8197 36.8315 92.3767 37.5033 93.0639 38.0553L94.3164 36.4961ZM93.1562 35.1016L94.9299 34.1773C94.8234 33.9729 94.7227 33.6354 94.7227 33.0859H92.7227H90.7227C90.7227 34.1146 90.911 35.1208 91.3826 36.0258L93.1562 35.1016ZM92.7227 33.0859H94.7227C94.7227 32.4035 94.8875 31.9205 95.1442 31.5471L93.4961 30.4141L91.848 29.281C91.0735 30.4076 90.7227 31.7059 90.7227 33.0859H92.7227ZM93.4961 30.4141L95.1362 31.5587C95.4346 31.1311 95.8537 30.7759 96.4587 30.5047L95.6406 28.6797L94.8225 26.8547C93.6151 27.3959 92.6045 28.1971 91.856 29.2694L93.4961 30.4141ZM95.6406 28.6797L96.4587 30.5047C97.0672 30.232 97.816 30.0703 98.7461 30.0703V28.0703V26.0703C97.3481 26.0703 96.0266 26.3149 94.8225 26.8547L95.6406 28.6797ZM98.7461 28.0703V30.0703C99.3878 30.0703 100.077 30.1558 100.82 30.3397L101.301 28.3984L101.782 26.4571C100.758 26.2036 99.745 26.0703 98.7461 26.0703V28.0703ZM101.301 28.3984L100.824 30.3407C101.557 30.5207 102.302 30.7977 103.06 31.1802L103.961 29.3945L104.862 27.6088C103.854 27.1008 102.826 26.7136 101.778 26.4562L101.301 28.3984ZM103.961 29.3945L102.162 28.5204L100.744 31.4384L102.543 32.3125L104.342 33.1866L105.76 30.2687L103.961 29.3945ZM102.543 32.3125L103.579 30.6018C102.878 30.1771 102.127 29.8447 101.333 29.6026L100.75 31.5156L100.167 33.4287C100.654 33.5772 101.099 33.776 101.507 34.0232L102.543 32.3125ZM100.75 31.5156L101.333 29.6026C100.538 29.3603 99.7389 29.2227 98.9453 29.2227V31.2227V33.2227C99.2767 33.2227 99.6803 33.2804 100.167 33.4287L100.75 31.5156ZM98.9453 31.2227V29.2227C98.2357 29.2227 97.5243 29.3316 96.8536 29.6053L97.6094 31.457L98.3652 33.3087C98.4601 33.27 98.6393 33.2227 98.9453 33.2227V31.2227ZM97.6094 31.457L96.8401 29.6109C96.1875 29.8828 95.5871 30.3044 95.1305 30.9133L96.7305 32.1133L98.3305 33.3133C98.3243 33.3215 98.3181 33.3284 98.3128 33.3338C98.3074 33.339 98.3044 33.3413 98.305 33.3408C98.3059 33.3401 98.3264 33.3249 98.3786 33.3032L97.6094 31.457ZM96.7305 32.1133L95.1469 30.8917C94.6423 31.5458 94.4141 32.3093 94.4141 33.0859H96.4141H98.4141C98.4141 33.0858 98.4141 33.0861 98.4141 33.0859C98.4141 33.0858 98.4141 33.0861 98.4141 33.0859C98.4141 33.0859 98.4141 33.086 98.4141 33.086C98.4141 33.086 98.4141 33.086 98.4141 33.086C98.4141 33.0861 98.4141 33.0862 98.4141 33.0864C98.4141 33.0867 98.414 33.0871 98.414 33.0877C98.414 33.0889 98.4139 33.0906 98.4137 33.0929C98.4134 33.0974 98.4127 33.104 98.4115 33.1125C98.4089 33.1298 98.4039 33.153 98.3951 33.1802C98.3761 33.2387 98.3466 33.2927 98.314 33.3349L96.7305 32.1133ZM96.4141 33.0859H94.4141C94.4141 34.0392 94.7594 34.9112 95.4055 35.607L96.8711 34.2461L98.3367 32.8852C98.3409 32.8897 98.367 32.9208 98.3891 32.9769C98.4113 33.0332 98.4141 33.0757 98.4141 33.0859H96.4141ZM96.8711 34.2461L95.422 35.6245C95.9115 36.1392 96.4992 36.5494 97.1374 36.8788L98.0547 35.1016L98.972 33.3243C98.6414 33.1537 98.44 32.9936 98.3202 32.8677L96.8711 34.2461ZM98.0547 35.1016L97.149 36.8847C97.6752 37.152 98.2339 37.4167 98.8244 37.6792L99.6367 35.8516L100.449 34.0239C99.9145 33.7864 99.4186 33.5511 98.9604 33.3184L98.0547 35.1016ZM99.6367 35.8516L98.8429 37.6873C99.3823 37.9205 99.9276 38.1766 100.479 38.4559L101.383 36.6719L102.287 34.8878C101.666 34.5734 101.047 34.2826 100.431 34.0159L99.6367 35.8516ZM101.383 36.6719L100.488 38.4607C100.949 38.6912 101.356 38.9581 101.715 39.2589L103 37.7266L104.285 36.1942C103.675 35.6826 103.004 35.2463 102.277 34.883L101.383 36.6719ZM103 37.7266L101.742 39.2811C102.022 39.5084 102.244 39.7773 102.415 40.1015L104.184 39.168L105.952 38.2345C105.53 37.4336 104.962 36.7416 104.258 36.1721L103 37.7266ZM104.184 39.168L102.431 40.1309C102.539 40.329 102.641 40.6493 102.641 41.1719H104.641H106.641C106.641 40.132 106.437 39.1164 105.937 38.2051L104.184 39.168ZM104.641 41.1719H102.641C102.641 41.8279 102.474 42.3263 102.182 42.7437L103.82 43.8906L105.459 45.0375C106.26 43.8925 106.641 42.5783 106.641 41.1719H104.641ZM103.82 43.8906L102.187 42.736C101.873 43.1804 101.41 43.5714 100.717 43.8818L101.535 45.707L102.353 47.5322C103.613 46.9677 104.674 46.1477 105.453 45.0453L103.82 43.8906ZM101.535 45.707L100.73 43.8764C100.055 44.173 99.203 44.3516 98.125 44.3516V46.3516V48.3516C99.6408 48.3516 101.062 48.1004 102.341 47.5377L101.535 45.707ZM98.125 46.3516V44.3516C97.1568 44.3516 96.2454 44.1963 95.3798 43.8911L94.7148 45.7773L94.0499 47.6636C95.3561 48.124 96.7182 48.3516 98.125 48.3516V46.3516ZM94.7148 45.7773L95.3798 43.8911C94.506 43.5831 93.6852 43.132 92.913 42.5271L91.6797 44.1016L90.4464 45.676C91.5492 46.5399 92.7518 47.206 94.0499 47.6636L94.7148 45.7773Z" fill="#E53847" mask="url(#path-1-outside-1_142_470)"/>
</svg>
