<svg width="431" height="191" viewBox="0 0 431 191" fill="none" xmlns="http://www.w3.org/2000/svg">
<mask id="path-1-outside-1_4_526" maskUnits="userSpaceOnUse" x="0" y="0" width="431" height="191" fill="black">
<rect fill="white" width="431" height="191"/>
<path d="M45.9922 83.4648C40.4258 83.4648 35.2826 82.5208 30.5625 80.6328C25.875 78.7122 21.7897 76.043 18.3066 72.625C14.8561 69.1745 12.1706 65.138 10.25 60.5156C8.36198 55.8932 7.41797 50.8477 7.41797 45.3789C7.41797 39.9102 8.36198 34.8646 10.25 30.2422C12.1706 25.5872 14.8561 21.5508 18.3066 18.1328C21.7897 14.6823 25.875 12.013 30.5625 10.125C35.2826 8.23698 40.4258 7.29297 45.9922 7.29297C51.5586 7.29297 56.6855 8.25326 61.373 10.1738C66.0605 12.0618 70.1133 14.7148 73.5312 18.1328C76.9818 21.5508 79.6673 25.571 81.5879 30.1934C83.5085 34.8158 84.4688 39.8776 84.4688 45.3789C84.4688 50.8477 83.5085 55.9095 81.5879 60.5645C79.6999 65.1868 77.0306 69.207 73.5801 72.625C70.1296 76.043 66.0605 78.7122 61.373 80.6328C56.6855 82.5208 51.5586 83.4648 45.9922 83.4648ZM45.9922 70.3301C49.2799 70.3301 52.3236 69.6953 55.123 68.4258C57.9551 67.1562 60.4128 65.3984 62.4961 63.1523C64.5794 60.8737 66.1908 58.237 67.3301 55.2422C68.502 52.2148 69.0879 48.9271 69.0879 45.3789C69.0879 41.8307 68.502 38.543 67.3301 35.5156C66.1908 32.4883 64.5794 29.8516 62.4961 27.6055C60.4128 25.3268 57.9551 23.569 55.123 22.332C52.3236 21.0625 49.2799 20.4277 45.9922 20.4277C42.6719 20.4277 39.5957 21.0625 36.7637 22.332C33.9642 23.569 31.5065 25.3268 29.3906 27.6055C27.3073 29.8516 25.6797 32.4883 24.5078 35.5156C23.3685 38.543 22.7988 41.8307 22.7988 45.3789C22.7988 48.9271 23.3685 52.2148 24.5078 55.2422C25.6797 58.2695 27.3073 60.9225 29.3906 63.2012C31.5065 65.4473 33.9642 67.2051 36.7637 68.4746C39.5957 69.7116 42.6719 70.3301 45.9922 70.3301ZM157.809 8.75781V49.041C157.809 56.2025 156.523 62.3548 153.951 67.498C151.412 72.6413 147.75 76.5964 142.965 79.3633C138.212 82.0977 132.499 83.4648 125.826 83.4648C119.186 83.4648 113.473 82.0977 108.688 79.3633C103.902 76.5964 100.224 72.6413 97.6523 67.498C95.1133 62.3548 93.8438 56.2025 93.8438 49.041V8.75781H108.883V47.1855C108.883 52.2962 109.518 56.5605 110.787 59.9785C112.089 63.3965 113.993 65.9844 116.5 67.7422C119.007 69.4674 122.115 70.3301 125.826 70.3301C129.537 70.3301 132.646 69.4674 135.152 67.7422C137.659 65.9844 139.547 63.3965 140.816 59.9785C142.118 56.5605 142.77 52.2962 142.77 47.1855V8.75781H157.809ZM230.758 82H214.107L198.727 55.5352H184.762V82H169.723V8.75781H199.41C205.302 8.75781 210.348 9.68555 214.547 11.541C218.746 13.3965 221.952 16.082 224.166 19.5977C226.412 23.0807 227.535 27.2637 227.535 32.1465C227.535 37.1595 226.347 41.4401 223.971 44.9883C221.627 48.5039 218.274 51.1406 213.912 52.8984L230.758 82ZM184.762 43.5723H198.287C202.747 43.5723 206.165 42.6445 208.541 40.7891C210.95 38.901 212.154 36.2155 212.154 32.7324C212.154 29.2493 210.95 26.5801 208.541 24.7246C206.165 22.8366 202.747 21.8926 198.287 21.8926H184.762V43.5723ZM88.2285 182H73.1895V130.242L54.8789 169.695H43.2578L24.9961 130.389V182H9.95703V108.758H29.0488L49.0684 152.996L69.0879 108.758H88.2285V182ZM100.191 182V108.758H115.23V182H100.191ZM123.727 174.09L130.855 162.615C133.102 164.438 135.266 165.936 137.35 167.107C139.465 168.247 141.549 169.093 143.6 169.646C145.65 170.167 147.75 170.428 149.898 170.428C152.438 170.428 154.635 170.07 156.49 169.354C158.346 168.637 159.778 167.612 160.787 166.277C161.829 164.943 162.35 163.396 162.35 161.639C162.35 159.588 161.699 157.863 160.396 156.463C159.094 155.063 157.385 153.842 155.27 152.801C153.186 151.727 150.924 150.701 148.482 149.725C146.106 148.748 143.714 147.69 141.305 146.551C138.928 145.379 136.731 143.995 134.713 142.4C132.727 140.805 131.116 138.868 129.879 136.59C128.674 134.279 128.072 131.479 128.072 128.191C128.072 123.895 129.146 120.184 131.295 117.059C133.476 113.934 136.454 111.525 140.23 109.832C144.007 108.139 148.32 107.293 153.17 107.293C156.588 107.293 160.136 107.749 163.814 108.66C167.525 109.572 171.22 110.955 174.898 112.811L168.99 124.969C166.679 123.569 164.189 122.462 161.52 121.648C158.85 120.835 156.344 120.428 154 120.428C151.884 120.428 150.029 120.753 148.434 121.404C146.871 122.055 145.65 122.967 144.771 124.139C143.893 125.278 143.453 126.629 143.453 128.191C143.453 130.047 144.088 131.658 145.357 133.025C146.627 134.36 148.271 135.548 150.289 136.59C152.34 137.632 154.537 138.673 156.881 139.715C159.29 140.757 161.715 141.896 164.156 143.133C166.63 144.37 168.876 145.835 170.895 147.527C172.945 149.188 174.589 151.189 175.826 153.533C177.096 155.844 177.73 158.628 177.73 161.883C177.73 166.18 176.591 169.956 174.312 173.211C172.034 176.434 168.86 178.956 164.791 180.779C160.722 182.57 155.986 183.465 150.582 183.465C145.634 183.465 140.898 182.667 136.373 181.072C131.848 179.477 127.633 177.15 123.727 174.09ZM182.809 174.09L189.938 162.615C192.184 164.438 194.348 165.936 196.432 167.107C198.548 168.247 200.631 169.093 202.682 169.646C204.732 170.167 206.832 170.428 208.98 170.428C211.52 170.428 213.717 170.07 215.572 169.354C217.428 168.637 218.86 167.612 219.869 166.277C220.911 164.943 221.432 163.396 221.432 161.639C221.432 159.588 220.781 157.863 219.479 156.463C218.176 155.063 216.467 153.842 214.352 152.801C212.268 151.727 210.006 150.701 207.564 149.725C205.188 148.748 202.796 147.69 200.387 146.551C198.01 145.379 195.813 143.995 193.795 142.4C191.809 140.805 190.198 138.868 188.961 136.59C187.757 134.279 187.154 131.479 187.154 128.191C187.154 123.895 188.229 120.184 190.377 117.059C192.558 113.934 195.536 111.525 199.312 109.832C203.089 108.139 207.402 107.293 212.252 107.293C215.67 107.293 219.218 107.749 222.896 108.66C226.607 109.572 230.302 110.955 233.98 112.811L228.072 124.969C225.761 123.569 223.271 122.462 220.602 121.648C217.932 120.835 215.426 120.428 213.082 120.428C210.966 120.428 209.111 120.753 207.516 121.404C205.953 122.055 204.732 122.967 203.854 124.139C202.975 125.278 202.535 126.629 202.535 128.191C202.535 130.047 203.17 131.658 204.439 133.025C205.709 134.36 207.353 135.548 209.371 136.59C211.422 137.632 213.619 138.673 215.963 139.715C218.372 140.757 220.797 141.896 223.238 143.133C225.712 144.37 227.958 145.835 229.977 147.527C232.027 149.188 233.671 151.189 234.908 153.533C236.178 155.844 236.812 158.628 236.812 161.883C236.812 166.18 235.673 169.956 233.395 173.211C231.116 176.434 227.942 178.956 223.873 180.779C219.804 182.57 215.068 183.465 209.664 183.465C204.716 183.465 199.98 182.667 195.455 181.072C190.93 179.477 186.715 177.15 182.809 174.09ZM246.285 182V108.758H261.324V182H246.285ZM309.273 183.465C303.707 183.465 298.564 182.521 293.844 180.633C289.156 178.712 285.071 176.043 281.588 172.625C278.137 169.174 275.452 165.138 273.531 160.516C271.643 155.893 270.699 150.848 270.699 145.379C270.699 139.91 271.643 134.865 273.531 130.242C275.452 125.587 278.137 121.551 281.588 118.133C285.071 114.682 289.156 112.013 293.844 110.125C298.564 108.237 303.707 107.293 309.273 107.293C314.84 107.293 319.967 108.253 324.654 110.174C329.342 112.062 333.395 114.715 336.812 118.133C340.263 121.551 342.949 125.571 344.869 130.193C346.79 134.816 347.75 139.878 347.75 145.379C347.75 150.848 346.79 155.91 344.869 160.564C342.981 165.187 340.312 169.207 336.861 172.625C333.411 176.043 329.342 178.712 324.654 180.633C319.967 182.521 314.84 183.465 309.273 183.465ZM309.273 170.33C312.561 170.33 315.605 169.695 318.404 168.426C321.236 167.156 323.694 165.398 325.777 163.152C327.861 160.874 329.472 158.237 330.611 155.242C331.783 152.215 332.369 148.927 332.369 145.379C332.369 141.831 331.783 138.543 330.611 135.516C329.472 132.488 327.861 129.852 325.777 127.605C323.694 125.327 321.236 123.569 318.404 122.332C315.605 121.062 312.561 120.428 309.273 120.428C305.953 120.428 302.877 121.062 300.045 122.332C297.245 123.569 294.788 125.327 292.672 127.605C290.589 129.852 288.961 132.488 287.789 135.516C286.65 138.543 286.08 141.831 286.08 145.379C286.08 148.927 286.65 152.215 287.789 155.242C288.961 158.27 290.589 160.923 292.672 163.201C294.788 165.447 297.245 167.205 300.045 168.475C302.877 169.712 305.953 170.33 309.273 170.33ZM423.678 182H406.393L372.164 132V182H357.125V108.758H374.41L408.639 158.855V108.758H423.678V182Z"/>
</mask>
<path d="M45.9922 83.4648C40.4258 83.4648 35.2826 82.5208 30.5625 80.6328C25.875 78.7122 21.7897 76.043 18.3066 72.625C14.8561 69.1745 12.1706 65.138 10.25 60.5156C8.36198 55.8932 7.41797 50.8477 7.41797 45.3789C7.41797 39.9102 8.36198 34.8646 10.25 30.2422C12.1706 25.5872 14.8561 21.5508 18.3066 18.1328C21.7897 14.6823 25.875 12.013 30.5625 10.125C35.2826 8.23698 40.4258 7.29297 45.9922 7.29297C51.5586 7.29297 56.6855 8.25326 61.373 10.1738C66.0605 12.0618 70.1133 14.7148 73.5312 18.1328C76.9818 21.5508 79.6673 25.571 81.5879 30.1934C83.5085 34.8158 84.4688 39.8776 84.4688 45.3789C84.4688 50.8477 83.5085 55.9095 81.5879 60.5645C79.6999 65.1868 77.0306 69.207 73.5801 72.625C70.1296 76.043 66.0605 78.7122 61.373 80.6328C56.6855 82.5208 51.5586 83.4648 45.9922 83.4648ZM45.9922 70.3301C49.2799 70.3301 52.3236 69.6953 55.123 68.4258C57.9551 67.1562 60.4128 65.3984 62.4961 63.1523C64.5794 60.8737 66.1908 58.237 67.3301 55.2422C68.502 52.2148 69.0879 48.9271 69.0879 45.3789C69.0879 41.8307 68.502 38.543 67.3301 35.5156C66.1908 32.4883 64.5794 29.8516 62.4961 27.6055C60.4128 25.3268 57.9551 23.569 55.123 22.332C52.3236 21.0625 49.2799 20.4277 45.9922 20.4277C42.6719 20.4277 39.5957 21.0625 36.7637 22.332C33.9642 23.569 31.5065 25.3268 29.3906 27.6055C27.3073 29.8516 25.6797 32.4883 24.5078 35.5156C23.3685 38.543 22.7988 41.8307 22.7988 45.3789C22.7988 48.9271 23.3685 52.2148 24.5078 55.2422C25.6797 58.2695 27.3073 60.9225 29.3906 63.2012C31.5065 65.4473 33.9642 67.2051 36.7637 68.4746C39.5957 69.7116 42.6719 70.3301 45.9922 70.3301ZM157.809 8.75781V49.041C157.809 56.2025 156.523 62.3548 153.951 67.498C151.412 72.6413 147.75 76.5964 142.965 79.3633C138.212 82.0977 132.499 83.4648 125.826 83.4648C119.186 83.4648 113.473 82.0977 108.688 79.3633C103.902 76.5964 100.224 72.6413 97.6523 67.498C95.1133 62.3548 93.8438 56.2025 93.8438 49.041V8.75781H108.883V47.1855C108.883 52.2962 109.518 56.5605 110.787 59.9785C112.089 63.3965 113.993 65.9844 116.5 67.7422C119.007 69.4674 122.115 70.3301 125.826 70.3301C129.537 70.3301 132.646 69.4674 135.152 67.7422C137.659 65.9844 139.547 63.3965 140.816 59.9785C142.118 56.5605 142.77 52.2962 142.77 47.1855V8.75781H157.809ZM230.758 82H214.107L198.727 55.5352H184.762V82H169.723V8.75781H199.41C205.302 8.75781 210.348 9.68555 214.547 11.541C218.746 13.3965 221.952 16.082 224.166 19.5977C226.412 23.0807 227.535 27.2637 227.535 32.1465C227.535 37.1595 226.347 41.4401 223.971 44.9883C221.627 48.5039 218.274 51.1406 213.912 52.8984L230.758 82ZM184.762 43.5723H198.287C202.747 43.5723 206.165 42.6445 208.541 40.7891C210.95 38.901 212.154 36.2155 212.154 32.7324C212.154 29.2493 210.95 26.5801 208.541 24.7246C206.165 22.8366 202.747 21.8926 198.287 21.8926H184.762V43.5723ZM88.2285 182H73.1895V130.242L54.8789 169.695H43.2578L24.9961 130.389V182H9.95703V108.758H29.0488L49.0684 152.996L69.0879 108.758H88.2285V182ZM100.191 182V108.758H115.23V182H100.191ZM123.727 174.09L130.855 162.615C133.102 164.438 135.266 165.936 137.35 167.107C139.465 168.247 141.549 169.093 143.6 169.646C145.65 170.167 147.75 170.428 149.898 170.428C152.438 170.428 154.635 170.07 156.49 169.354C158.346 168.637 159.778 167.612 160.787 166.277C161.829 164.943 162.35 163.396 162.35 161.639C162.35 159.588 161.699 157.863 160.396 156.463C159.094 155.063 157.385 153.842 155.27 152.801C153.186 151.727 150.924 150.701 148.482 149.725C146.106 148.748 143.714 147.69 141.305 146.551C138.928 145.379 136.731 143.995 134.713 142.4C132.727 140.805 131.116 138.868 129.879 136.59C128.674 134.279 128.072 131.479 128.072 128.191C128.072 123.895 129.146 120.184 131.295 117.059C133.476 113.934 136.454 111.525 140.23 109.832C144.007 108.139 148.32 107.293 153.17 107.293C156.588 107.293 160.136 107.749 163.814 108.66C167.525 109.572 171.22 110.955 174.898 112.811L168.99 124.969C166.679 123.569 164.189 122.462 161.52 121.648C158.85 120.835 156.344 120.428 154 120.428C151.884 120.428 150.029 120.753 148.434 121.404C146.871 122.055 145.65 122.967 144.771 124.139C143.893 125.278 143.453 126.629 143.453 128.191C143.453 130.047 144.088 131.658 145.357 133.025C146.627 134.36 148.271 135.548 150.289 136.59C152.34 137.632 154.537 138.673 156.881 139.715C159.29 140.757 161.715 141.896 164.156 143.133C166.63 144.37 168.876 145.835 170.895 147.527C172.945 149.188 174.589 151.189 175.826 153.533C177.096 155.844 177.73 158.628 177.73 161.883C177.73 166.18 176.591 169.956 174.312 173.211C172.034 176.434 168.86 178.956 164.791 180.779C160.722 182.57 155.986 183.465 150.582 183.465C145.634 183.465 140.898 182.667 136.373 181.072C131.848 179.477 127.633 177.15 123.727 174.09ZM182.809 174.09L189.938 162.615C192.184 164.438 194.348 165.936 196.432 167.107C198.548 168.247 200.631 169.093 202.682 169.646C204.732 170.167 206.832 170.428 208.98 170.428C211.52 170.428 213.717 170.07 215.572 169.354C217.428 168.637 218.86 167.612 219.869 166.277C220.911 164.943 221.432 163.396 221.432 161.639C221.432 159.588 220.781 157.863 219.479 156.463C218.176 155.063 216.467 153.842 214.352 152.801C212.268 151.727 210.006 150.701 207.564 149.725C205.188 148.748 202.796 147.69 200.387 146.551C198.01 145.379 195.813 143.995 193.795 142.4C191.809 140.805 190.198 138.868 188.961 136.59C187.757 134.279 187.154 131.479 187.154 128.191C187.154 123.895 188.229 120.184 190.377 117.059C192.558 113.934 195.536 111.525 199.312 109.832C203.089 108.139 207.402 107.293 212.252 107.293C215.67 107.293 219.218 107.749 222.896 108.66C226.607 109.572 230.302 110.955 233.98 112.811L228.072 124.969C225.761 123.569 223.271 122.462 220.602 121.648C217.932 120.835 215.426 120.428 213.082 120.428C210.966 120.428 209.111 120.753 207.516 121.404C205.953 122.055 204.732 122.967 203.854 124.139C202.975 125.278 202.535 126.629 202.535 128.191C202.535 130.047 203.17 131.658 204.439 133.025C205.709 134.36 207.353 135.548 209.371 136.59C211.422 137.632 213.619 138.673 215.963 139.715C218.372 140.757 220.797 141.896 223.238 143.133C225.712 144.37 227.958 145.835 229.977 147.527C232.027 149.188 233.671 151.189 234.908 153.533C236.178 155.844 236.812 158.628 236.812 161.883C236.812 166.18 235.673 169.956 233.395 173.211C231.116 176.434 227.942 178.956 223.873 180.779C219.804 182.57 215.068 183.465 209.664 183.465C204.716 183.465 199.98 182.667 195.455 181.072C190.93 179.477 186.715 177.15 182.809 174.09ZM246.285 182V108.758H261.324V182H246.285ZM309.273 183.465C303.707 183.465 298.564 182.521 293.844 180.633C289.156 178.712 285.071 176.043 281.588 172.625C278.137 169.174 275.452 165.138 273.531 160.516C271.643 155.893 270.699 150.848 270.699 145.379C270.699 139.91 271.643 134.865 273.531 130.242C275.452 125.587 278.137 121.551 281.588 118.133C285.071 114.682 289.156 112.013 293.844 110.125C298.564 108.237 303.707 107.293 309.273 107.293C314.84 107.293 319.967 108.253 324.654 110.174C329.342 112.062 333.395 114.715 336.812 118.133C340.263 121.551 342.949 125.571 344.869 130.193C346.79 134.816 347.75 139.878 347.75 145.379C347.75 150.848 346.79 155.91 344.869 160.564C342.981 165.187 340.312 169.207 336.861 172.625C333.411 176.043 329.342 178.712 324.654 180.633C319.967 182.521 314.84 183.465 309.273 183.465ZM309.273 170.33C312.561 170.33 315.605 169.695 318.404 168.426C321.236 167.156 323.694 165.398 325.777 163.152C327.861 160.874 329.472 158.237 330.611 155.242C331.783 152.215 332.369 148.927 332.369 145.379C332.369 141.831 331.783 138.543 330.611 135.516C329.472 132.488 327.861 129.852 325.777 127.605C323.694 125.327 321.236 123.569 318.404 122.332C315.605 121.062 312.561 120.428 309.273 120.428C305.953 120.428 302.877 121.062 300.045 122.332C297.245 123.569 294.788 125.327 292.672 127.605C290.589 129.852 288.961 132.488 287.789 135.516C286.65 138.543 286.08 141.831 286.08 145.379C286.08 148.927 286.65 152.215 287.789 155.242C288.961 158.27 290.589 160.923 292.672 163.201C294.788 165.447 297.245 167.205 300.045 168.475C302.877 169.712 305.953 170.33 309.273 170.33ZM423.678 182H406.393L372.164 132V182H357.125V108.758H374.41L408.639 158.855V108.758H423.678V182Z" fill="#FFE8EE"/>
<path d="M30.5625 80.6328L27.9086 87.1102L27.9356 87.1213L27.9628 87.1321L30.5625 80.6328ZM18.3066 72.625L13.3569 77.5747L13.3802 77.5981L13.4038 77.6212L18.3066 72.625ZM10.25 60.5156L3.76972 63.1625L3.77769 63.182L3.78577 63.2015L10.25 60.5156ZM10.25 30.2422L3.77913 27.5724L3.7744 27.5838L3.76972 27.5953L10.25 30.2422ZM18.3066 18.1328L23.2329 23.106L23.2331 23.1057L18.3066 18.1328ZM30.5625 10.125L27.9628 3.62566L27.955 3.62877L27.9472 3.6319L30.5625 10.125ZM61.373 10.1738L58.7191 16.6512L58.7384 16.6591L58.7578 16.6669L61.373 10.1738ZM73.5312 18.1328L68.5815 23.0826L68.5932 23.0943L68.605 23.106L73.5312 18.1328ZM81.5879 30.1934L75.1237 32.8792L81.5879 30.1934ZM81.5879 60.5645L75.117 57.8947L75.1123 57.9061L75.1076 57.9176L81.5879 60.5645ZM61.373 80.6328L63.9883 87.1259L64.0077 87.1181L64.027 87.1102L61.373 80.6328ZM55.123 68.4258L52.2597 62.0382L52.2458 62.0444L52.232 62.0507L55.123 68.4258ZM62.4961 63.1523L67.6283 67.9127L67.6454 67.8942L67.6623 67.8757L62.4961 63.1523ZM67.3301 55.2422L60.8021 52.7152L60.7948 52.7342L60.7875 52.7532L67.3301 55.2422ZM67.3301 35.5156L60.7787 37.9812L60.7902 38.012L60.8021 38.0426L67.3301 35.5156ZM62.4961 27.6055L57.3299 32.3289L57.3468 32.3474L57.3639 32.3658L62.4961 27.6055ZM55.123 22.332L52.232 28.7071L52.2765 28.7273L52.3212 28.7468L55.123 22.332ZM36.7637 22.332L39.5928 28.7348L39.61 28.7273L39.6271 28.7196L36.7637 22.332ZM29.3906 27.6055L24.2611 22.8423L24.2584 22.8452L29.3906 27.6055ZM24.5078 35.5156L17.9798 32.9887L17.968 33.0193L17.9564 33.05L24.5078 35.5156ZM24.5078 55.2422L17.9564 57.7078L17.968 57.7385L17.9798 57.7691L24.5078 55.2422ZM29.3906 63.2012L24.2244 67.9246L24.2596 67.9631L24.2954 68.001L29.3906 63.2012ZM36.7637 68.4746L33.8726 74.8497L33.9171 74.8699L33.9618 74.8894L36.7637 68.4746ZM45.9922 83.4648V76.4648C41.2315 76.4648 36.9802 75.6606 33.1622 74.1335L30.5625 80.6328L27.9628 87.1321C33.5849 89.381 39.6201 90.4648 45.9922 90.4648V83.4648ZM30.5625 80.6328L33.2164 74.1554C29.3349 72.565 26.0212 70.388 23.2095 67.6288L18.3066 72.625L13.4038 77.6212C17.5582 81.698 22.4151 84.8594 27.9086 87.1102L30.5625 80.6328ZM18.3066 72.625L23.2564 67.6753C20.4709 64.8898 18.2923 61.628 16.7142 57.8298L10.25 60.5156L3.78577 63.2015C6.0488 68.6481 9.24131 73.4592 13.3569 77.5747L18.3066 72.625ZM10.25 60.5156L16.7303 57.8687C15.2168 54.1634 14.418 50.0268 14.418 45.3789H7.41797H0.417969C0.417969 51.6685 1.50712 57.623 3.76972 63.1625L10.25 60.5156ZM7.41797 45.3789H14.418C14.418 40.731 15.2168 36.5944 16.7303 32.8891L10.25 30.2422L3.76972 27.5953C1.50712 33.1348 0.417969 39.0893 0.417969 45.3789H7.41797ZM10.25 30.2422L16.7209 32.912C18.2987 29.0877 20.4702 25.8426 23.2329 23.106L18.3066 18.1328L13.3804 13.1597C9.24206 17.259 6.04243 22.0868 3.77913 27.5724L10.25 30.2422ZM18.3066 18.1328L23.2331 23.1057C26.0341 20.3309 29.327 18.1691 33.1778 16.6181L30.5625 10.125L27.9472 3.6319C22.423 5.85693 17.5453 9.03367 13.3802 13.1599L18.3066 18.1328ZM30.5625 10.125L33.1622 16.6243C36.9802 15.0972 41.2315 14.293 45.9922 14.293V7.29297V0.292969C39.6201 0.292969 33.5849 1.37679 27.9628 3.62566L30.5625 10.125ZM45.9922 7.29297V14.293C50.7387 14.293 54.9536 15.1084 58.7191 16.6512L61.373 10.1738L64.027 3.69643C58.4175 1.39811 52.3785 0.292969 45.9922 0.292969V7.29297ZM61.373 10.1738L58.7578 16.6669C62.6117 18.2192 65.8601 20.3611 68.5815 23.0826L73.5312 18.1328L78.481 13.1831C74.3665 9.06856 69.5094 5.90451 63.9883 3.68073L61.373 10.1738ZM73.5312 18.1328L68.605 23.106C71.376 25.8508 73.548 29.0868 75.1237 32.8792L81.5879 30.1934L88.0521 27.5075C85.7867 22.0551 82.5875 17.2507 78.4575 13.1597L73.5312 18.1328ZM81.5879 30.1934L75.1237 32.8792C76.657 36.5696 77.4688 40.7077 77.4688 45.3789H84.4688H91.4688C91.4688 39.0475 90.3599 33.062 88.0521 27.5075L81.5879 30.1934ZM84.4688 45.3789H77.4688C77.4688 50.011 76.6592 54.1568 75.117 57.8947L81.5879 60.5645L88.0588 63.2343C90.3577 57.6622 91.4688 51.6843 91.4688 45.3789H84.4688ZM81.5879 60.5645L75.1076 57.9176C73.5656 61.6929 71.4161 64.9156 68.6538 67.6518L73.5801 72.625L78.5063 77.5982C82.6451 73.4984 85.8342 68.6808 88.0682 63.2113L81.5879 60.5645ZM73.5801 72.625L68.6538 67.6518C65.8828 70.3967 62.5951 72.5673 58.7191 74.1554L61.373 80.6328L64.027 87.1102C69.526 84.8571 74.3763 81.6892 78.5063 77.5982L73.5801 72.625ZM61.373 80.6328L58.7578 74.1397C54.9821 75.6605 50.7536 76.4648 45.9922 76.4648V83.4648V90.4648C52.3636 90.4648 58.389 89.3812 63.9883 87.1259L61.373 80.6328ZM45.9922 70.3301V77.3301C50.2066 77.3301 54.2443 76.5104 58.0141 74.8009L55.123 68.4258L52.232 62.0507C50.4028 62.8802 48.3533 63.3301 45.9922 63.3301V70.3301ZM55.123 68.4258L57.9864 74.8133C61.6648 73.1644 64.8971 70.8572 67.6283 67.9127L62.4961 63.1523L57.3639 58.392C55.9284 59.9397 54.2453 61.1481 52.2597 62.0382L55.123 68.4258ZM62.4961 63.1523L67.6623 67.8757C70.3636 64.9211 72.4315 61.5192 73.8726 57.7312L67.3301 55.2422L60.7875 52.7532C59.95 54.9548 58.7952 56.8263 57.3299 58.429L62.4961 63.1523ZM67.3301 55.2422L73.8581 57.7691C75.3697 53.864 76.0879 49.7108 76.0879 45.3789H69.0879H62.0879C62.0879 48.1434 61.6342 50.5657 60.8021 52.7152L67.3301 55.2422ZM69.0879 45.3789H76.0879C76.0879 41.0471 75.3697 36.8938 73.8581 32.9887L67.3301 35.5156L60.8021 38.0426C61.6342 40.1921 62.0879 42.6144 62.0879 45.3789H69.0879ZM67.3301 35.5156L73.8815 33.05C72.4405 29.2211 70.3631 25.7936 67.6283 22.8452L62.4961 27.6055L57.3639 32.3658C58.7958 33.9095 59.941 35.7554 60.7787 37.9812L67.3301 35.5156ZM62.4961 27.6055L67.6623 22.8821C64.9172 19.8797 61.6539 17.546 57.9249 15.9172L55.123 22.332L52.3212 28.7468C54.2563 29.592 55.9083 30.774 57.3299 32.3289L62.4961 27.6055ZM55.123 22.332L58.0141 15.9569C54.2443 14.2474 50.2066 13.4277 45.9922 13.4277V20.4277V27.4277C48.3533 27.4277 50.4028 27.8776 52.232 28.7071L55.123 22.332ZM45.9922 20.4277V13.4277C41.7549 13.4277 37.6947 14.2435 33.9003 15.9445L36.7637 22.332L39.6271 28.7196C41.4967 27.8815 43.5888 27.4277 45.9922 27.4277V20.4277ZM36.7637 22.332L33.9345 15.9292C30.2506 17.557 27.0137 19.8779 24.2611 22.8423L29.3906 27.6055L34.5202 32.3686C35.9993 30.7757 37.6778 29.581 39.5928 28.7348L36.7637 22.332ZM29.3906 27.6055L24.2584 22.8452C21.5374 25.7788 19.4522 29.1851 17.9798 32.9887L24.5078 35.5156L31.0358 38.0426C31.9072 35.7914 33.0772 33.9244 34.5228 32.3658L29.3906 27.6055ZM24.5078 35.5156L17.9564 33.05C16.493 36.9385 15.7988 41.0702 15.7988 45.3789H22.7988H29.7988C29.7988 42.5913 30.244 40.1474 31.0592 37.9812L24.5078 35.5156ZM22.7988 45.3789H15.7988C15.7988 49.6876 16.493 53.8193 17.9564 57.7078L24.5078 55.2422L31.0592 52.7766C30.244 50.6104 29.7988 48.1666 29.7988 45.3789H22.7988ZM24.5078 55.2422L17.9798 57.7691C19.449 61.5646 21.525 64.972 24.2244 67.9246L29.3906 63.2012L34.5568 58.4778C33.0896 56.873 31.9103 54.9745 31.0358 52.7152L24.5078 55.2422ZM29.3906 63.2012L24.2954 68.001C27.0339 70.9081 30.2396 73.2022 33.8726 74.8497L36.7637 68.4746L39.6547 62.0995C37.6888 61.208 35.9791 59.9864 34.4859 58.4013L29.3906 63.2012ZM36.7637 68.4746L33.9618 74.8894C37.7418 76.5404 41.7803 77.3301 45.9922 77.3301V70.3301V63.3301C43.5635 63.3301 41.4496 62.8827 39.5655 62.0598L36.7637 68.4746ZM157.809 8.75781H164.809V1.75781H157.809V8.75781ZM153.951 67.498L147.69 64.3676L147.682 64.3834L147.674 64.3994L153.951 67.498ZM142.965 79.3633L146.456 85.4307L146.462 85.4269L146.469 85.4231L142.965 79.3633ZM108.688 79.3633L105.183 85.4231L105.199 85.4321L105.215 85.441L108.688 79.3633ZM97.6523 67.498L91.3755 70.5967L91.3834 70.6126L91.3913 70.6285L97.6523 67.498ZM93.8438 8.75781V1.75781H86.8438V8.75781H93.8438ZM108.883 8.75781H115.883V1.75781H108.883V8.75781ZM110.787 59.9785L104.225 62.4158L104.235 62.4432L104.246 62.4705L110.787 59.9785ZM116.5 67.7422L112.481 73.4733L112.506 73.4909L112.531 73.5083L116.5 67.7422ZM135.152 67.7422L139.121 73.5083L139.146 73.4909L139.172 73.4733L135.152 67.7422ZM140.816 59.9785L134.275 57.4865L134.265 57.5138L134.254 57.5412L140.816 59.9785ZM142.77 8.75781V1.75781H135.77V8.75781H142.77ZM157.809 8.75781H150.809V49.041H157.809H164.809V8.75781H157.809ZM157.809 49.041H150.809C150.809 55.3766 149.671 60.4054 147.69 64.3676L153.951 67.498L160.212 70.6285C163.374 64.3042 164.809 57.0283 164.809 49.041H157.809ZM153.951 67.498L147.674 64.3994C145.723 68.3529 143.003 71.2553 139.461 73.3034L142.965 79.3633L146.469 85.4231C152.497 81.9374 157.102 76.9297 160.228 70.5967L153.951 67.498ZM142.965 79.3633L139.474 73.2958C135.992 75.2994 131.539 76.4648 125.826 76.4648V83.4648V90.4648C133.46 90.4648 140.433 88.8959 146.456 85.4307L142.965 79.3633ZM125.826 83.4648V76.4648C120.154 76.4648 115.691 75.3028 112.16 73.2856L108.688 79.3633L105.215 85.441C111.255 88.8925 118.217 90.4648 125.826 90.4648V83.4648ZM108.688 79.3633L112.192 73.3034C108.642 71.2508 105.898 68.3378 103.913 64.3676L97.6523 67.498L91.3913 70.6285C94.5495 76.9448 99.163 81.9419 105.183 85.4231L108.688 79.3633ZM97.6523 67.498L103.929 64.3994C101.969 60.4292 100.844 55.3886 100.844 49.041H93.8438H86.8438C86.8438 57.0164 88.2574 64.2804 91.3755 70.5967L97.6523 67.498ZM93.8438 49.041H100.844V8.75781H93.8438H86.8438V49.041H93.8438ZM93.8438 8.75781V15.7578H108.883V8.75781V1.75781H93.8438V8.75781ZM108.883 8.75781H101.883V47.1855H108.883H115.883V8.75781H108.883ZM108.883 47.1855H101.883C101.883 52.8195 102.575 57.9732 104.225 62.4158L110.787 59.9785L117.349 57.5412C116.46 55.1479 115.883 51.7729 115.883 47.1855H108.883ZM110.787 59.9785L104.246 62.4705C105.947 66.9368 108.621 70.7664 112.481 73.4733L116.5 67.7422L120.519 62.0111C119.366 61.2024 118.231 59.8562 117.329 57.4865L110.787 59.9785ZM116.5 67.7422L112.531 73.5083C116.44 76.1991 121.013 77.3301 125.826 77.3301V70.3301V63.3301C123.217 63.3301 121.573 62.7358 120.469 61.9761L116.5 67.7422ZM125.826 70.3301V77.3301C130.639 77.3301 135.212 76.1991 139.121 73.5083L135.152 67.7422L131.183 61.9761C130.08 62.7358 128.435 63.3301 125.826 63.3301V70.3301ZM135.152 67.7422L139.172 73.4733C143.048 70.7551 145.711 66.9047 147.378 62.4158L140.816 59.9785L134.254 57.5412C133.383 59.8883 132.27 61.2137 131.133 62.0111L135.152 67.7422ZM140.816 59.9785L147.358 62.4705C149.058 58.0087 149.77 52.8346 149.77 47.1855H142.77H135.77C135.77 51.7578 135.179 55.1124 134.275 57.4865L140.816 59.9785ZM142.77 47.1855H149.77V8.75781H142.77H135.77V47.1855H142.77ZM142.77 8.75781V15.7578H157.809V8.75781V1.75781H142.77V8.75781ZM230.758 82V89H242.898L236.816 78.4931L230.758 82ZM214.107 82L208.055 85.5174L210.079 89H214.107V82ZM198.727 55.5352L204.779 52.0178L202.755 48.5352H198.727V55.5352ZM184.762 55.5352V48.5352H177.762V55.5352H184.762ZM184.762 82V89H191.762V82H184.762ZM169.723 82H162.723V89H169.723V82ZM169.723 8.75781V1.75781H162.723V8.75781H169.723ZM224.166 19.5977L218.242 23.3273L218.263 23.3594L218.283 23.3913L224.166 19.5977ZM223.971 44.9883L218.155 41.0931L218.15 41.0992L218.146 41.1054L223.971 44.9883ZM213.912 52.8984L211.296 46.4058L203.811 49.4218L207.854 56.4053L213.912 52.8984ZM184.762 43.5723H177.762V50.5723H184.762V43.5723ZM208.541 40.7891L212.849 46.3064L212.859 46.2985L208.541 40.7891ZM208.541 24.7246L204.186 30.2053L204.228 30.2381L204.269 30.2702L208.541 24.7246ZM184.762 21.8926V14.8926H177.762V21.8926H184.762ZM230.758 82V75H214.107V82V89H230.758V82ZM214.107 82L220.16 78.4826L204.779 52.0178L198.727 55.5352L192.674 59.0525L208.055 85.5174L214.107 82ZM198.727 55.5352V48.5352H184.762V55.5352V62.5352H198.727V55.5352ZM184.762 55.5352H177.762V82H184.762H191.762V55.5352H184.762ZM184.762 82V75H169.723V82V89H184.762V82ZM169.723 82H176.723V8.75781H169.723H162.723V82H169.723ZM169.723 8.75781V15.7578H199.41V8.75781V1.75781H169.723V8.75781ZM199.41 8.75781V15.7578C204.593 15.7578 208.624 16.5768 211.718 17.9438L214.547 11.541L217.376 5.13821C212.071 2.79425 206.011 1.75781 199.41 1.75781V8.75781ZM214.547 11.541L211.718 17.9438C214.782 19.2977 216.849 21.1136 218.242 23.3273L224.166 19.5977L230.09 15.868C227.056 11.0505 222.71 7.49525 217.376 5.13821L214.547 11.541ZM224.166 19.5977L218.283 23.3913C219.678 25.5547 220.535 28.3655 220.535 32.1465H227.535H234.535C234.535 26.1619 233.146 20.6068 230.049 15.804L224.166 19.5977ZM227.535 32.1465H220.535C220.535 36.0191 219.632 38.8865 218.155 41.0931L223.971 44.9883L229.787 48.8835C233.062 43.9938 234.535 38.2999 234.535 32.1465H227.535ZM223.971 44.9883L218.146 41.1054C216.672 43.3171 214.504 45.113 211.296 46.4058L213.912 52.8984L216.529 59.3911C222.044 57.1683 226.582 53.6908 229.795 48.8712L223.971 44.9883ZM213.912 52.8984L207.854 56.4053L224.7 85.5069L230.758 82L236.816 78.4931L219.97 49.3916L213.912 52.8984ZM184.762 43.5723V50.5723H198.287V43.5723V36.5723H184.762V43.5723ZM198.287 43.5723V50.5723C203.589 50.5723 208.776 49.4869 212.849 46.3064L208.541 40.7891L204.233 35.2717C203.554 35.8021 201.904 36.5723 198.287 36.5723V43.5723ZM208.541 40.7891L212.859 46.2985C217.209 42.8889 219.154 38.0299 219.154 32.7324H212.154H205.154C205.154 34.4011 204.69 34.9132 204.223 35.2797L208.541 40.7891ZM212.154 32.7324H219.154C219.154 27.4363 217.207 22.5642 212.813 19.179L208.541 24.7246L204.269 30.2702C204.692 30.5959 205.154 31.0624 205.154 32.7324H212.154ZM208.541 24.7246L212.896 19.2439C208.817 16.0038 203.612 14.8926 198.287 14.8926V21.8926V28.8926C201.882 28.8926 203.512 29.6694 204.186 30.2053L208.541 24.7246ZM198.287 21.8926V14.8926H184.762V21.8926V28.8926H198.287V21.8926ZM184.762 21.8926H177.762V43.5723H184.762H191.762V21.8926H184.762ZM88.2285 182V189H95.2285V182H88.2285ZM73.1895 182H66.1895V189H73.1895V182ZM73.1895 130.242H80.1895L66.84 127.295L73.1895 130.242ZM54.8789 169.695V176.695H59.3473L61.2284 172.642L54.8789 169.695ZM43.2578 169.695L36.9095 172.645L38.7914 176.695H43.2578V169.695ZM24.9961 130.389L31.3444 127.439L17.9961 130.389H24.9961ZM24.9961 182V189H31.9961V182H24.9961ZM9.95703 182H2.95703V189H9.95703V182ZM9.95703 108.758V101.758H2.95703V108.758H9.95703ZM29.0488 108.758L35.4262 105.872L33.5645 101.758H29.0488V108.758ZM49.0684 152.996L42.691 155.882L49.0684 169.975L55.4457 155.882L49.0684 152.996ZM69.0879 108.758V101.758H64.5723L62.7105 105.872L69.0879 108.758ZM88.2285 108.758H95.2285V101.758H88.2285V108.758ZM88.2285 182V175H73.1895V182V189H88.2285V182ZM73.1895 182H80.1895V130.242H73.1895H66.1895V182H73.1895ZM73.1895 130.242L66.84 127.295L48.5294 166.748L54.8789 169.695L61.2284 172.642L79.5389 133.189L73.1895 130.242ZM54.8789 169.695V162.695H43.2578V169.695V176.695H54.8789V169.695ZM43.2578 169.695L49.6061 166.746L31.3444 127.439L24.9961 130.389L18.6478 133.338L36.9095 172.645L43.2578 169.695ZM24.9961 130.389H17.9961V182H24.9961H31.9961V130.389H24.9961ZM24.9961 182V175H9.95703V182V189H24.9961V182ZM9.95703 182H16.957V108.758H9.95703H2.95703V182H9.95703ZM9.95703 108.758V115.758H29.0488V108.758V101.758H9.95703V108.758ZM29.0488 108.758L22.6714 111.644L42.691 155.882L49.0684 152.996L55.4457 150.11L35.4262 105.872L29.0488 108.758ZM49.0684 152.996L55.4457 155.882L75.4653 111.644L69.0879 108.758L62.7105 105.872L42.691 150.11L49.0684 152.996ZM69.0879 108.758V115.758H88.2285V108.758V101.758H69.0879V108.758ZM88.2285 108.758H81.2285V182H88.2285H95.2285V108.758H88.2285ZM100.191 182H93.1914V189H100.191V182ZM100.191 108.758V101.758H93.1914V108.758H100.191ZM115.23 108.758H122.23V101.758H115.23V108.758ZM115.23 182V189H122.23V182H115.23ZM100.191 182H107.191V108.758H100.191H93.1914V182H100.191ZM100.191 108.758V115.758H115.23V108.758V101.758H100.191V108.758ZM115.23 108.758H108.23V182H115.23H122.23V108.758H115.23ZM115.23 182V175H100.191V182V189H115.23V182ZM123.727 174.09L117.781 170.396L114.467 175.729L119.41 179.6L123.727 174.09ZM130.855 162.615L135.267 157.18L129.1 152.176L124.91 158.921L130.855 162.615ZM137.35 167.107L133.918 173.208L133.974 173.24L134.031 173.271L137.35 167.107ZM143.6 169.646L141.776 176.405L141.826 176.418L141.877 176.431L143.6 169.646ZM160.787 166.277L155.269 161.97L155.236 162.013L155.203 162.056L160.787 166.277ZM160.396 156.463L165.522 151.695L160.396 156.463ZM155.27 152.801L152.062 159.022L152.119 159.052L152.178 159.081L155.27 152.801ZM148.482 149.725L145.822 156.199L145.852 156.212L145.883 156.224L148.482 149.725ZM141.305 146.551L138.209 152.829L138.26 152.854L138.312 152.879L141.305 146.551ZM134.713 142.4L130.329 147.858L130.351 147.875L130.373 147.892L134.713 142.4ZM129.879 136.59L123.671 139.825L123.699 139.877L123.727 139.929L129.879 136.59ZM131.295 117.059L125.555 113.052L125.541 113.073L125.527 113.093L131.295 117.059ZM163.814 108.66L162.131 115.455L162.138 115.456L162.145 115.458L163.814 108.66ZM174.898 112.811L181.194 115.87L184.209 109.667L178.051 106.561L174.898 112.811ZM168.99 124.969L165.364 130.956L171.931 134.933L175.286 128.028L168.99 124.969ZM148.434 121.404L145.788 114.923L145.765 114.933L145.741 114.943L148.434 121.404ZM144.771 124.139L150.314 128.414L150.343 128.377L150.371 128.339L144.771 124.139ZM145.357 133.025L140.228 137.789L140.257 137.819L140.286 137.85L145.357 133.025ZM150.289 136.59L147.079 142.81L147.099 142.821L147.119 142.831L150.289 136.59ZM156.881 139.715L154.038 146.112L154.07 146.126L154.102 146.14L156.881 139.715ZM164.156 143.133L160.992 149.377L161.009 149.385L161.026 149.394L164.156 143.133ZM170.895 147.527L166.396 152.891L166.443 152.93L166.49 152.968L170.895 147.527ZM175.826 153.533L169.635 156.801L169.663 156.852L169.691 156.903L175.826 153.533ZM174.312 173.211L180.028 177.252L180.038 177.239L180.047 177.225L174.312 173.211ZM164.791 180.779L167.61 187.187L167.632 187.177L167.653 187.168L164.791 180.779ZM123.727 174.09L129.672 177.784L136.801 166.309L130.855 162.615L124.91 158.921L117.781 170.396L123.727 174.09ZM130.855 162.615L126.444 168.05C128.936 170.073 131.427 171.807 133.918 173.208L137.35 167.107L140.781 161.006C139.106 160.064 137.267 158.804 135.267 157.18L130.855 162.615ZM137.35 167.107L134.031 173.271C136.56 174.632 139.143 175.694 141.776 176.405L143.6 169.646L145.423 162.888C143.955 162.492 142.371 161.861 140.668 160.944L137.35 167.107ZM143.6 169.646L141.877 176.431C144.499 177.097 147.178 177.428 149.898 177.428V170.428V163.428C148.322 163.428 146.802 163.237 145.323 162.862L143.6 169.646ZM149.898 170.428V177.428C153.072 177.428 156.163 176.983 159.011 175.884L156.49 169.354L153.97 162.823C153.107 163.156 151.803 163.428 149.898 163.428V170.428ZM156.49 169.354L159.011 175.884C161.85 174.788 164.438 173.055 166.371 170.499L160.787 166.277L155.203 162.056C155.118 162.169 154.841 162.487 153.97 162.823L156.49 169.354ZM160.787 166.277L166.305 170.584C168.346 167.97 169.35 164.893 169.35 161.639H162.35H155.35C155.35 161.732 155.343 161.793 155.337 161.827C155.332 161.861 155.327 161.878 155.325 161.882C155.324 161.886 155.322 161.891 155.317 161.899C155.313 161.908 155.299 161.932 155.269 161.97L160.787 166.277ZM162.35 161.639H169.35C169.35 157.96 168.121 154.49 165.522 151.695L160.396 156.463L155.271 161.231C155.289 161.249 155.3 161.263 155.306 161.271C155.312 161.279 155.315 161.283 155.315 161.284C155.315 161.284 155.314 161.283 155.313 161.281C155.312 161.278 155.312 161.277 155.312 161.278C155.312 161.278 155.32 161.299 155.329 161.351C155.338 161.404 155.35 161.497 155.35 161.639H162.35ZM160.396 156.463L165.522 151.695C163.522 149.545 161.069 147.854 158.361 146.521L155.27 152.801L152.178 159.081C153.702 159.831 154.667 160.581 155.271 161.231L160.396 156.463ZM155.27 152.801L158.478 146.579C156.174 145.391 153.706 144.275 151.082 143.225L148.482 149.725L145.883 156.224C148.142 157.127 150.199 158.062 152.062 159.022L155.27 152.801ZM148.482 149.725L151.143 143.25C148.883 142.321 146.601 141.312 144.298 140.223L141.305 146.551L138.312 152.879C140.826 154.068 143.329 155.175 145.822 156.199L148.482 149.725ZM141.305 146.551L144.401 140.273C142.452 139.312 140.674 138.189 139.053 136.908L134.713 142.4L130.373 147.892C132.788 149.801 135.404 151.446 138.209 152.829L141.305 146.551ZM134.713 142.4L139.097 136.943C137.848 135.94 136.833 134.728 136.031 133.25L129.879 136.59L123.727 139.929C125.399 143.009 127.606 145.67 130.329 147.858L134.713 142.4ZM129.879 136.59L136.087 133.355C135.521 132.27 135.072 130.641 135.072 128.191H128.072H121.072C121.072 132.318 121.828 136.287 123.671 139.825L129.879 136.59ZM128.072 128.191H135.072C135.072 125.115 135.821 122.831 137.063 121.024L131.295 117.059L125.527 113.093C122.472 117.536 121.072 122.674 121.072 128.191H128.072ZM131.295 117.059L137.035 121.065C138.429 119.068 140.372 117.44 143.094 116.22L140.23 109.832L137.367 103.444C132.537 105.61 128.523 108.799 125.555 113.052L131.295 117.059ZM140.23 109.832L143.094 116.22C145.828 114.994 149.139 114.293 153.17 114.293V107.293V100.293C147.501 100.293 142.185 101.285 137.367 103.444L140.23 109.832ZM153.17 107.293V114.293C155.963 114.293 158.944 114.665 162.131 115.455L163.814 108.66L165.498 101.866C161.328 100.832 157.213 100.293 153.17 100.293V107.293ZM163.814 108.66L162.145 115.458C165.304 116.234 168.503 117.425 171.746 119.06L174.898 112.811L178.051 106.561C173.937 104.486 169.747 102.909 165.484 101.862L163.814 108.66ZM174.898 112.811L168.602 109.751L162.694 121.909L168.99 124.969L175.286 128.028L181.194 115.87L174.898 112.811ZM168.99 124.969L172.616 118.981C169.792 117.271 166.768 115.93 163.561 114.953L161.52 121.648L159.478 128.344C161.61 128.994 163.566 129.867 165.364 130.956L168.99 124.969ZM161.52 121.648L163.561 114.953C160.352 113.974 157.153 113.428 154 113.428V120.428V127.428C155.535 127.428 157.348 127.695 159.478 128.344L161.52 121.648ZM154 120.428V113.428C151.178 113.428 148.391 113.861 145.788 114.923L148.434 121.404L151.079 127.885C151.666 127.645 152.59 127.428 154 127.428V120.428ZM148.434 121.404L145.741 114.943C143.207 115.999 140.91 117.62 139.171 119.939L144.771 124.139L150.371 128.339C150.39 128.314 150.535 128.112 151.126 127.866L148.434 121.404ZM144.771 124.139L139.229 119.863C137.322 122.335 136.453 125.223 136.453 128.191H143.453H150.453C150.453 128.073 150.469 128.082 150.439 128.172C150.426 128.214 150.406 128.261 150.381 128.308C150.356 128.355 150.332 128.391 150.314 128.414L144.771 124.139ZM143.453 128.191H136.453C136.453 131.825 137.763 135.135 140.228 137.789L145.357 133.025L150.487 128.262C150.439 128.211 150.422 128.184 150.422 128.184C150.422 128.183 150.424 128.187 150.428 128.195C150.432 128.203 150.437 128.214 150.442 128.226C150.447 128.238 150.451 128.249 150.453 128.259C150.456 128.269 150.457 128.275 150.458 128.277C150.458 128.28 150.453 128.255 150.453 128.191H143.453ZM145.357 133.025L140.286 137.85C142.202 139.865 144.522 141.491 147.079 142.81L150.289 136.59L153.5 130.369C152.02 129.606 151.052 128.855 150.429 128.201L145.357 133.025ZM150.289 136.59L147.119 142.831C149.289 143.933 151.596 145.026 154.038 146.112L156.881 139.715L159.724 133.318C157.478 132.32 155.391 131.33 153.459 130.349L150.289 136.59ZM156.881 139.715L154.102 146.14C156.376 147.123 158.672 148.202 160.992 149.377L164.156 143.133L167.32 136.889C164.757 135.59 162.204 134.39 159.659 133.29L156.881 139.715ZM164.156 143.133L161.026 149.394C163.035 150.398 164.818 151.567 166.396 152.891L170.895 147.527L175.393 142.164C172.935 140.103 170.226 138.341 167.287 136.872L164.156 143.133ZM170.895 147.527L166.49 152.968C167.801 154.029 168.839 155.291 169.635 156.801L175.826 153.533L182.017 150.266C180.34 147.088 178.089 144.346 175.299 142.087L170.895 147.527ZM175.826 153.533L169.691 156.903C170.275 157.966 170.73 159.533 170.73 161.883H177.73H184.73C184.73 157.722 183.917 153.722 181.962 150.163L175.826 153.533ZM177.73 161.883H170.73C170.73 164.866 169.965 167.215 168.578 169.197L174.312 173.211L180.047 177.225C183.217 172.697 184.73 167.493 184.73 161.883H177.73ZM174.312 173.211L168.597 169.17C167.132 171.241 165.005 173.013 161.929 174.391L164.791 180.779L167.653 187.168C172.715 184.9 176.935 181.626 180.028 177.252L174.312 173.211ZM164.791 180.779L161.972 174.372C158.961 175.697 155.22 176.465 150.582 176.465V183.465V190.465C156.752 190.465 162.483 189.443 167.61 187.187L164.791 180.779ZM150.582 183.465V176.465C146.402 176.465 142.454 175.794 138.7 174.47L136.373 181.072L134.046 187.674C139.342 189.541 144.867 190.465 150.582 190.465V183.465ZM136.373 181.072L138.7 174.47C134.918 173.137 131.371 171.186 128.043 168.579L123.727 174.09L119.41 179.6C123.895 183.114 128.779 185.817 134.046 187.674L136.373 181.072ZM182.809 174.09L176.863 170.396L173.549 175.729L178.492 179.6L182.809 174.09ZM189.938 162.615L194.349 157.18L188.182 152.176L183.992 158.921L189.938 162.615ZM196.432 167.107L193 173.208L193.056 173.24L193.113 173.271L196.432 167.107ZM202.682 169.646L200.858 176.405L200.908 176.418L200.959 176.431L202.682 169.646ZM219.869 166.277L214.351 161.97L214.318 162.013L214.286 162.056L219.869 166.277ZM219.479 156.463L224.604 151.695L219.479 156.463ZM214.352 152.801L211.144 159.022L211.201 159.052L211.26 159.081L214.352 152.801ZM207.564 149.725L204.904 156.199L204.934 156.212L204.965 156.224L207.564 149.725ZM200.387 146.551L197.291 152.829L197.342 152.854L197.394 152.879L200.387 146.551ZM193.795 142.4L189.411 147.858L189.433 147.875L189.455 147.892L193.795 142.4ZM188.961 136.59L182.753 139.825L182.781 139.877L182.809 139.929L188.961 136.59ZM190.377 117.059L184.637 113.052L184.623 113.073L184.609 113.093L190.377 117.059ZM222.896 108.66L221.213 115.455L221.22 115.456L221.227 115.458L222.896 108.66ZM233.98 112.811L240.276 115.87L243.291 109.667L237.133 106.561L233.98 112.811ZM228.072 124.969L224.446 130.956L231.013 134.933L234.368 128.028L228.072 124.969ZM207.516 121.404L204.87 114.923L204.847 114.933L204.823 114.943L207.516 121.404ZM203.854 124.139L209.396 128.414L209.425 128.377L209.454 128.339L203.854 124.139ZM204.439 133.025L199.31 137.789L199.339 137.819L199.368 137.85L204.439 133.025ZM209.371 136.59L206.161 142.81L206.181 142.821L206.201 142.831L209.371 136.59ZM215.963 139.715L213.12 146.112L213.152 146.126L213.185 146.14L215.963 139.715ZM223.238 143.133L220.075 149.377L220.091 149.385L220.108 149.394L223.238 143.133ZM229.977 147.527L225.478 152.891L225.525 152.93L225.572 152.968L229.977 147.527ZM234.908 153.533L228.718 156.801L228.745 156.852L228.773 156.903L234.908 153.533ZM233.395 173.211L239.11 177.252L239.12 177.239L239.129 177.225L233.395 173.211ZM223.873 180.779L226.692 187.187L226.714 187.177L226.735 187.168L223.873 180.779ZM182.809 174.09L188.755 177.784L195.883 166.309L189.938 162.615L183.992 158.921L176.863 170.396L182.809 174.09ZM189.938 162.615L185.526 168.05C188.018 170.073 190.509 171.807 193 173.208L196.432 167.107L199.863 161.006C198.188 160.064 196.349 158.804 194.349 157.18L189.938 162.615ZM196.432 167.107L193.113 173.271C195.642 174.632 198.225 175.694 200.858 176.405L202.682 169.646L204.505 162.888C203.037 162.492 201.453 161.861 199.75 160.944L196.432 167.107ZM202.682 169.646L200.959 176.431C203.581 177.097 206.26 177.428 208.98 177.428V170.428V163.428C207.404 163.428 205.884 163.237 204.405 162.862L202.682 169.646ZM208.98 170.428V177.428C212.154 177.428 215.245 176.983 218.093 175.884L215.572 169.354L213.052 162.823C212.189 163.156 210.886 163.428 208.98 163.428V170.428ZM215.572 169.354L218.093 175.884C220.932 174.788 223.52 173.055 225.453 170.499L219.869 166.277L214.286 162.056C214.2 162.169 213.923 162.487 213.052 162.823L215.572 169.354ZM219.869 166.277L225.387 170.584C227.428 167.97 228.432 164.893 228.432 161.639H221.432H214.432C214.432 161.732 214.425 161.793 214.419 161.827C214.414 161.861 214.409 161.878 214.407 161.882C214.406 161.886 214.404 161.891 214.4 161.899C214.395 161.908 214.381 161.932 214.351 161.97L219.869 166.277ZM221.432 161.639H228.432C228.432 157.96 227.203 154.49 224.604 151.695L219.479 156.463L214.353 161.231C214.371 161.249 214.382 161.263 214.388 161.271C214.394 161.279 214.397 161.283 214.397 161.284C214.397 161.284 214.396 161.283 214.395 161.281C214.394 161.278 214.394 161.277 214.394 161.278C214.394 161.278 214.402 161.299 214.411 161.351C214.42 161.404 214.432 161.497 214.432 161.639H221.432ZM219.479 156.463L224.604 151.695C222.604 149.545 220.151 147.854 217.443 146.521L214.352 152.801L211.26 159.081C212.784 159.831 213.749 160.581 214.353 161.231L219.479 156.463ZM214.352 152.801L217.56 146.579C215.256 145.391 212.788 144.275 210.164 143.225L207.564 149.725L204.965 156.224C207.224 157.127 209.281 158.062 211.144 159.022L214.352 152.801ZM207.564 149.725L210.225 143.25C207.965 142.321 205.683 141.312 203.38 140.223L200.387 146.551L197.394 152.879C199.908 154.068 202.411 155.175 204.904 156.199L207.564 149.725ZM200.387 146.551L203.483 140.273C201.534 139.312 199.756 138.189 198.135 136.908L193.795 142.4L189.455 147.892C191.87 149.801 194.486 151.446 197.291 152.829L200.387 146.551ZM193.795 142.4L198.179 136.943C196.93 135.94 195.915 134.728 195.113 133.25L188.961 136.59L182.809 139.929C184.481 143.009 186.688 145.67 189.411 147.858L193.795 142.4ZM188.961 136.59L195.169 133.355C194.603 132.27 194.154 130.641 194.154 128.191H187.154H180.154C180.154 132.318 180.91 136.287 182.753 139.825L188.961 136.59ZM187.154 128.191H194.154C194.154 125.115 194.903 122.831 196.145 121.024L190.377 117.059L184.609 113.093C181.554 117.536 180.154 122.674 180.154 128.191H187.154ZM190.377 117.059L196.117 121.065C197.511 119.068 199.454 117.44 202.176 116.22L199.312 109.832L196.449 103.444C191.619 105.61 187.605 108.799 184.637 113.052L190.377 117.059ZM199.312 109.832L202.176 116.22C204.91 114.994 208.221 114.293 212.252 114.293V107.293V100.293C206.583 100.293 201.268 101.285 196.449 103.444L199.312 109.832ZM212.252 107.293V114.293C215.045 114.293 218.026 114.665 221.213 115.455L222.896 108.66L224.58 101.866C220.41 100.832 216.295 100.293 212.252 100.293V107.293ZM222.896 108.66L221.227 115.458C224.386 116.234 227.585 117.425 230.828 119.06L233.98 112.811L237.133 106.561C233.019 104.486 228.829 102.909 224.566 101.862L222.896 108.66ZM233.98 112.811L227.684 109.751L221.776 121.909L228.072 124.969L234.368 128.028L240.276 115.87L233.98 112.811ZM228.072 124.969L231.699 118.981C228.874 117.271 225.85 115.93 222.643 114.953L220.602 121.648L218.56 128.344C220.692 128.994 222.648 129.867 224.446 130.956L228.072 124.969ZM220.602 121.648L222.643 114.953C219.434 113.974 216.235 113.428 213.082 113.428V120.428V127.428C214.617 127.428 216.43 127.695 218.56 128.344L220.602 121.648ZM213.082 120.428V113.428C210.26 113.428 207.473 113.861 204.87 114.923L207.516 121.404L210.161 127.885C210.748 127.645 211.672 127.428 213.082 127.428V120.428ZM207.516 121.404L204.823 114.943C202.289 115.999 199.992 117.62 198.254 119.939L203.854 124.139L209.454 128.339C209.472 128.314 209.617 128.112 210.208 127.866L207.516 121.404ZM203.854 124.139L198.311 119.863C196.404 122.335 195.535 125.223 195.535 128.191H202.535H209.535C209.535 128.073 209.551 128.082 209.521 128.172C209.508 128.214 209.488 128.261 209.463 128.308C209.438 128.355 209.414 128.391 209.396 128.414L203.854 124.139ZM202.535 128.191H195.535C195.535 131.825 196.845 135.135 199.31 137.789L204.439 133.025L209.569 128.262C209.521 128.211 209.504 128.184 209.504 128.184C209.504 128.183 209.506 128.187 209.51 128.195C209.514 128.203 209.519 128.214 209.524 128.226C209.529 128.238 209.533 128.249 209.535 128.259C209.538 128.269 209.539 128.275 209.54 128.277C209.54 128.28 209.535 128.255 209.535 128.191H202.535ZM204.439 133.025L199.368 137.85C201.284 139.865 203.604 141.491 206.161 142.81L209.371 136.59L212.582 130.369C211.102 129.606 210.134 128.855 209.511 128.201L204.439 133.025ZM209.371 136.59L206.201 142.831C208.371 143.933 210.678 145.026 213.12 146.112L215.963 139.715L218.806 133.318C216.56 132.32 214.473 131.33 212.541 130.349L209.371 136.59ZM215.963 139.715L213.185 146.14C215.458 147.123 217.754 148.202 220.075 149.377L223.238 143.133L226.402 136.889C223.839 135.59 221.286 134.39 218.741 133.29L215.963 139.715ZM223.238 143.133L220.108 149.394C222.117 150.398 223.9 151.567 225.478 152.891L229.977 147.527L234.475 142.164C232.017 140.103 229.308 138.341 226.369 136.872L223.238 143.133ZM229.977 147.527L225.572 152.968C226.883 154.029 227.921 155.291 228.718 156.801L234.908 153.533L241.099 150.266C239.422 147.088 237.171 144.346 234.381 142.087L229.977 147.527ZM234.908 153.533L228.773 156.903C229.357 157.966 229.812 159.533 229.812 161.883H236.812H243.812C243.812 157.722 242.999 153.722 241.044 150.163L234.908 153.533ZM236.812 161.883H229.812C229.812 164.866 229.047 167.215 227.66 169.197L233.395 173.211L239.129 177.225C242.299 172.697 243.812 167.493 243.812 161.883H236.812ZM233.395 173.211L227.679 169.17C226.214 171.241 224.087 173.013 221.011 174.391L223.873 180.779L226.735 187.168C231.797 184.9 236.017 181.626 239.11 177.252L233.395 173.211ZM223.873 180.779L221.054 174.372C218.043 175.697 214.302 176.465 209.664 176.465V183.465V190.465C215.834 190.465 221.565 189.443 226.692 187.187L223.873 180.779ZM209.664 183.465V176.465C205.484 176.465 201.536 175.794 197.782 174.47L195.455 181.072L193.128 187.674C198.424 189.541 203.949 190.465 209.664 190.465V183.465ZM195.455 181.072L197.782 174.47C194 173.137 190.453 171.186 187.125 168.579L182.809 174.09L178.492 179.6C182.977 183.114 187.861 185.817 193.128 187.674L195.455 181.072ZM246.285 182H239.285V189H246.285V182ZM246.285 108.758V101.758H239.285V108.758H246.285ZM261.324 108.758H268.324V101.758H261.324V108.758ZM261.324 182V189H268.324V182H261.324ZM246.285 182H253.285V108.758H246.285H239.285V182H246.285ZM246.285 108.758V115.758H261.324V108.758V101.758H246.285V108.758ZM261.324 108.758H254.324V182H261.324H268.324V108.758H261.324ZM261.324 182V175H246.285V182V189H261.324V182ZM293.844 180.633L291.19 187.11L291.217 187.121L291.244 187.132L293.844 180.633ZM281.588 172.625L276.638 177.575L276.661 177.598L276.685 177.621L281.588 172.625ZM273.531 160.516L267.051 163.163L267.059 163.182L267.067 163.201L273.531 160.516ZM273.531 130.242L267.06 127.572L267.056 127.584L267.051 127.595L273.531 130.242ZM281.588 118.133L286.514 123.106L286.514 123.106L281.588 118.133ZM293.844 110.125L291.244 103.626L291.236 103.629L291.228 103.632L293.844 110.125ZM324.654 110.174L322 116.651L322.02 116.659L322.039 116.667L324.654 110.174ZM336.812 118.133L331.863 123.083L331.874 123.094L331.886 123.106L336.812 118.133ZM344.869 130.193L338.405 132.879L344.869 130.193ZM344.869 160.564L338.398 157.895L338.394 157.906L338.389 157.918L344.869 160.564ZM324.654 180.633L327.27 187.126L327.289 187.118L327.308 187.11L324.654 180.633ZM318.404 168.426L315.541 162.038L315.527 162.044L315.513 162.051L318.404 168.426ZM325.777 163.152L330.91 167.913L330.927 167.894L330.944 167.876L325.777 163.152ZM330.611 155.242L324.083 152.715L324.076 152.734L324.069 152.753L330.611 155.242ZM330.611 135.516L324.06 137.981L324.072 138.012L324.083 138.043L330.611 135.516ZM325.777 127.605L320.611 132.329L320.628 132.347L320.645 132.366L325.777 127.605ZM318.404 122.332L315.513 128.707L315.558 128.727L315.602 128.747L318.404 122.332ZM300.045 122.332L302.874 128.735L302.891 128.727L302.908 128.72L300.045 122.332ZM292.672 127.605L287.542 122.842L287.54 122.845L292.672 127.605ZM287.789 135.516L281.261 132.989L281.249 133.019L281.238 133.05L287.789 135.516ZM287.789 155.242L281.238 157.708L281.249 157.739L281.261 157.769L287.789 155.242ZM292.672 163.201L287.506 167.925L287.541 167.963L287.577 168.001L292.672 163.201ZM300.045 168.475L297.154 174.85L297.198 174.87L297.243 174.889L300.045 168.475ZM309.273 183.465V176.465C304.513 176.465 300.261 175.661 296.443 174.133L293.844 180.633L291.244 187.132C296.866 189.381 302.901 190.465 309.273 190.465V183.465ZM293.844 180.633L296.498 174.155C292.616 172.565 289.302 170.388 286.491 167.629L281.588 172.625L276.685 177.621C280.839 181.698 285.696 184.859 291.19 187.11L293.844 180.633ZM281.588 172.625L286.538 167.675C283.752 164.89 281.574 161.628 279.995 157.83L273.531 160.516L267.067 163.201C269.33 168.648 272.523 173.459 276.638 177.575L281.588 172.625ZM273.531 160.516L280.012 157.869C278.498 154.163 277.699 150.027 277.699 145.379H270.699H263.699C263.699 151.668 264.788 157.623 267.051 163.163L273.531 160.516ZM270.699 145.379H277.699C277.699 140.731 278.498 136.594 280.012 132.889L273.531 130.242L267.051 127.595C264.788 133.135 263.699 139.089 263.699 145.379H270.699ZM273.531 130.242L280.002 132.912C281.58 129.088 283.751 125.843 286.514 123.106L281.588 118.133L276.662 113.16C272.523 117.259 269.324 122.087 267.06 127.572L273.531 130.242ZM281.588 118.133L286.514 123.106C289.315 120.331 292.608 118.169 296.459 116.618L293.844 110.125L291.228 103.632C285.704 105.857 280.827 109.034 276.661 113.16L281.588 118.133ZM293.844 110.125L296.443 116.624C300.261 115.097 304.513 114.293 309.273 114.293V107.293V100.293C302.901 100.293 296.866 101.377 291.244 103.626L293.844 110.125ZM309.273 107.293V114.293C314.02 114.293 318.235 115.108 322 116.651L324.654 110.174L327.308 103.696C321.699 101.398 315.66 100.293 309.273 100.293V107.293ZM324.654 110.174L322.039 116.667C325.893 118.219 329.141 120.361 331.863 123.083L336.812 118.133L341.762 113.183C337.648 109.069 332.791 105.905 327.27 103.681L324.654 110.174ZM336.812 118.133L331.886 123.106C334.657 125.851 336.829 129.087 338.405 132.879L344.869 130.193L351.333 127.508C349.068 122.055 345.869 117.251 341.739 113.16L336.812 118.133ZM344.869 130.193L338.405 132.879C339.938 136.57 340.75 140.708 340.75 145.379H347.75H354.75C354.75 139.047 353.641 133.062 351.333 127.508L344.869 130.193ZM347.75 145.379H340.75C340.75 150.011 339.94 154.157 338.398 157.895L344.869 160.564L351.34 163.234C353.639 157.662 354.75 151.684 354.75 145.379H347.75ZM344.869 160.564L338.389 157.918C336.847 161.693 334.697 164.916 331.935 167.652L336.861 172.625L341.788 177.598C345.926 173.498 349.115 168.681 351.349 163.211L344.869 160.564ZM336.861 172.625L331.935 167.652C329.164 170.397 325.876 172.567 322 174.155L324.654 180.633L327.308 187.11C332.807 184.857 337.658 181.689 341.788 177.598L336.861 172.625ZM324.654 180.633L322.039 174.14C318.263 175.66 314.035 176.465 309.273 176.465V183.465V190.465C315.645 190.465 321.67 189.381 327.27 187.126L324.654 180.633ZM309.273 170.33V177.33C313.488 177.33 317.526 176.51 321.295 174.801L318.404 168.426L315.513 162.051C313.684 162.88 311.635 163.33 309.273 163.33V170.33ZM318.404 168.426L321.268 174.813C324.946 173.164 328.178 170.857 330.91 167.913L325.777 163.152L320.645 158.392C319.21 159.94 317.527 161.148 315.541 162.038L318.404 168.426ZM325.777 163.152L330.944 167.876C333.645 164.921 335.713 161.519 337.154 157.731L330.611 155.242L324.069 152.753C323.231 154.955 322.076 156.826 320.611 158.429L325.777 163.152ZM330.611 155.242L337.139 157.769C338.651 153.864 339.369 149.711 339.369 145.379H332.369H325.369C325.369 148.143 324.915 150.566 324.083 152.715L330.611 155.242ZM332.369 145.379H339.369C339.369 141.047 338.651 136.894 337.139 132.989L330.611 135.516L324.083 138.043C324.915 140.192 325.369 142.614 325.369 145.379H332.369ZM330.611 135.516L337.163 133.05C335.722 129.221 333.644 125.794 330.91 122.845L325.777 127.605L320.645 132.366C322.077 133.91 323.222 135.755 324.06 137.981L330.611 135.516ZM325.777 127.605L330.944 122.882C328.198 119.88 324.935 117.546 321.206 115.917L318.404 122.332L315.602 128.747C317.538 129.592 319.19 130.774 320.611 132.329L325.777 127.605ZM318.404 122.332L321.295 115.957C317.526 114.247 313.488 113.428 309.273 113.428V120.428V127.428C311.635 127.428 313.684 127.878 315.513 128.707L318.404 122.332ZM309.273 120.428V113.428C305.036 113.428 300.976 114.244 297.182 115.944L300.045 122.332L302.908 128.72C304.778 127.881 306.87 127.428 309.273 127.428V120.428ZM300.045 122.332L297.216 115.929C293.532 117.557 290.295 119.878 287.542 122.842L292.672 127.605L297.801 132.369C299.281 130.776 300.959 129.581 302.874 128.735L300.045 122.332ZM292.672 127.605L287.54 122.845C284.819 125.779 282.733 129.185 281.261 132.989L287.789 135.516L294.317 138.043C295.188 135.791 296.358 133.924 297.804 132.366L292.672 127.605ZM287.789 135.516L281.238 133.05C279.774 136.939 279.08 141.07 279.08 145.379H286.08H293.08C293.08 142.591 293.525 140.147 294.34 137.981L287.789 135.516ZM286.08 145.379H279.08C279.08 149.688 279.774 153.819 281.238 157.708L287.789 155.242L294.34 152.777C293.525 150.61 293.08 148.167 293.08 145.379H286.08ZM287.789 155.242L281.261 157.769C282.73 161.565 284.806 164.972 287.506 167.925L292.672 163.201L297.838 158.478C296.371 156.873 295.192 154.974 294.317 152.715L287.789 155.242ZM292.672 163.201L287.577 168.001C290.315 170.908 293.521 173.202 297.154 174.85L300.045 168.475L302.936 162.1C300.97 161.208 299.26 159.986 297.767 158.401L292.672 163.201ZM300.045 168.475L297.243 174.889C301.023 176.54 305.062 177.33 309.273 177.33V170.33V163.33C306.845 163.33 304.731 162.883 302.847 162.06L300.045 168.475ZM423.678 182V189H430.678V182H423.678ZM406.393 182L400.616 185.954L402.701 189H406.393V182ZM372.164 132L377.94 128.046L365.164 109.383V132H372.164ZM372.164 182V189H379.164V182H372.164ZM357.125 182H350.125V189H357.125V182ZM357.125 108.758V101.758H350.125V108.758H357.125ZM374.41 108.758L380.19 104.809L378.105 101.758H374.41V108.758ZM408.639 158.855L402.859 162.804L415.639 181.509V158.855H408.639ZM408.639 108.758V101.758H401.639V108.758H408.639ZM423.678 108.758H430.678V101.758H423.678V108.758ZM423.678 182V175H406.393V182V189H423.678V182ZM406.393 182L412.169 178.046L377.94 128.046L372.164 132L366.388 135.954L400.616 185.954L406.393 182ZM372.164 132H365.164V182H372.164H379.164V132H372.164ZM372.164 182V175H357.125V182V189H372.164V182ZM357.125 182H364.125V108.758H357.125H350.125V182H357.125ZM357.125 108.758V115.758H374.41V108.758V101.758H357.125V108.758ZM374.41 108.758L368.63 112.707L402.859 162.804L408.639 158.855L414.418 154.907L380.19 104.809L374.41 108.758ZM408.639 158.855H415.639V108.758H408.639H401.639V158.855H408.639ZM408.639 108.758V115.758H423.678V108.758V101.758H408.639V108.758ZM423.678 108.758H416.678V182H423.678H430.678V108.758H423.678Z" fill="#E53847" mask="url(#path-1-outside-1_4_526)"/>
</svg>
