<svg width="158" height="149" viewBox="0 0 158 149" fill="none" xmlns="http://www.w3.org/2000/svg">
<path d="M68.0407 52.6974C79.1467 45.8755 87.9426 37.0743 93.7176 27.0755C98.16 19.3681 104.557 5.15111 104.557 2.91179C104.557 -0.577361 115.219 -1.9834 115.219 4.78662C115.219 8.27579 119.128 28.5337 131.033 40.6677C142.317 52.2287 146.671 55.1976 154.578 57.1765C159.109 58.2702 158.399 59.1029 152.002 60.4048C136.187 63.6336 129.079 71.3931 114.774 100.973C106.423 118.158 101.27 117.638 96.9161 99.1502C92.6515 80.767 76.8366 59.884 65.553 57.5926C61.8214 56.8636 62.0879 56.3949 68.0407 52.6974ZM105.357 85.9226L107.045 90.6095C107.756 89.5159 116.996 66.5499 133.255 60.4048C137.697 58.7383 138.497 58.0613 135.92 58.0613C127.657 58.0613 114.774 45.1984 110.865 32.804C108.999 27.1276 108.733 26.9193 106.423 30.4605C101.625 38.0117 93.7176 45.1462 82.8783 51.76L75.7705 56.135C76.7478 56.812 96.7385 61.3943 105.357 85.9226Z" fill="#FF6599"/>
<path d="M3.98192 114.044C17.931 107.379 28.1484 95.5575 28.1484 85.8191C28.1484 81.5488 37.8328 76.653 41.4755 88.787C45.9179 103.837 48.8499 107.951 58.8897 113.836C67.1525 118.627 67.2413 118.315 56.8462 119.981C47.1618 121.543 39.9651 129.043 35.2562 142.531C32.3243 150.916 21.7514 151.28 21.3072 142.739C20.6852 130.709 15.9763 123.991 5.31463 120.033C-1.43777 117.481 -1.61547 116.7 3.98192 114.044ZM14.6436 116.805C17.7533 117.43 26.1938 121.752 28.1484 123.627C30.8138 126.283 30.725 126.283 33.8347 123.366C36.5001 120.866 42.8083 118.106 46.9841 117.638C50.1826 117.221 50.0937 117.117 44.9406 114.149C42.4529 112.743 38.9878 109.878 37.2109 107.795C33.2127 103.264 33.7458 103.317 29.9254 106.91C26.9934 109.618 22.1956 112.586 16.154 115.398C14.4659 116.075 13.9328 116.649 14.6436 116.805Z" fill="#FF6599"/>
</svg>
