<svg width="262" height="38" viewBox="0 0 262 38" fill="none" xmlns="http://www.w3.org/2000/svg">
<path d="M21.199 1L27.2245 12.8486L40.699 14.7603L30.949 23.9779L33.25 37L21.199 30.8486L9.14801 37L11.449 23.9779L1.69901 14.7603L15.1735 12.8486L21.199 1Z" fill="#FFC200" stroke="#060400" stroke-width="2" stroke-linecap="round" stroke-linejoin="round"/>
<path d="M76.199 1L82.2245 12.8486L95.699 14.7603L85.949 23.9779L88.25 37L76.199 30.8486L64.148 37L66.449 23.9779L56.699 14.7603L70.1735 12.8486L76.199 1Z" fill="#FFC200" stroke="#060400" stroke-width="2" stroke-linecap="round" stroke-linejoin="round"/>
<path d="M131.199 1L137.225 12.8486L150.699 14.7603L140.949 23.9779L143.25 37L131.199 30.8486L119.148 37L121.449 23.9779L111.699 14.7603L125.174 12.8486L131.199 1Z" fill="#FFC200" stroke="#060400" stroke-width="2" stroke-linecap="round" stroke-linejoin="round"/>
<path d="M186.199 1L192.225 12.8486L205.699 14.7603L195.949 23.9779L198.25 37L186.199 30.8486L174.148 37L176.449 23.9779L166.699 14.7603L180.174 12.8486L186.199 1Z" fill="#FFC200" stroke="#060400" stroke-width="2" stroke-linecap="round" stroke-linejoin="round"/>
<path d="M241.199 1L247.225 12.8486L260.699 14.7603L250.949 23.9779L253.25 37L241.199 30.8486L229.148 37L231.449 23.9779L221.699 14.7603L235.174 12.8486L241.199 1Z" fill="#FFC200" stroke="#060400" stroke-width="2" stroke-linecap="round" stroke-linejoin="round"/>
</svg>
