<svg width="27" height="29" viewBox="0 0 27 29" fill="none" xmlns="http://www.w3.org/2000/svg">
<path d="M0.292893 6.79289C-0.0976311 7.18342 -0.0976311 7.81658 0.292893 8.20711L6.65685 14.5711C7.04738 14.9616 7.68054 14.9616 8.07107 14.5711C8.46159 14.1805 8.46159 13.5474 8.07107 13.1569L2.41421 7.5L8.07107 1.84315C8.46159 1.45262 8.46159 0.819456 8.07107 0.428932C7.68054 0.0384083 7.04738 0.0384083 6.65685 0.428932L0.292893 6.79289ZM1 28L1 29C9.3077 29 15.6838 27.7068 20.0375 25.7055C24.3368 23.7291 26.928 20.9171 26.9986 17.7724C27.0696 14.6066 24.5781 11.7765 20.2985 9.79563C15.9693 7.7918 9.53281 6.5 1 6.5V7.5L1 8.5C9.36291 8.5 15.4833 9.7707 19.4583 11.6106C23.4829 13.4735 25.043 15.7684 24.9991 17.7276C24.9547 19.7079 23.2645 22.0209 19.2022 23.8883C15.1942 25.7307 9.12833 27 1 27V28Z" fill="white"/>
</svg>
